<svg xmlns="http://www.w3.org/2000/svg" viewBox="0 0 255.18 71.31"><defs><style>.cls-1{fill:#ca9e67;}.cls-2{fill:#1d1d1b;}.cls-3{fill:#fff;}</style></defs><title>Logo_negro</title><g id="Capa_2" data-name="Capa 2"><g id="Capa_2-2" data-name="Capa 2"><circle class="cls-1" cx="35.65" cy="35.65" r="35.65"/><rect class="cls-1" x="82.07" y="6.49" width="4.62" height="57.51"/><path class="cls-2" d="M96.66,18.12h7a5.09,5.09,0,0,1,3.75,1.23,3,3,0,0,1,.88,2.22v0a3.17,3.17,0,0,1-2.12,3.06c1.67.55,2.73,1.49,2.73,3.36v0c0,2.35-1.92,3.78-5.2,3.78H96.66Zm6.1,5.47c1.16,0,1.8-.4,1.8-1.2v0c0-.75-.58-1.18-1.72-1.18h-2.47v2.42Zm.55,5.19c1.16,0,1.82-.45,1.82-1.25v0c0-.75-.59-1.24-1.86-1.24h-2.9v2.53Z"/><path class="cls-2" d="M109.94,28.8v0c0-2.19,1.67-3.33,4.16-3.33a8,8,0,0,1,2.55.41v-.18c0-1.09-.69-1.72-2.12-1.72a7.32,7.32,0,0,0-2.92.59l-.77-2.63a10.68,10.68,0,0,1,4.3-.82,5.48,5.48,0,0,1,4,1.29,4.43,4.43,0,0,1,1.13,3.37v6.1h-3.68v-1.1a4,4,0,0,1-3.12,1.34C111.49,32.08,109.94,30.92,109.94,28.8Zm6.75-.8v-.49a3.9,3.9,0,0,0-1.45-.28c-1.08,0-1.71.53-1.71,1.32v0a1.17,1.17,0,0,0,1.31,1.15A1.71,1.71,0,0,0,116.69,28Z"/><path class="cls-2" d="M122.22,21.23H126v1.49A3.91,3.91,0,0,1,129.12,21c2.26,0,3.61,1.49,3.61,3.9v6.94H129V26.1c0-1.16-.6-1.79-1.49-1.79S126,24.94,126,26.1v5.74h-3.73Z"/><path class="cls-2" d="M134.22,26.59v0A5.52,5.52,0,0,1,139.91,21a5,5,0,0,1,4.53,2.37l-2.53,1.88a2.3,2.3,0,0,0-2-1.12,2.2,2.2,0,0,0-2.08,2.36v0A2.2,2.2,0,0,0,140,29a2.54,2.54,0,0,0,2-1.1l2.49,1.8a5.27,5.27,0,0,1-4.73,2.44A5.48,5.48,0,0,1,134.22,26.59Z"/><path class="cls-2" d="M145.29,28.8v0c0-2.19,1.66-3.33,4.15-3.33a8,8,0,0,1,2.55.41v-.18c0-1.09-.68-1.72-2.12-1.72a7.36,7.36,0,0,0-2.92.59l-.76-2.63a10.63,10.63,0,0,1,4.29-.82,5.46,5.46,0,0,1,4,1.29,4.4,4.4,0,0,1,1.14,3.37v6.1H152v-1.1a4,4,0,0,1-3.12,1.34C146.83,32.08,145.29,30.92,145.29,28.8ZM152,28v-.49a3.82,3.82,0,0,0-1.45-.28c-1.08,0-1.71.53-1.71,1.32v0a1.17,1.17,0,0,0,1.32,1.15A1.7,1.7,0,0,0,152,28Z"/><path class="cls-2" d="M156.76,30.51l1.39-2.26a6.86,6.86,0,0,0,3.65,1.22c.65,0,.94-.2.94-.57v0c0-.41-.59-.59-1.7-.9-2.1-.55-3.77-1.26-3.77-3.39v0c0-2.26,1.8-3.51,4.26-3.51a8.36,8.36,0,0,1,4.37,1.23l-1.28,2.35a7.23,7.23,0,0,0-3.13-1c-.57,0-.87.22-.87.51v0c0,.42.61.61,1.73.94,2.1.59,3.76,1.32,3.76,3.38v0c0,2.33-1.74,3.55-4.33,3.55A8.56,8.56,0,0,1,156.76,30.51Z"/><path class="cls-2" d="M172.69,26.59v0c0-3.45,2.15-5.55,4.66-5.55a4.05,4.05,0,0,1,3.26,1.53v-5h3.72V31.84h-3.72V30.43a4,4,0,0,1-3.24,1.65C174.86,32.08,172.69,30,172.69,26.59Zm8,0v0a2.18,2.18,0,1,0-4.34,0v0a2.18,2.18,0,1,0,4.34,0Z"/><path class="cls-2" d="M185.91,26.59v0A5.32,5.32,0,0,1,191.26,21c3.67,0,5.35,2.68,5.35,5.8,0,.24,0,.51,0,.77h-7.1a2.2,2.2,0,0,0,2.3,1.74,3.18,3.18,0,0,0,2.35-1.08l2.06,1.71a5.57,5.57,0,0,1-4.61,2.16A5.34,5.34,0,0,1,185.91,26.59Zm7.21-.93c-.14-1.17-.82-1.92-1.84-1.92s-1.65.77-1.84,1.92Z"/><path class="cls-2" d="M96.45,42h3.72v1.45a3.91,3.91,0,0,1,3.16-1.68,3.25,3.25,0,0,1,3.06,1.72,4.45,4.45,0,0,1,3.55-1.72c2.25,0,3.62,1.41,3.62,3.88v7h-3.72V46.84c0-1.15-.57-1.76-1.45-1.76s-1.53.61-1.53,1.76v5.77h-3.73V46.84c0-1.15-.57-1.76-1.45-1.76s-1.51.61-1.51,1.76v5.77H96.45Z"/><path class="cls-2" d="M115,49.57v0c0-2.2,1.67-3.33,4.16-3.33a8,8,0,0,1,2.55.41v-.18c0-1.1-.69-1.72-2.12-1.72a7.49,7.49,0,0,0-2.92.58l-.77-2.62a10.67,10.67,0,0,1,4.3-.83,5.44,5.44,0,0,1,4,1.3,4.43,4.43,0,0,1,1.13,3.37v6.1h-3.68v-1.1a4,4,0,0,1-3.12,1.33C116.51,52.84,115,51.69,115,49.57Zm6.75-.8v-.49a3.86,3.86,0,0,0-1.45-.28c-1.08,0-1.71.53-1.71,1.31v0a1.17,1.17,0,0,0,1.31,1.16A1.71,1.71,0,0,0,121.71,48.77Z"/><path class="cls-2" d="M126.85,47.35v0c0-3.45,2.16-5.54,4.67-5.54a4.07,4.07,0,0,1,3.25,1.52v-5h3.73V52.61h-3.73V51.2a3.94,3.94,0,0,1-3.23,1.64C129,52.84,126.85,50.75,126.85,47.35Zm8,0v0a2.18,2.18,0,1,0-4.33,0v0a2.18,2.18,0,1,0,4.33,0Z"/><path class="cls-2" d="M140.07,47.35v0a5.31,5.31,0,0,1,5.35-5.54c3.67,0,5.35,2.68,5.35,5.8,0,.23,0,.51,0,.76h-7.09A2.18,2.18,0,0,0,146,50.08,3.18,3.18,0,0,0,148.3,49l2.06,1.71a5.56,5.56,0,0,1-4.61,2.15A5.33,5.33,0,0,1,140.07,47.35Zm7.21-.92a1.89,1.89,0,0,0-1.84-1.92c-1,0-1.65.77-1.84,1.92Z"/><path class="cls-2" d="M152.37,42h3.72v2.14a3.26,3.26,0,0,1,3.35-2.32v3.93h-.31c-1.94,0-3,1.11-3,3.56v3.3h-3.72Z"/><path class="cls-2" d="M159.74,49.57v0c0-2.2,1.67-3.33,4.16-3.33a8,8,0,0,1,2.55.41v-.18c0-1.1-.69-1.72-2.12-1.72a7.49,7.49,0,0,0-2.92.58l-.77-2.62a10.67,10.67,0,0,1,4.3-.83,5.44,5.44,0,0,1,4,1.3,4.43,4.43,0,0,1,1.13,3.37v6.1h-3.68v-1.1a4,4,0,0,1-3.12,1.33C161.29,52.84,159.74,51.69,159.74,49.57Zm6.75-.8v-.49A3.9,3.9,0,0,0,165,48c-1.08,0-1.71.53-1.71,1.31v0a1.17,1.17,0,0,0,1.31,1.16A1.71,1.71,0,0,0,166.49,48.77Z"/><path class="cls-1" d="M171.86,48.78h3.88v3.83h-3.88Z"/><path class="cls-1" d="M177,47.35v0a5.52,5.52,0,0,1,5.69-5.53,5,5,0,0,1,4.53,2.38L184.65,46a2.28,2.28,0,0,0-2-1.12,2.2,2.2,0,0,0-2.08,2.36v0a2.2,2.2,0,0,0,2.12,2.42,2.57,2.57,0,0,0,2-1.1l2.49,1.8a5.26,5.26,0,0,1-4.73,2.43A5.48,5.48,0,0,1,177,47.35Z"/><path class="cls-1" d="M187.83,47.35v0a5.87,5.87,0,0,1,11.72,0v0a5.87,5.87,0,0,1-11.72,0Zm8.1,0v0a2.3,2.3,0,0,0-2.26-2.39,2.22,2.22,0,0,0-2.21,2.36v0a2.3,2.3,0,0,0,2.25,2.4A2.23,2.23,0,0,0,195.93,47.35Z"/><path class="cls-1" d="M201.13,42h3.72v1.45A3.91,3.91,0,0,1,208,41.77a3.25,3.25,0,0,1,3.06,1.72,4.45,4.45,0,0,1,3.55-1.72c2.25,0,3.62,1.41,3.62,3.88v7h-3.72V46.84c0-1.15-.57-1.76-1.45-1.76s-1.53.61-1.53,1.76v5.77h-3.73V46.84c0-1.15-.57-1.76-1.45-1.76s-1.51.61-1.51,1.76v5.77h-3.72Z"/><path class="cls-1" d="M220,48.78h3.89v3.83H220Z"/><path class="cls-1" d="M225.74,42h3.73v1.45a3.89,3.89,0,0,1,3.15-1.68,3.23,3.23,0,0,1,3.06,1.72,4.47,4.47,0,0,1,3.55-1.72c2.26,0,3.63,1.41,3.63,3.88v7h-3.73V46.84c0-1.15-.56-1.76-1.45-1.76s-1.53.61-1.53,1.76v5.77h-3.72V46.84c0-1.15-.57-1.76-1.45-1.76s-1.51.61-1.51,1.76v5.77h-3.73Z"/><path class="cls-1" d="M247.51,47.26,244,42h4l1.57,2.61L251.16,42h3.94l-3.49,5.24,3.57,5.37h-4l-1.65-2.73-1.66,2.73H244Z"/><path class="cls-3" d="M62.5,40.56l-1.1-6.13A1.73,1.73,0,0,0,59.7,33H51V29.45h6.52a1.73,1.73,0,1,0,0-3.46H51V23.86h6.52a1.73,1.73,0,1,0,0-3.46H13.88a1.73,1.73,0,1,0,0,3.46h6V26h-6a1.73,1.73,0,0,0,0,3.46h6V33H12a1.74,1.74,0,0,0-1.7,1.39L9.05,40.52a1.75,1.75,0,0,0,1.7,2.08H16.2V51a1.73,1.73,0,1,0,3.46,0V42.6h4.67v4.11a1.73,1.73,0,1,0,3.46,0V42.6H43.33v4.11a1.73,1.73,0,1,0,3.46,0V42.6h4.43V51a1.74,1.74,0,1,0,3.47,0V42.6h6.1a1.74,1.74,0,0,0,1.71-2ZM23.36,23.86h24.2V26H23.36Zm0,5.59h24.2V33H23.36ZM12.87,39.14l.54-2.68H58.25l.47,2.68Z"/></g></g></svg>