<svg xmlns="http://www.w3.org/2000/svg" viewBox="0 0 236.18 70.33"><defs><style>.cls-1{fill:#c67713;}.cls-2{fill:#1d1d1b;}.cls-3{fill:#fff;}</style></defs><title>Logo_negro</title><g id="Capa_2" data-name="Capa 2"><g id="Capa_2-2" data-name="Capa 2"><circle class="cls-1" cx="35.17" cy="35.17" r="35.17"/><rect class="cls-1" x="81.4" y="6.76" width="4.55" height="56.72"/><path class="cls-2" d="M97.7,18.07h7a5,5,0,0,1,3.7,1.22,3,3,0,0,1,.87,2.18v0a3.13,3.13,0,0,1-2.09,3c1.64.54,2.69,1.47,2.69,3.31v0c0,2.32-1.9,3.73-5.13,3.73h-7Zm6,5.4c1.14,0,1.78-.39,1.78-1.18v0c0-.74-.58-1.16-1.7-1.16h-2.44v2.38Zm.54,5.12c1.15,0,1.8-.44,1.8-1.24v0c0-.74-.58-1.22-1.84-1.22h-2.86v2.49Z"/><path class="cls-2" d="M110.8,28.61v0c0-2.16,1.65-3.29,4.1-3.29a8.12,8.12,0,0,1,2.52.41v-.17c0-1.09-.68-1.71-2.09-1.71a7.47,7.47,0,0,0-2.88.58l-.76-2.59a10.59,10.59,0,0,1,4.24-.81,5.32,5.32,0,0,1,4,1.28A4.33,4.33,0,0,1,121,25.59v6H117.4V30.53a4,4,0,0,1-3.08,1.31C112.33,31.84,110.8,30.7,110.8,28.61Zm6.66-.79v-.48a3.75,3.75,0,0,0-1.43-.28c-1.07,0-1.69.53-1.69,1.3v0a1.15,1.15,0,0,0,1.3,1.14A1.69,1.69,0,0,0,117.46,27.82Z"/><path class="cls-2" d="M122.91,21.14h3.68v1.47a3.88,3.88,0,0,1,3.13-1.7c2.23,0,3.56,1.47,3.56,3.85v6.85h-3.67V25.94c0-1.14-.6-1.76-1.47-1.76a1.55,1.55,0,0,0-1.55,1.76v5.67h-3.68Z"/><path class="cls-2" d="M134.75,26.43v0a5.44,5.44,0,0,1,5.61-5.46,5,5,0,0,1,4.47,2.34l-2.49,1.86a2.26,2.26,0,0,0-2-1.1,2.17,2.17,0,0,0-2,2.32v0a2.17,2.17,0,0,0,2.09,2.38,2.5,2.5,0,0,0,2-1.09l2.46,1.78a5.18,5.18,0,0,1-4.66,2.4A5.4,5.4,0,0,1,134.75,26.43Z"/><path class="cls-2" d="M145.66,28.61v0c0-2.16,1.65-3.29,4.1-3.29a8.12,8.12,0,0,1,2.52.41v-.17c0-1.09-.68-1.71-2.09-1.71a7.47,7.47,0,0,0-2.88.58l-.76-2.59a10.59,10.59,0,0,1,4.24-.81,5.32,5.32,0,0,1,4,1.28,4.33,4.33,0,0,1,1.13,3.32v6h-3.64V30.53a4,4,0,0,1-3.08,1.31C147.19,31.84,145.66,30.7,145.66,28.61Zm6.66-.79v-.48a3.75,3.75,0,0,0-1.43-.28c-1.07,0-1.69.53-1.69,1.3v0a1.15,1.15,0,0,0,1.3,1.14A1.69,1.69,0,0,0,152.32,27.82Z"/><path class="cls-2" d="M157,30.3l1.37-2.23a6.85,6.85,0,0,0,3.6,1.2c.64,0,.93-.19.93-.56v0c0-.41-.58-.58-1.68-.89-2.07-.54-3.72-1.24-3.72-3.35v0c0-2.22,1.78-3.46,4.2-3.46A8.2,8.2,0,0,1,166,22.15l-1.25,2.32a7.13,7.13,0,0,0-3.1-1c-.56,0-.85.22-.85.51v0c0,.4.6.6,1.7.93,2.07.58,3.72,1.29,3.72,3.32v0c0,2.3-1.73,3.5-4.28,3.5A8.46,8.46,0,0,1,157,30.3Z"/><path class="cls-2" d="M173.07,21.14h3.68v1.4a3.86,3.86,0,0,1,3.17-1.63c2.5,0,4.65,2.07,4.65,5.42v0c0,3.4-2.15,5.47-4.63,5.47a3.92,3.92,0,0,1-3.19-1.51v4.38h-3.68ZM181,26.39v0a2.15,2.15,0,1,0-4.28,0v0a2.15,2.15,0,1,0,4.28,0Z"/><path class="cls-2" d="M185.63,28.61v0c0-2.16,1.64-3.29,4.1-3.29a8,8,0,0,1,2.51.41v-.17c0-1.09-.67-1.71-2.08-1.71a7.52,7.52,0,0,0-2.89.58l-.75-2.59a10.59,10.59,0,0,1,4.24-.81,5.34,5.34,0,0,1,4,1.28,4.36,4.36,0,0,1,1.12,3.32v6h-3.63V30.53a4,4,0,0,1-3.08,1.31C187.16,31.84,185.63,30.7,185.63,28.61Zm6.65-.79v-.48a3.71,3.71,0,0,0-1.43-.28c-1.06,0-1.68.53-1.68,1.3v0a1.15,1.15,0,0,0,1.3,1.14A1.68,1.68,0,0,0,192.28,27.82Z"/><path class="cls-2" d="M197.74,21.14h3.67v2.11A3.2,3.2,0,0,1,204.72,21v3.87h-.31c-1.91,0-3,1.1-3,3.52v3.25h-3.67Z"/><path class="cls-2" d="M205,28.61v0c0-2.16,1.65-3.29,4.1-3.29a8.12,8.12,0,0,1,2.52.41v-.17c0-1.09-.68-1.71-2.09-1.71a7.51,7.51,0,0,0-2.88.58l-.76-2.59a10.59,10.59,0,0,1,4.24-.81,5.32,5.32,0,0,1,4,1.28,4.33,4.33,0,0,1,1.13,3.32v6h-3.64V30.53a4,4,0,0,1-3.08,1.31C206.54,31.84,205,30.7,205,28.61Zm6.66-.79v-.48a3.75,3.75,0,0,0-1.43-.28c-1.07,0-1.69.53-1.69,1.3v0a1.15,1.15,0,0,0,1.3,1.14A1.69,1.69,0,0,0,211.67,27.82Z"/><path class="cls-2" d="M96,55.11V52.67a4,4,0,0,0,.49,0c.71,0,1.08-.31,1.08-1.22V41.63h3.68v10c0,2.65-1.36,3.62-3.74,3.62A10.66,10.66,0,0,1,96,55.11ZM97.49,38h3.83v2.71H97.49Z"/><path class="cls-2" d="M102.81,49.09v0c0-2.17,1.65-3.29,4.1-3.29a8.15,8.15,0,0,1,2.52.4V46c0-1.08-.68-1.7-2.09-1.7a7.29,7.29,0,0,0-2.88.58l-.76-2.6a10.59,10.59,0,0,1,4.24-.81,5.38,5.38,0,0,1,4,1.28,4.35,4.35,0,0,1,1.13,3.33v6h-3.64V51a4,4,0,0,1-3.08,1.32C104.34,52.33,102.81,51.18,102.81,49.09Zm6.66-.79v-.48a3.76,3.76,0,0,0-1.43-.27c-1.07,0-1.69.52-1.69,1.29v0a1.15,1.15,0,0,0,1.3,1.14A1.68,1.68,0,0,0,109.47,48.3Z"/><path class="cls-2" d="M114.92,41.63h3.68v2.11a3.21,3.21,0,0,1,3.31-2.29v3.87h-.31c-1.92,0-3,1.1-3,3.52v3.25h-3.68Z"/><path class="cls-2" d="M122.62,46.91v0c0-3.41,2.13-5.48,4.61-5.48a4,4,0,0,1,3.21,1.51V38h3.67V52.09h-3.67V50.7a3.9,3.9,0,0,1-3.2,1.63C124.77,52.33,122.62,50.26,122.62,46.91Zm7.88,0v0a2.15,2.15,0,1,0-4.28,0v0a2.15,2.15,0,1,0,4.28,0Z"/><path class="cls-2" d="M136.08,38h3.84v2.71h-3.84Zm.08,3.66h3.68V52.09h-3.68Z"/><path class="cls-2" d="M141.89,41.63h3.67V43.1a3.9,3.9,0,0,1,3.14-1.71c2.22,0,3.56,1.47,3.56,3.85v6.85h-3.68V46.42c0-1.14-.6-1.76-1.47-1.76a1.55,1.55,0,0,0-1.55,1.76v5.67h-3.67Z"/><path class="cls-1" d="M154,48.32h3.83v3.77H154Z"/><path class="cls-1" d="M159,46.91v0a5.44,5.44,0,0,1,5.61-5.46,5,5,0,0,1,4.47,2.34l-2.5,1.86a2.26,2.26,0,0,0-2-1.1,2.17,2.17,0,0,0-2,2.32v0a2.17,2.17,0,0,0,2.09,2.38,2.52,2.52,0,0,0,2-1.08L169.17,50a5.21,5.21,0,0,1-4.67,2.4A5.4,5.4,0,0,1,159,46.91Z"/><path class="cls-1" d="M169.75,46.91v0a5.79,5.79,0,0,1,11.56,0v0a5.79,5.79,0,0,1-11.56,0Zm8,0v0a2.27,2.27,0,0,0-2.23-2.36,2.2,2.2,0,0,0-2.19,2.32v0a2.27,2.27,0,0,0,2.23,2.36A2.2,2.2,0,0,0,177.74,46.91Z"/><path class="cls-1" d="M182.86,41.63h3.68v1.43a3.83,3.83,0,0,1,3.11-1.67,3.2,3.2,0,0,1,3,1.71,4.39,4.39,0,0,1,3.5-1.71c2.23,0,3.58,1.4,3.58,3.84v6.86h-3.67V46.41c0-1.15-.56-1.75-1.44-1.75s-1.5.6-1.5,1.75v5.68h-3.68V46.41c0-1.15-.56-1.75-1.43-1.75s-1.49.6-1.49,1.75v5.68h-3.68Z"/><path class="cls-1" d="M201.49,48.32h3.83v3.77h-3.83Z"/><path class="cls-1" d="M207.14,41.63h3.68v1.43a3.83,3.83,0,0,1,3.11-1.67,3.21,3.21,0,0,1,3,1.71,4.39,4.39,0,0,1,3.5-1.71c2.23,0,3.58,1.4,3.58,3.84v6.86h-3.68V46.41c0-1.15-.56-1.75-1.43-1.75s-1.51.6-1.51,1.75v5.68h-3.67V46.41c0-1.15-.56-1.75-1.43-1.75s-1.49.6-1.49,1.75v5.68h-3.68Z"/><path class="cls-1" d="M228.61,46.81l-3.46-5.18h4l1.54,2.57,1.55-2.57h3.89l-3.44,5.16,3.52,5.3h-4l-1.62-2.69L229,52.09h-3.87Z"/><path class="cls-3" d="M59.54,35.13H50.33V31.57h3.91a1.5,1.5,0,0,0,1.5-1.5V20a1.5,1.5,0,0,0-1.5-1.5H15.57a1.5,1.5,0,0,0-1.5,1.5V30.07a1.51,1.51,0,0,0,1.5,1.5h3.92v3.56H10.68a1.5,1.5,0,0,0-1.5,1.5v5.84a1.5,1.5,0,0,0,1.5,1.5h8.81V50.3a1.5,1.5,0,0,0,3,0V44H47.33V50.3a1.5,1.5,0,0,0,3,0V44h9.21a1.5,1.5,0,0,0,1.5-1.5V36.63A1.5,1.5,0,0,0,59.54,35.13Zm-12.21,0H22.49V31.57H47.33ZM17.07,28.57V21.45H52.74v7.12ZM58,41H12.18V38.13H58Z"/></g></g></svg>