<svg xmlns="http://www.w3.org/2000/svg" viewBox="0 0 327.45 71.13"><defs><style>.cls-1{fill:#eb5e51;}.cls-2{fill:#1d1d1b;}.cls-3{fill:#fff;}</style></defs><title>Logo_negro</title><g id="Capa_2" data-name="Capa 2"><g id="Capa_2-2" data-name="Capa 2"><circle class="cls-1" cx="35.57" cy="35.57" r="35.57"/><rect class="cls-1" x="82.07" y="6.67" width="4.6" height="57.37"/><path class="cls-2" d="M98,28.56h7a5.08,5.08,0,0,1,3.74,1.23,3,3,0,0,1,.88,2.21v0a3.17,3.17,0,0,1-2.12,3.05c1.67.55,2.72,1.49,2.72,3.35v0c0,2.35-1.91,3.78-5.18,3.78H98ZM104,34c1.16,0,1.8-.39,1.8-1.19v0c0-.74-.59-1.17-1.72-1.17h-2.47V34Zm.55,5.19c1.15,0,1.82-.45,1.82-1.25v0c0-.75-.59-1.24-1.86-1.24h-2.9V39.2Z"/><path class="cls-2" d="M111.19,39.22v0c0-2.19,1.67-3.33,4.15-3.33a8.21,8.21,0,0,1,2.54.41v-.17c0-1.1-.68-1.72-2.11-1.72a7.48,7.48,0,0,0-2.91.58l-.77-2.62a10.67,10.67,0,0,1,4.29-.82,5.44,5.44,0,0,1,4,1.29,4.43,4.43,0,0,1,1.13,3.37v6.08h-3.68v-1.1a4,4,0,0,1-3.11,1.33C112.74,42.48,111.19,41.33,111.19,39.22Zm6.73-.8v-.49a3.8,3.8,0,0,0-1.44-.28c-1.08,0-1.71.53-1.71,1.31v0a1.17,1.17,0,0,0,1.31,1.16A1.7,1.7,0,0,0,117.92,38.42Z"/><path class="cls-2" d="M123.44,31.67h3.72V33.8a3.22,3.22,0,0,1,3.34-2.31V35.4h-.31c-1.94,0-3,1.12-3,3.56v3.29h-3.72Z"/><path class="cls-2" d="M131.82,31.67h3.71V33.8a3.24,3.24,0,0,1,3.35-2.31V35.4h-.32c-1.93,0-3,1.12-3,3.56v3.29h-3.71Z"/><path class="cls-2" d="M139.56,37v0a5.31,5.31,0,0,1,5.34-5.54c3.66,0,5.34,2.68,5.34,5.79,0,.24,0,.51,0,.77h-7.08a2.2,2.2,0,0,0,2.29,1.74,3.21,3.21,0,0,0,2.35-1.08l2.05,1.7a5.52,5.52,0,0,1-4.59,2.15A5.33,5.33,0,0,1,139.56,37Zm7.2-.92c-.14-1.18-.82-1.92-1.84-1.92s-1.64.76-1.84,1.92Z"/><path class="cls-2" d="M151.83,31.67h3.72V33.8a3.22,3.22,0,0,1,3.34-2.31V35.4h-.31c-1.94,0-3,1.12-3,3.56v3.29h-3.72Z"/><path class="cls-2" d="M159.19,39.22v0c0-2.19,1.66-3.33,4.14-3.33a8.33,8.33,0,0,1,2.55.41v-.17c0-1.1-.69-1.72-2.12-1.72a7.48,7.48,0,0,0-2.91.58l-.76-2.62a10.58,10.58,0,0,1,4.28-.82,5.44,5.44,0,0,1,4,1.29,4.44,4.44,0,0,1,1.14,3.37v6.08h-3.68v-1.1a4,4,0,0,1-3.11,1.33C160.73,42.48,159.19,41.33,159.19,39.22Zm6.73-.8v-.49a3.86,3.86,0,0,0-1.45-.28c-1.08,0-1.7.53-1.7,1.31v0a1.16,1.16,0,0,0,1.31,1.16A1.71,1.71,0,0,0,165.92,38.42Z"/><path class="cls-2" d="M170.63,40.92,172,38.67a6.9,6.9,0,0,0,3.64,1.21c.65,0,.94-.19.94-.56v0c0-.41-.59-.59-1.7-.9-2.1-.55-3.76-1.26-3.76-3.39v0c0-2.25,1.8-3.5,4.25-3.5a8.3,8.3,0,0,1,4.36,1.23L178.48,35a7.27,7.27,0,0,0-3.13-1c-.57,0-.86.22-.86.51v0c0,.41.6.61,1.72.94,2.09.59,3.75,1.31,3.75,3.37v0c0,2.33-1.74,3.54-4.32,3.54A8.52,8.52,0,0,1,170.63,40.92Z"/><path class="cls-2" d="M186.11,31.67H190l2,6.18,2-6.18h3.85l-4.22,10.66h-3.39Z"/><path class="cls-2" d="M199.14,28H203v2.74h-3.87Zm.08,3.7h3.71V42.25h-3.71Z"/><path class="cls-2" d="M204.48,39.22v0c0-2.19,1.66-3.33,4.15-3.33a8.26,8.26,0,0,1,2.54.41v-.17c0-1.1-.68-1.72-2.11-1.72a7.49,7.49,0,0,0-2.92.58l-.76-2.62a10.58,10.58,0,0,1,4.28-.82,5.44,5.44,0,0,1,4,1.29,4.4,4.4,0,0,1,1.14,3.37v6.08h-3.68v-1.1A4,4,0,0,1,208,42.48C206,42.48,204.48,41.33,204.48,39.22Zm6.73-.8v-.49a3.82,3.82,0,0,0-1.45-.28c-1.07,0-1.7.53-1.7,1.31v0a1.17,1.17,0,0,0,1.31,1.16A1.7,1.7,0,0,0,211.21,38.42Z"/><path class="cls-2" d="M216.81,28h3.71V42.25h-3.71Z"/><path class="cls-2" d="M222.17,37v0a5.31,5.31,0,0,1,5.34-5.54c3.66,0,5.34,2.68,5.34,5.79,0,.24,0,.51,0,.77h-7.08A2.18,2.18,0,0,0,228,39.73a3.19,3.19,0,0,0,2.34-1.08l2.06,1.7a5.56,5.56,0,0,1-4.6,2.15A5.32,5.32,0,0,1,222.17,37Zm7.2-.92c-.14-1.18-.83-1.92-1.84-1.92s-1.65.76-1.84,1.92Z"/><path class="cls-2" d="M233.63,40.92,235,38.67a6.87,6.87,0,0,0,3.64,1.21c.64,0,.94-.19.94-.56v0c0-.41-.59-.59-1.7-.9-2.1-.55-3.76-1.26-3.76-3.39v0c0-2.25,1.8-3.5,4.25-3.5a8.3,8.3,0,0,1,4.36,1.23L241.48,35a7.27,7.27,0,0,0-3.13-1c-.57,0-.86.22-.86.51v0c0,.41.6.61,1.72.94,2.09.59,3.75,1.31,3.75,3.37v0c0,2.33-1.74,3.54-4.32,3.54A8.52,8.52,0,0,1,233.63,40.92Z"/><path class="cls-1" d="M244.33,38.44h3.88v3.81h-3.88Z"/><path class="cls-1" d="M249.42,37v0a5.5,5.5,0,0,1,5.67-5.52,5,5,0,0,1,4.52,2.37l-2.52,1.88a2.28,2.28,0,0,0-2-1.12A2.2,2.2,0,0,0,253,36.93v0a2.19,2.19,0,0,0,2.11,2.4,2.56,2.56,0,0,0,2-1.09l2.48,1.8A5.24,5.24,0,0,1,255,42.5,5.46,5.46,0,0,1,249.42,37Z"/><path class="cls-1" d="M260.26,37v0a5.86,5.86,0,0,1,11.7,0v0a5.86,5.86,0,0,1-11.7,0Zm8.08,0v0a2.3,2.3,0,0,0-2.25-2.39,2.22,2.22,0,0,0-2.21,2.35v0a2.29,2.29,0,0,0,2.25,2.38A2.21,2.21,0,0,0,268.34,37Z"/><path class="cls-1" d="M273.53,31.67h3.71v1.44a3.9,3.9,0,0,1,3.15-1.68,3.24,3.24,0,0,1,3.05,1.72A4.47,4.47,0,0,1,287,31.43c2.25,0,3.62,1.41,3.62,3.88v6.94h-3.71V36.5c0-1.16-.57-1.76-1.45-1.76s-1.53.6-1.53,1.76v5.75H280.2V36.5c0-1.16-.57-1.76-1.45-1.76s-1.51.6-1.51,1.76v5.75h-3.71Z"/><path class="cls-1" d="M292.37,38.44h3.87v3.81h-3.87Z"/><path class="cls-1" d="M298.08,31.67h3.72v1.44A3.87,3.87,0,0,1,305,31.43,3.26,3.26,0,0,1,308,33.15a4.46,4.46,0,0,1,3.54-1.72c2.25,0,3.62,1.41,3.62,3.88v6.94h-3.72V36.5c0-1.16-.57-1.76-1.45-1.76s-1.52.6-1.52,1.76v5.75h-3.72V36.5c0-1.16-.57-1.76-1.45-1.76s-1.5.6-1.5,1.76v5.75h-3.72Z"/><path class="cls-1" d="M319.8,36.91l-3.51-5.24h4l1.56,2.6,1.57-2.6h3.93l-3.49,5.22,3.57,5.36h-4l-1.65-2.72-1.66,2.72h-3.91Z"/><path class="cls-3" d="M25.87,40.8a1.73,1.73,0,0,1-1.4-2.74l4.25-5.9-4.35-5.9a1.73,1.73,0,0,1,2.78-2.05l5,6.84a1.76,1.76,0,0,1,.27.55l0,.11a1.73,1.73,0,0,1-.26,1.48l-5,6.89A1.7,1.7,0,0,1,25.87,40.8Z"/><path class="cls-3" d="M41,40.8a1.73,1.73,0,0,1-1.4-2.74l4.25-5.9-4.35-5.9a1.73,1.73,0,0,1,2.78-2.05l5,6.84a1.77,1.77,0,0,1,.27.53l0,.12a1.72,1.72,0,0,1-.26,1.49l-5,6.89A1.7,1.7,0,0,1,41,40.8Z"/><path class="cls-3" d="M57.51,16.13H14.09a1.72,1.72,0,0,0-1.73,1.72V46.56a1.74,1.74,0,0,0,1.08,1.6v5a1.73,1.73,0,0,0,1.73,1.73H56.1a1.72,1.72,0,0,0,1.72-1.73V48.25a1.71,1.71,0,0,0,1.42-1.69V17.85A1.72,1.72,0,0,0,57.51,16.13Zm-41.7,3.45h40V44.83h-40ZM54.37,51.45H16.9V49.12H54.37Z"/></g></g></svg>