<svg xmlns="http://www.w3.org/2000/svg" viewBox="0 0 278.64 71.56"><defs><style>.cls-1{fill:#89ccca;}.cls-2{fill:#1d1d1b;}.cls-3{fill:#fff;}</style></defs><title>Logo_negro</title><g id="Capa_2" data-name="Capa 2"><g id="Capa_2-2" data-name="Capa 2"><circle class="cls-1" cx="35.78" cy="35.78" r="35.78"/><rect class="cls-1" x="82.25" y="6.37" width="4.63" height="57.71"/><path class="cls-2" d="M97.44,16.6h7.07a5.12,5.12,0,0,1,3.76,1.24,3,3,0,0,1,.88,2.23v0A3.19,3.19,0,0,1,107,23.18c1.67.55,2.73,1.49,2.73,3.36v0c0,2.36-1.93,3.8-5.21,3.8H97.44Zm6.12,5.5c1.16,0,1.81-.4,1.81-1.21v0c0-.75-.59-1.19-1.73-1.19h-2.48V22.1Zm.55,5.21c1.16,0,1.83-.45,1.83-1.26v0c0-.75-.59-1.24-1.87-1.24h-2.91v2.54Z"/><path class="cls-2" d="M110.87,25.11v0a5.9,5.9,0,0,1,11.77,0v0a5.67,5.67,0,0,1-5.91,5.57A5.62,5.62,0,0,1,110.87,25.11Zm8.12,0v0a2.3,2.3,0,0,0-2.26-2.4A2.22,2.22,0,0,0,114.51,25v0a2.3,2.3,0,0,0,2.26,2.4A2.22,2.22,0,0,0,119,25.11Z"/><path class="cls-2" d="M124.76,27.08V22.75H123.5v-3h1.26V17h3.74v2.69H131v3H128.5v3.6c0,.74.34,1.06,1,1.06a3.34,3.34,0,0,0,1.42-.35V30a5.37,5.37,0,0,1-2.6.61C126.1,30.6,124.76,29.61,124.76,27.08Z"/><path class="cls-2" d="M131.87,25.11v0a5.34,5.34,0,0,1,5.37-5.57c3.68,0,5.37,2.69,5.37,5.82,0,.24,0,.51,0,.77h-7.12a2.19,2.19,0,0,0,2.3,1.75,3.18,3.18,0,0,0,2.36-1.08l2.07,1.71a5.57,5.57,0,0,1-4.62,2.17A5.36,5.36,0,0,1,131.87,25.11Zm7.24-.93c-.14-1.18-.83-1.93-1.85-1.93s-1.65.77-1.85,1.93Z"/><path class="cls-2" d="M143.4,29l1.4-2.26A6.9,6.9,0,0,0,148.46,28c.65,0,.95-.2.95-.57v0c0-.41-.6-.59-1.72-.91-2.1-.55-3.78-1.26-3.78-3.4v0c0-2.26,1.81-3.52,4.28-3.52a8.28,8.28,0,0,1,4.38,1.24l-1.28,2.36a7.17,7.17,0,0,0-3.14-1c-.58,0-.87.21-.87.51v0c0,.41.61.61,1.73.94,2.11.59,3.78,1.32,3.78,3.39v0c0,2.34-1.75,3.56-4.35,3.56A8.56,8.56,0,0,1,143.4,29Z"/><path class="cls-2" d="M159.38,25.11v0c0-3.47,2.17-5.57,4.69-5.57A4.1,4.1,0,0,1,167.34,21V16h3.74V30.38h-3.74V29a4,4,0,0,1-3.25,1.66C161.57,30.62,159.38,28.51,159.38,25.11Zm8,0v0A2.19,2.19,0,1,0,163,25v0a2.27,2.27,0,0,0,2.19,2.42A2.25,2.25,0,0,0,167.39,25.07Z"/><path class="cls-2" d="M172.65,25.11v0A5.34,5.34,0,0,1,178,19.5c3.68,0,5.38,2.69,5.38,5.82,0,.24,0,.51,0,.77h-7.13a2.2,2.2,0,0,0,2.31,1.75,3.21,3.21,0,0,0,2.36-1.08L183,28.47a5.57,5.57,0,0,1-4.62,2.17A5.36,5.36,0,0,1,172.65,25.11Zm7.24-.93A1.9,1.9,0,0,0,178,22.25c-1,0-1.65.77-1.85,1.93Z"/><path class="cls-2" d="M194.18,29.08v1.3h-3.73V16h3.73v5.14a3.93,3.93,0,0,1,3.23-1.65c2.54,0,4.73,2.1,4.73,5.51v0c0,3.46-2.19,5.57-4.71,5.57A4,4,0,0,1,194.18,29.08Zm4.28-4v0a2.19,2.19,0,1,0-4.35,0v0a2.19,2.19,0,1,0,4.35,0Z"/><path class="cls-2" d="M203.22,27.33v0c0-2.2,1.67-3.34,4.17-3.34a8.1,8.1,0,0,1,2.56.41v-.18c0-1.1-.69-1.73-2.13-1.73a7.58,7.58,0,0,0-2.93.59l-.77-2.64a10.74,10.74,0,0,1,4.31-.82,5.47,5.47,0,0,1,4.06,1.3,4.41,4.41,0,0,1,1.14,3.38v6.12h-3.7v-1.1a4,4,0,0,1-3.13,1.34C204.77,30.62,203.22,29.46,203.22,27.33Zm6.77-.81V26a3.88,3.88,0,0,0-1.46-.27c-1.08,0-1.71.53-1.71,1.32v0a1.18,1.18,0,0,0,1.32,1.17A1.71,1.71,0,0,0,210,26.52Z"/><path class="cls-2" d="M214.73,29l1.4-2.26A6.9,6.9,0,0,0,219.79,28c.65,0,1-.2,1-.57v0c0-.41-.59-.59-1.72-.91-2.1-.55-3.77-1.26-3.77-3.4v0c0-2.26,1.81-3.52,4.27-3.52a8.28,8.28,0,0,1,4.38,1.24l-1.27,2.36a7.25,7.25,0,0,0-3.15-1c-.57,0-.87.21-.87.51v0c0,.41.61.61,1.73.94,2.11.59,3.78,1.32,3.78,3.39v0c0,2.34-1.75,3.56-4.35,3.56A8.56,8.56,0,0,1,214.73,29Z"/><path class="cls-2" d="M225.58,26.7v-7h3.74V25.5c0,1.16.61,1.79,1.51,1.79a1.57,1.57,0,0,0,1.56-1.79V19.73h3.74V30.38h-3.74V28.93a3.93,3.93,0,0,1-3.19,1.69C226.94,30.62,225.58,29.12,225.58,26.7Z"/><path class="cls-2" d="M238.14,19.73h3.74v2.15a3.25,3.25,0,0,1,3.36-2.32v3.93h-.31c-2,0-3.05,1.12-3.05,3.59v3.3h-3.74Z"/><path class="cls-2" d="M245.54,27.33v0c0-2.2,1.67-3.34,4.17-3.34a8.1,8.1,0,0,1,2.56.41v-.18c0-1.1-.69-1.73-2.13-1.73a7.58,7.58,0,0,0-2.93.59l-.77-2.64a10.74,10.74,0,0,1,4.31-.82,5.47,5.47,0,0,1,4.06,1.3A4.45,4.45,0,0,1,256,24.26v6.12h-3.7v-1.1a4,4,0,0,1-3.13,1.34C247.09,30.62,245.54,29.46,245.54,27.33Zm6.77-.81V26a3.92,3.92,0,0,0-1.46-.27c-1.08,0-1.71.53-1.71,1.32v0a1.18,1.18,0,0,0,1.32,1.17A1.71,1.71,0,0,0,252.31,26.52Z"/><path class="cls-2" d="M96.79,46v0a5.53,5.53,0,0,1,5.71-5.55,5,5,0,0,1,4.55,2.38l-2.54,1.89a2.3,2.3,0,0,0-2-1.12,2.21,2.21,0,0,0-2.09,2.36v0a2.21,2.21,0,0,0,2.13,2.42,2.56,2.56,0,0,0,2-1.1l2.5,1.81a5.32,5.32,0,0,1-4.75,2.44A5.49,5.49,0,0,1,96.79,46Z"/><path class="cls-2" d="M107.7,46v0a5.9,5.9,0,0,1,11.77,0v0a5.67,5.67,0,0,1-5.91,5.57A5.62,5.62,0,0,1,107.7,46Zm8.13,0v0a2.31,2.31,0,0,0-2.27-2.4,2.22,2.22,0,0,0-2.22,2.36v0a2.3,2.3,0,0,0,2.26,2.4A2.23,2.23,0,0,0,115.83,46Z"/><path class="cls-2" d="M121,40.57h3.74v1.5A4,4,0,0,1,128,40.34c2.26,0,3.62,1.49,3.62,3.92v7h-3.74V45.46c0-1.17-.61-1.8-1.5-1.8a1.58,1.58,0,0,0-1.57,1.8v5.76H121Z"/><path class="cls-2" d="M139,40.57h3.74V42a3.93,3.93,0,0,1,3.23-1.65c2.54,0,4.72,2.1,4.72,5.51v0c0,3.46-2.18,5.57-4.7,5.57a4,4,0,0,1-3.25-1.54v4.45H139Zm8,5.34v0a2.19,2.19,0,1,0-4.35,0v0a2.19,2.19,0,1,0,4.35,0Z"/><path class="cls-2" d="M151.85,46v0a5.34,5.34,0,0,1,5.37-5.57c3.68,0,5.37,2.7,5.37,5.82,0,.24,0,.52,0,.77h-7.12a2.19,2.19,0,0,0,2.3,1.75,3.2,3.2,0,0,0,2.36-1.08l2.07,1.71a5.59,5.59,0,0,1-4.63,2.17A5.36,5.36,0,0,1,151.85,46Zm7.24-.93c-.14-1.18-.83-1.93-1.85-1.93s-1.66.77-1.85,1.93Z"/><path class="cls-2" d="M163.79,46v0c0-3.47,2.17-5.57,4.69-5.57a4.06,4.06,0,0,1,3.26,1.53v-5h3.74V51.22h-3.74V49.81a3.94,3.94,0,0,1-3.24,1.65C166,51.46,163.79,49.35,163.79,46Zm8,0v0a2.19,2.19,0,1,0-4.35,0v0a2.27,2.27,0,0,0,2.19,2.42A2.25,2.25,0,0,0,171.8,45.91Z"/><path class="cls-2" d="M177,48.17v0c0-2.2,1.67-3.34,4.17-3.34a8.05,8.05,0,0,1,2.56.41V45c0-1.1-.69-1.73-2.12-1.73a7.63,7.63,0,0,0-2.94.59l-.76-2.64a10.74,10.74,0,0,1,4.31-.82,5.43,5.43,0,0,1,4,1.3,4.42,4.42,0,0,1,1.14,3.38v6.12h-3.7v-1.1a4,4,0,0,1-3.13,1.34C178.52,51.46,177,50.3,177,48.17Zm6.77-.8v-.5a4,4,0,0,0-1.46-.27c-1.08,0-1.71.53-1.71,1.32v0a1.18,1.18,0,0,0,1.32,1.16A1.71,1.71,0,0,0,183.73,47.37Z"/><path class="cls-2" d="M189.36,36.86h3.74V51.22h-3.74Z"/><path class="cls-1" d="M195,47.38h3.9v3.84H195Z"/><path class="cls-1" d="M200.15,46v0a5.53,5.53,0,0,1,5.71-5.55,5,5,0,0,1,4.54,2.38l-2.54,1.89a2.29,2.29,0,0,0-2-1.12,2.2,2.2,0,0,0-2.08,2.36v0a2.2,2.2,0,0,0,2.12,2.42,2.55,2.55,0,0,0,2.05-1.1l2.5,1.81a5.29,5.29,0,0,1-4.74,2.44A5.49,5.49,0,0,1,200.15,46Z"/><path class="cls-1" d="M211.05,46v0A5.67,5.67,0,0,1,217,40.34a5.62,5.62,0,0,1,5.86,5.53v0a5.9,5.9,0,0,1-11.77,0Zm8.13,0v0a2.3,2.3,0,0,0-2.26-2.4,2.23,2.23,0,0,0-2.23,2.36v0a2.31,2.31,0,0,0,2.27,2.4A2.23,2.23,0,0,0,219.18,46Z"/><path class="cls-1" d="M224.4,40.57h3.74V42a3.9,3.9,0,0,1,3.16-1.69,3.29,3.29,0,0,1,3.08,1.73,4.46,4.46,0,0,1,3.56-1.73c2.26,0,3.64,1.42,3.64,3.9v7h-3.74V45.44c0-1.17-.57-1.78-1.46-1.78s-1.53.61-1.53,1.78v5.78h-3.74V45.44c0-1.17-.57-1.78-1.46-1.78s-1.51.61-1.51,1.78v5.78H224.4Z"/><path class="cls-1" d="M243.35,47.38h3.9v3.84h-3.9Z"/><path class="cls-1" d="M249.1,40.57h3.74V42A3.92,3.92,0,0,1,256,40.34a3.27,3.27,0,0,1,3.07,1.73,4.46,4.46,0,0,1,3.56-1.73c2.26,0,3.64,1.42,3.64,3.9v7h-3.74V45.44c0-1.17-.57-1.78-1.46-1.78s-1.53.61-1.53,1.78v5.78h-3.74V45.44c0-1.17-.57-1.78-1.46-1.78s-1.51.61-1.51,1.78v5.78H249.1Z"/><path class="cls-1" d="M271,45.85l-3.53-5.28h4L273,43.19l1.58-2.62h3.95l-3.5,5.26,3.58,5.39h-4L273,48.49l-1.67,2.73h-3.94Z"/><path class="cls-3" d="M51.87,18.3A7.93,7.93,0,0,0,43,11.41l-2.73.34a3.39,3.39,0,0,0-3.63-2.23L30,10.35a3.45,3.45,0,0,0-3,3.05l-2.57.33a7.81,7.81,0,0,0-5.27,3,7.89,7.89,0,0,0-1.62,5.85l.07.51a1.3,1.3,0,0,0,1.29,1.13h.16L50.8,20.26a1.33,1.33,0,0,0,.88-.49,1.29,1.29,0,0,0,.25-1ZM20.1,21.45a5.29,5.29,0,0,1,4.66-5.14l3.62-.46h.16l.18,0a.58.58,0,0,0,.22-.08,1,1,0,0,0,.22-.13,1.45,1.45,0,0,0,.19-.17l.15-.2a1.31,1.31,0,0,0,.18-.83l-.07-.55a.82.82,0,0,1,.7-.91L37,12.1a.81.81,0,0,1,.59.16.82.82,0,0,1,.3.54l.07.55a1.29,1.29,0,0,0,.27.65l.15.16,0,0,.18.13a1,1,0,0,0,.21.1l.18.06a1.08,1.08,0,0,0,.44,0l3.94-.5a5.28,5.28,0,0,1,3.92,1.09,5.21,5.21,0,0,1,1.85,2.77Z"/><path class="cls-3" d="M38.41,14.18l.07.06.11.07Z"/><path class="cls-3" d="M44.24,61.11H25a7.4,7.4,0,0,1-7.4-7.39V27.53a1.45,1.45,0,0,1,1.45-1.45H50.18a1.45,1.45,0,0,1,1.45,1.45V48.11a1.44,1.44,0,0,1-1.45,1.44H43.93V54h6a1.44,1.44,0,0,1,1.16.59,1.45,1.45,0,0,1,.22,1.29A7.36,7.36,0,0,1,44.24,61.11ZM20.49,29V53.72A4.5,4.5,0,0,0,25,58.21H44.24a4.5,4.5,0,0,0,3.17-1.29H42.48A1.45,1.45,0,0,1,41,55.47V48.11a1.45,1.45,0,0,1,1.45-1.45h6.25V29Z"/><path class="cls-3" d="M53.12,53h-6.2a1.16,1.16,0,1,1,0-2.32h6.2a1.16,1.16,0,0,1,0,2.32Z"/><path class="cls-3" d="M27.48,50.52a1.73,1.73,0,0,1-1.74-1.73V34.72a1.74,1.74,0,0,1,3.47,0V48.79A1.72,1.72,0,0,1,27.48,50.52Z"/><path class="cls-3" d="M35.22,50.61a1.74,1.74,0,0,1-1.74-1.74V34.76a1.74,1.74,0,0,1,3.48,0V48.87A1.74,1.74,0,0,1,35.22,50.61Z"/><path class="cls-3" d="M42.82,45.5a1.74,1.74,0,0,1-1.74-1.74V34.81a1.74,1.74,0,1,1,3.48,0v8.95A1.74,1.74,0,0,1,42.82,45.5Z"/></g></g></svg>