<svg xmlns="http://www.w3.org/2000/svg" viewBox="0 0 208.43 70.15"><defs><style>.cls-1{fill:#00a19a;}.cls-2{fill:#1d1d1b;}.cls-3{fill:#fff;}</style></defs><title>logo_negro</title><g id="Capa_2" data-name="Capa 2"><g id="Capa_1-2" data-name="Capa 1"><circle class="cls-1" cx="35.07" cy="35.07" r="35.07" transform="translate(-5.17 64.08) rotate(-80.78)"/><rect class="cls-1" x="81.45" y="6.39" width="4" height="56.57"/><path class="cls-2" d="M97.07,17.63H104a5,5,0,0,1,3.69,1.22,3,3,0,0,1,.87,2.18v0a3.14,3.14,0,0,1-2.09,3c1.64.54,2.69,1.46,2.69,3.3v0c0,2.31-1.89,3.72-5.12,3.72h-7Zm6,5.38c1.14,0,1.77-.38,1.77-1.17v0c0-.73-.58-1.16-1.7-1.16h-2.43V23Zm.54,5.12c1.14,0,1.79-.44,1.79-1.24v0c0-.74-.58-1.22-1.83-1.22h-2.86v2.49Z"/><path class="cls-2" d="M110.23,26v0a5.79,5.79,0,0,1,11.55,0v0a5.57,5.57,0,0,1-5.8,5.46A5.51,5.51,0,0,1,110.23,26Zm8,0v0A2.27,2.27,0,0,0,116,23.57a2.19,2.19,0,0,0-2.18,2.32v0A2.26,2.26,0,0,0,116,28.28,2.18,2.18,0,0,0,118.2,26Z"/><path class="cls-2" d="M123.85,27.9V23.65h-1.23V20.7h1.23V18.05h3.67V20.7H130v2.95h-2.43v3.53c0,.74.33,1.05,1,1.05a3.29,3.29,0,0,0,1.39-.35v2.87a5.22,5.22,0,0,1-2.55.6C125.17,31.35,123.85,30.39,123.85,27.9Z"/><path class="cls-2" d="M130.82,26v0a5.24,5.24,0,0,1,5.27-5.46c3.61,0,5.27,2.64,5.27,5.71,0,.23,0,.5,0,.75h-7a2.16,2.16,0,0,0,2.26,1.72,3.18,3.18,0,0,0,2.32-1.06l2,1.68a5.47,5.47,0,0,1-4.53,2.12A5.26,5.26,0,0,1,130.82,26Zm7.1-.91a1.86,1.86,0,0,0-1.81-1.89c-1,0-1.62.75-1.82,1.89Z"/><path class="cls-2" d="M142.13,29.83l1.37-2.22a6.79,6.79,0,0,0,3.59,1.2c.63,0,.92-.2.92-.56v0c0-.41-.58-.58-1.68-.89-2.06-.54-3.7-1.24-3.7-3.34v0c0-2.22,1.77-3.45,4.19-3.45a8.19,8.19,0,0,1,4.3,1.21L149.87,24a7.06,7.06,0,0,0-3.09-1c-.56,0-.85.22-.85.5v0c0,.41.6.6,1.7.93,2.06.58,3.7,1.29,3.7,3.32v0c0,2.3-1.71,3.49-4.26,3.49A8.41,8.41,0,0,1,142.13,29.83Z"/><path class="cls-2" d="M158.18,20.7h3.67v1.39A3.82,3.82,0,0,1,165,20.47c2.49,0,4.64,2.06,4.64,5.4v0c0,3.4-2.15,5.46-4.62,5.46a3.91,3.91,0,0,1-3.18-1.5v4.36h-3.67ZM166,25.93v0a2.14,2.14,0,1,0-4.27,0v0a2.15,2.15,0,1,0,4.27,0Z"/><path class="cls-2" d="M170.7,28.15v0c0-2.16,1.64-3.28,4.09-3.28a8.08,8.08,0,0,1,2.51.4v-.17c0-1.08-.67-1.7-2.08-1.7a7.33,7.33,0,0,0-2.88.58l-.75-2.59a10.54,10.54,0,0,1,4.23-.81,5.35,5.35,0,0,1,4,1.28,4.36,4.36,0,0,1,1.12,3.32v6h-3.63V30.06a3.94,3.94,0,0,1-3.07,1.31C172.23,31.37,170.7,30.23,170.7,28.15Zm6.64-.79v-.48a3.75,3.75,0,0,0-1.43-.28c-1.06,0-1.68.53-1.68,1.3v0a1.16,1.16,0,0,0,1.3,1.14A1.68,1.68,0,0,0,177.34,27.36Z"/><path class="cls-2" d="M182.78,20.7h3.67v2.1a3.2,3.2,0,0,1,3.3-2.28v3.86h-.31c-1.91,0-3,1.11-3,3.52v3.24h-3.67Z"/><path class="cls-2" d="M190,28.15v0c0-2.16,1.64-3.28,4.1-3.28a8.13,8.13,0,0,1,2.51.4v-.17c0-1.08-.68-1.7-2.09-1.7a7.33,7.33,0,0,0-2.88.58l-.75-2.59a10.54,10.54,0,0,1,4.23-.81,5.38,5.38,0,0,1,4,1.28,4.36,4.36,0,0,1,1.11,3.32v6h-3.62V30.06a4,4,0,0,1-3.07,1.31C191.56,31.37,190,30.23,190,28.15Zm6.64-.79v-.48a3.66,3.66,0,0,0-1.42-.28c-1.07,0-1.68.53-1.68,1.3v0a1.15,1.15,0,0,0,1.29,1.14A1.68,1.68,0,0,0,196.67,27.36Z"/><path class="cls-2" d="M100.53,50.3v1.27H96.86V37.48h3.67v5a3.82,3.82,0,0,1,3.16-1.62c2.49,0,4.64,2.06,4.64,5.4v0c0,3.4-2.15,5.46-4.62,5.46A3.91,3.91,0,0,1,100.53,50.3Zm4.19-3.94v0a2.15,2.15,0,1,0-4.27,0v0a2.15,2.15,0,1,0,4.27,0Z"/><path class="cls-2" d="M109.38,48.58v0c0-2.16,1.64-3.28,4.1-3.28a8,8,0,0,1,2.5.4v-.17c0-1.08-.67-1.7-2.08-1.7a7.33,7.33,0,0,0-2.88.58l-.75-2.59A10.54,10.54,0,0,1,114.5,41a5.35,5.35,0,0,1,4,1.28,4.32,4.32,0,0,1,1.12,3.32v6H116V50.49a3.92,3.92,0,0,1-3.06,1.31C110.91,51.8,109.38,50.66,109.38,48.58Zm6.64-.79V47.3a3.87,3.87,0,0,0-1.43-.27c-1.06,0-1.68.53-1.68,1.3v0a1.15,1.15,0,0,0,1.3,1.13A1.67,1.67,0,0,0,116,47.79Z"/><path class="cls-2" d="M120.67,50.26,122,48a6.8,6.8,0,0,0,3.59,1.19c.64,0,.93-.19.93-.56v0c0-.41-.58-.58-1.68-.89-2.07-.54-3.71-1.24-3.71-3.34v0c0-2.22,1.78-3.46,4.19-3.46a8.14,8.14,0,0,1,4.3,1.22l-1.25,2.32a7.06,7.06,0,0,0-3.09-1c-.56,0-.85.21-.85.5v0c0,.41.6.6,1.7.93,2.07.58,3.71,1.29,3.71,3.32v0c0,2.3-1.72,3.49-4.27,3.49A8.45,8.45,0,0,1,120.67,50.26Z"/><path class="cls-2" d="M131.3,48V41.13H135v5.65c0,1.14.6,1.76,1.48,1.76A1.55,1.55,0,0,0,138,46.78V41.13h3.67V51.57H138V50.14a3.85,3.85,0,0,1-3.13,1.66C132.63,51.8,131.3,50.33,131.3,48Z"/><path class="cls-2" d="M143.61,41.13h3.67v2.1a3.2,3.2,0,0,1,3.3-2.28v3.86h-.31c-1.91,0-3,1.1-3,3.52v3.24h-3.67Z"/><path class="cls-2" d="M150.87,48.58v0c0-2.16,1.64-3.28,4.09-3.28a8.13,8.13,0,0,1,2.51.4v-.17c0-1.08-.68-1.7-2.09-1.7a7.24,7.24,0,0,0-2.87.58l-.76-2.59A10.58,10.58,0,0,1,156,41a5.38,5.38,0,0,1,4,1.28,4.36,4.36,0,0,1,1.12,3.32v6h-3.63V50.49a4,4,0,0,1-3.07,1.31C152.39,51.8,150.87,50.66,150.87,48.58Zm6.64-.79V47.3a4,4,0,0,0-1.43-.27c-1.06,0-1.68.53-1.68,1.3v0a1.15,1.15,0,0,0,1.29,1.13A1.68,1.68,0,0,0,157.51,47.79Z"/><path class="cls-1" d="M162.79,47.81h3.82v3.76h-3.82Z"/><path class="cls-1" d="M167.81,46.4v0a5.42,5.42,0,0,1,5.6-5.45,4.92,4.92,0,0,1,4.45,2.34l-2.49,1.85a2.26,2.26,0,0,0-2-1.1,2.17,2.17,0,0,0-2,2.32v0a2.16,2.16,0,0,0,2.08,2.37,2.49,2.49,0,0,0,2-1.08l2.45,1.78a5.16,5.16,0,0,1-4.65,2.39A5.38,5.38,0,0,1,167.81,46.4Z"/><path class="cls-1" d="M178.5,46.4v0a5.78,5.78,0,0,1,11.54,0v0a5.78,5.78,0,0,1-11.54,0Zm8,0v0A2.27,2.27,0,0,0,184.25,44a2.19,2.19,0,0,0-2.18,2.32v0a2.26,2.26,0,0,0,2.22,2.35A2.18,2.18,0,0,0,186.47,46.4Z"/><path class="cls-1" d="M191.58,41.13h3.67v1.43a3.82,3.82,0,0,1,3.1-1.66,3.19,3.19,0,0,1,3,1.69,4.4,4.4,0,0,1,3.5-1.69c2.22,0,3.57,1.39,3.57,3.82v6.85h-3.67V45.9c0-1.14-.56-1.74-1.43-1.74s-1.5.6-1.5,1.74v5.67h-3.67V45.9c0-1.14-.56-1.74-1.43-1.74s-1.48.6-1.48,1.74v5.67h-3.67Z"/><path class="cls-3" d="M45.8,62.7H23.89a7.3,7.3,0,0,1-7.29-7.29V25.69a1,1,0,0,1,1-1H52.09a1,1,0,0,1,1,1V55.41A7.3,7.3,0,0,1,45.8,62.7Zm-27.2-36V55.41a5.29,5.29,0,0,0,5.29,5.29H45.8a5.29,5.29,0,0,0,5.29-5.29V26.69Z"/><path class="cls-3" d="M25.36,57.88h-.64a2.7,2.7,0,0,1-2.7-2.7V29.65a.75.75,0,0,1,.75-.75h4.54a.75.75,0,0,1,.75.75V55.18A2.7,2.7,0,0,1,25.36,57.88ZM23.52,30.4V55.18a1.2,1.2,0,0,0,1.2,1.2h.64a1.2,1.2,0,0,0,1.2-1.2V30.4Z"/><path class="cls-3" d="M35,57.88h-.63a2.7,2.7,0,0,1-2.7-2.7V29.65a.75.75,0,0,1,.75-.75H37a.75.75,0,0,1,.75.75V55.18A2.71,2.71,0,0,1,35,57.88ZM33.16,30.4V55.18a1.2,1.2,0,0,0,1.2,1.2H35a1.21,1.21,0,0,0,1.21-1.2V30.4Z"/><path class="cls-3" d="M44.63,57.88H44a2.7,2.7,0,0,1-2.7-2.7V29.65a.74.74,0,0,1,.75-.75h4.53a.74.74,0,0,1,.75.75V55.18A2.7,2.7,0,0,1,44.63,57.88ZM42.8,30.4V55.18a1.2,1.2,0,0,0,1.2,1.2h.63a1.2,1.2,0,0,0,1.2-1.2V30.4Z"/><path class="cls-3" d="M17.62,21.81a1,1,0,0,1-1-.87l-.08-.55a8.15,8.15,0,0,1,7.08-9.09l4.08-.51a1,1,0,0,1,.38,2l-.24,0-4,.5a6.14,6.14,0,0,0-5.38,6.4l32.21-4a6.14,6.14,0,0,0-6.77-4.91l-4.25.53a1,1,0,1,1-.25-2l4.25-.53a8.14,8.14,0,0,1,9.08,7.08l.07.54a1,1,0,0,1-.2.74,1,1,0,0,1-.67.39L17.74,21.8Z"/><path class="cls-3" d="M27.83,12.79a1,1,0,0,1-1-.87l-.07-.6a3.3,3.3,0,0,1,2.85-3.66l7.22-.9a3.29,3.29,0,0,1,3.64,2.85l.08.6a1,1,0,0,1-.87,1.11,1,1,0,0,1-1.12-.87l-.07-.6a1.27,1.27,0,0,0-1.41-1.1l-7.22.89a1.29,1.29,0,0,0-1.11,1.44l.07.59A1,1,0,0,1,28,12.79Z"/></g></g></svg>