<svg xmlns="http://www.w3.org/2000/svg" viewBox="0 0 225.93 70.59"><defs><style>.cls-1{fill:#f39200;}.cls-2,.cls-3{fill:none;stroke:#fff;stroke-linecap:round;stroke-linejoin:round;}.cls-2{stroke-width:2px;}.cls-3{stroke-width:1.5px;}.cls-4{fill:#1d1d1b;}</style></defs><title>Logo_negro</title><g id="Capa_2" data-name="Capa 2"><g id="Capa_1-2" data-name="Capa 1"><circle class="cls-1" cx="35.29" cy="35.29" r="35.29"/><rect class="cls-1" x="81.97" y="6.76" width="4" height="56.84"/><path class="cls-2" d="M17.71,25.37H52.42a0,0,0,0,1,0,0V55.31a6.29,6.29,0,0,1-6.29,6.29H24a6.29,6.29,0,0,1-6.29-6.29V25.37A0,0,0,0,1,17.71,25.37Z"/><path class="cls-2" d="M28,11.54h0l-4.1.52a7.18,7.18,0,0,0-6.25,8l.07.55,34.45-4.27-.08-.56a7.19,7.19,0,0,0-8-6.25l-4.27.54"/><path class="cls-2" d="M28,11.54l-.08-.6a2.3,2.3,0,0,1,2-2.56l7.27-.9a2.28,2.28,0,0,1,2.54,2l.08.61"/><polygon class="cls-3" points="28.89 41.45 40.18 30.52 36.42 41.25 41.49 42.74 30.84 55.34 34.83 43.45 28.89 41.45"/><path class="cls-4" d="M97.32,17.26h7A5,5,0,0,1,108,18.48a3,3,0,0,1,.88,2.2v0a3.16,3.16,0,0,1-2.1,3c1.65.54,2.7,1.48,2.7,3.32v0c0,2.34-1.9,3.75-5.15,3.75h-7Zm6.05,5.42c1.15,0,1.79-.39,1.79-1.19v0c0-.74-.59-1.17-1.71-1.17H101v2.39Zm.54,5.15c1.15,0,1.81-.44,1.81-1.24v0c0-.74-.58-1.23-1.85-1.23H101v2.51Z"/><path class="cls-4" d="M110.57,25.65v0a5.61,5.61,0,0,1,5.84-5.51,5.55,5.55,0,0,1,5.79,5.47v0a5.82,5.82,0,0,1-11.63,0Zm8,0v0a2.28,2.28,0,0,0-2.23-2.38,2.21,2.21,0,0,0-2.2,2.34v0A2.28,2.28,0,0,0,116.41,28,2.2,2.2,0,0,0,118.6,25.65Z"/><path class="cls-4" d="M124.3,27.6V23.32h-1.25v-3h1.25V17.68H128v2.67h2.45v3H128v3.56c0,.74.33,1.05,1,1.05a3.29,3.29,0,0,0,1.4-.35v2.9a5.28,5.28,0,0,1-2.57.6C125.62,31.08,124.3,30.11,124.3,27.6Z"/><path class="cls-4" d="M131.31,25.65v0a5.28,5.28,0,0,1,5.31-5.51c3.63,0,5.3,2.67,5.3,5.76,0,.23,0,.5,0,.76h-7a2.18,2.18,0,0,0,2.27,1.73,3.18,3.18,0,0,0,2.34-1.07l2,1.69A5.52,5.52,0,0,1,137,31.12,5.3,5.3,0,0,1,131.31,25.65Zm7.15-.91a1.86,1.86,0,0,0-1.82-1.9c-1,0-1.64.75-1.83,1.9Z"/><path class="cls-4" d="M142.7,29.54l1.38-2.23a6.85,6.85,0,0,0,3.61,1.2c.64,0,.94-.19.94-.56v0c0-.41-.59-.58-1.69-.89-2.08-.55-3.74-1.25-3.74-3.37v0c0-2.23,1.79-3.48,4.22-3.48a8.23,8.23,0,0,1,4.34,1.23l-1.27,2.33a7.13,7.13,0,0,0-3.11-1c-.56,0-.85.21-.85.5v0c0,.41.6.61,1.71.94,2.08.58,3.73,1.3,3.73,3.34v0c0,2.31-1.73,3.52-4.3,3.52A8.45,8.45,0,0,1,142.7,29.54Z"/><path class="cls-4" d="M158.86,20.35h3.7v1.4a3.85,3.85,0,0,1,3.19-1.64c2.5,0,4.66,2.08,4.66,5.45v0c0,3.42-2.16,5.5-4.64,5.5a3.94,3.94,0,0,1-3.21-1.52V34h-3.7Zm7.92,5.27v0a2.16,2.16,0,1,0-4.3,0v0a2.16,2.16,0,1,0,4.3,0Z"/><path class="cls-4" d="M171.48,27.85v0c0-2.17,1.65-3.3,4.12-3.3a8,8,0,0,1,2.53.41v-.18c0-1.09-.69-1.71-2.1-1.71a7.39,7.39,0,0,0-2.9.58l-.76-2.6a10.51,10.51,0,0,1,4.26-.82,5.42,5.42,0,0,1,4,1.28,4.4,4.4,0,0,1,1.13,3.35v6h-3.65V29.78A4,4,0,0,1,175,31.1C173,31.1,171.48,30,171.48,27.85Zm6.68-.8v-.48a3.76,3.76,0,0,0-1.43-.27c-1.07,0-1.7.52-1.7,1.3v0a1.16,1.16,0,0,0,1.31,1.14A1.68,1.68,0,0,0,178.16,27.05Z"/><path class="cls-4" d="M183.64,20.35h3.69v2.12a3.24,3.24,0,0,1,3.33-2.3v3.89h-.31c-1.93,0-3,1.11-3,3.54v3.26h-3.69Z"/><path class="cls-4" d="M191,27.85v0c0-2.17,1.65-3.3,4.12-3.3a8,8,0,0,1,2.53.41v-.18c0-1.09-.68-1.71-2.1-1.71a7.39,7.39,0,0,0-2.9.58l-.76-2.6a10.51,10.51,0,0,1,4.26-.82,5.44,5.44,0,0,1,4,1.28,4.43,4.43,0,0,1,1.12,3.35v6h-3.65V29.78a4,4,0,0,1-3.09,1.32C192.48,31.1,191,30,191,27.85Zm6.69-.8v-.48a3.81,3.81,0,0,0-1.44-.27c-1.07,0-1.69.52-1.69,1.3v0a1.15,1.15,0,0,0,1.3,1.14A1.69,1.69,0,0,0,197.64,27.05Z"/><path class="cls-4" d="M97.11,40.92h3.69v1.4A3.88,3.88,0,0,1,104,40.69c2.51,0,4.67,2.08,4.67,5.44v0c0,3.42-2.16,5.5-4.65,5.5a4,4,0,0,1-3.21-1.51v4.39H97.11ZM105,46.19v0a2.16,2.16,0,1,0-4.29,0v0a2.16,2.16,0,1,0,4.29,0Z"/><path class="cls-4" d="M110.24,37.25h3.85V40h-3.85Zm.08,3.67H114V51.44h-3.7Z"/><path class="cls-4" d="M116.15,37.25h3.7V51.44h-3.7Z"/><path class="cls-4" d="M121.38,48.43v0c0-2.18,1.65-3.31,4.12-3.31a8.19,8.19,0,0,1,2.53.41v-.17c0-1.09-.68-1.71-2.1-1.71a7.39,7.39,0,0,0-2.9.58l-.76-2.6a10.51,10.51,0,0,1,4.26-.82,5.44,5.44,0,0,1,4,1.28,4.42,4.42,0,0,1,1.12,3.34v6H128V50.35a4,4,0,0,1-3.09,1.32C122.91,51.67,121.38,50.53,121.38,48.43Zm6.69-.8v-.49a4,4,0,0,0-1.44-.27c-1.07,0-1.69.53-1.69,1.31v0a1.16,1.16,0,0,0,1.3,1.15A1.69,1.69,0,0,0,128.07,47.63Z"/><path class="cls-4" d="M132.75,50.12l1.38-2.24a6.78,6.78,0,0,0,3.61,1.21c.65,0,.94-.2.94-.57v0c0-.41-.59-.59-1.69-.9-2.08-.54-3.74-1.24-3.74-3.36v0c0-2.24,1.79-3.48,4.22-3.48a8.31,8.31,0,0,1,4.34,1.22l-1.27,2.34a7,7,0,0,0-3.11-1c-.56,0-.85.21-.85.5v0c0,.41.6.6,1.71.93,2.08.59,3.73,1.31,3.73,3.35v0c0,2.31-1.73,3.51-4.3,3.51A8.48,8.48,0,0,1,132.75,50.12Z"/><path class="cls-1" d="M143.38,47.65h3.85v3.79h-3.85Z"/><path class="cls-1" d="M148.43,46.23v0a5.46,5.46,0,0,1,5.64-5.48,5,5,0,0,1,4.49,2.35l-2.51,1.87a2.27,2.27,0,0,0-2-1.11A2.18,2.18,0,0,0,152,46.15v0a2.18,2.18,0,0,0,2.1,2.39,2.51,2.51,0,0,0,2-1.09l2.47,1.79a5.24,5.24,0,0,1-4.69,2.41A5.42,5.42,0,0,1,148.43,46.23Z"/><path class="cls-1" d="M159.19,46.23v0a5.61,5.61,0,0,1,5.84-5.5,5.55,5.55,0,0,1,5.79,5.46v0a5.83,5.83,0,0,1-11.63,0Zm8,0v0A2.28,2.28,0,0,0,165,43.82a2.21,2.21,0,0,0-2.2,2.33v0A2.28,2.28,0,0,0,165,48.56,2.2,2.2,0,0,0,167.22,46.23Z"/><path class="cls-1" d="M172.37,40.92h3.69v1.44a3.88,3.88,0,0,1,3.13-1.67,3.24,3.24,0,0,1,3,1.71,4.41,4.41,0,0,1,3.51-1.71c2.24,0,3.6,1.4,3.6,3.85v6.9h-3.69V45.73c0-1.15-.57-1.75-1.44-1.75s-1.52.6-1.52,1.75v5.71H179V45.73c0-1.15-.56-1.75-1.44-1.75s-1.5.6-1.5,1.75v5.71h-3.69Z"/><path class="cls-1" d="M191.08,47.65h3.85v3.79h-3.85Z"/><path class="cls-1" d="M196.76,40.92h3.69v1.44a3.87,3.87,0,0,1,3.13-1.67,3.21,3.21,0,0,1,3,1.71,4.44,4.44,0,0,1,3.52-1.71c2.24,0,3.6,1.4,3.6,3.85v6.9H210V45.73c0-1.15-.56-1.75-1.43-1.75s-1.52.6-1.52,1.75v5.71h-3.69V45.73c0-1.15-.57-1.75-1.44-1.75s-1.5.6-1.5,1.75v5.71h-3.69Z"/><path class="cls-1" d="M218.33,46.13l-3.48-5.21h4l1.56,2.59,1.55-2.59h3.91l-3.46,5.19,3.54,5.33h-4l-1.63-2.7-1.65,2.7h-3.89Z"/></g></g></svg>