<svg xmlns="http://www.w3.org/2000/svg" viewBox="0 0 270.99 70.51"><defs><style>.cls-1{fill:#1d1d1b;}.cls-2{fill:#706f6f;}.cls-3{fill:#fff;}</style></defs><title>Logo_negro</title><g id="Capa_2" data-name="Capa 2"><g id="Capa_1-2" data-name="Capa 1"><path class="cls-1" d="M96.11,25.38v0a6.84,6.84,0,0,1,7-6.93,6.52,6.52,0,0,1,5.66,2.78L106,23.35a3.55,3.55,0,0,0-2.92-1.56,3.3,3.3,0,0,0-3.18,3.52v0a3.3,3.3,0,0,0,3.18,3.56,3.65,3.65,0,0,0,3-1.62l2.78,2a7,7,0,0,1-12.77-3.89Z"/><path class="cls-1" d="M109.65,26.91v0a5.17,5.17,0,0,1,5.2-5.39c3.56,0,5.2,2.61,5.2,5.64,0,.23,0,.49,0,.74h-6.9a2.13,2.13,0,0,0,2.23,1.69,3.13,3.13,0,0,0,2.29-1l2,1.65a5.4,5.4,0,0,1-4.48,2.1A5.18,5.18,0,0,1,109.65,26.91Zm7-.9c-.14-1.14-.8-1.86-1.79-1.86s-1.6.74-1.79,1.86Z"/><path class="cls-1" d="M121.59,21.71h3.62v1.45a3.83,3.83,0,0,1,3.09-1.68c2.19,0,3.5,1.45,3.5,3.79V32h-3.62V26.43c0-1.12-.59-1.73-1.45-1.73a1.52,1.52,0,0,0-1.52,1.73V32h-3.62Z"/><path class="cls-1" d="M133.67,18.11h3.77v2.67h-3.77Zm.08,3.6h3.61V32h-3.61Z"/><path class="cls-1" d="M139,26.91v0a5.36,5.36,0,0,1,5.53-5.37,4.88,4.88,0,0,1,4.4,2.3l-2.46,1.83a2.23,2.23,0,0,0-1.92-1.08,2.13,2.13,0,0,0-2,2.28v0a2.14,2.14,0,0,0,2,2.34,2.47,2.47,0,0,0,2-1.06l2.42,1.75a5.1,5.1,0,0,1-4.59,2.36A5.32,5.32,0,0,1,139,26.91Z"/><path class="cls-1" d="M149.52,26.91v0a5.17,5.17,0,0,1,5.2-5.39c3.56,0,5.2,2.61,5.2,5.64,0,.23,0,.49,0,.74H153a2.13,2.13,0,0,0,2.23,1.69,3.09,3.09,0,0,0,2.28-1l2,1.65a5.38,5.38,0,0,1-4.47,2.1A5.18,5.18,0,0,1,149.52,26.91Zm7-.9c-.13-1.14-.79-1.86-1.78-1.86s-1.6.74-1.8,1.86Z"/><path class="cls-1" d="M161.46,21.71h3.62v2.08a3.15,3.15,0,0,1,3.26-2.25v3.81H168c-1.88,0-2.95,1.08-2.95,3.46V32h-3.62Z"/><path class="cls-1" d="M169,26.91v0a5.49,5.49,0,0,1,5.72-5.39,5.43,5.43,0,0,1,5.67,5.35v0a5.7,5.7,0,0,1-11.39,0Zm7.87,0v0a2.23,2.23,0,0,0-2.19-2.32,2.15,2.15,0,0,0-2.15,2.28v0a2.23,2.23,0,0,0,2.19,2.32A2.15,2.15,0,0,0,176.87,26.91Z"/><path class="cls-1" d="M181.1,30.72l1.35-2.19A6.71,6.71,0,0,0,186,29.71c.63,0,.92-.19.92-.55v0c0-.4-.57-.57-1.66-.88-2-.53-3.66-1.22-3.66-3.29v0c0-2.19,1.76-3.41,4.14-3.41A8.06,8.06,0,0,1,190,22.7L188.74,25a7,7,0,0,0-3.05-.95c-.55,0-.84.21-.84.5v0c0,.4.59.59,1.68.91,2,.57,3.65,1.28,3.65,3.28v0c0,2.27-1.69,3.45-4.21,3.45A8.29,8.29,0,0,1,181.1,30.72Z"/><path class="cls-1" d="M96.35,41.88H100v1.41A3.79,3.79,0,0,1,103,41.65a3.15,3.15,0,0,1,3,1.68,4.32,4.32,0,0,1,3.44-1.68c2.19,0,3.53,1.37,3.53,3.77v6.76h-3.62v-5.6c0-1.12-.55-1.71-1.41-1.71s-1.48.59-1.48,1.71v5.6h-3.62v-5.6c0-1.12-.56-1.71-1.41-1.71s-1.47.59-1.47,1.71v5.6H96.35Z"/><path class="cls-1" d="M114.43,47.08v0a5.17,5.17,0,0,1,5.2-5.39c3.56,0,5.2,2.61,5.2,5.64,0,.23,0,.49,0,.74h-6.89a2.12,2.12,0,0,0,2.22,1.69,3.13,3.13,0,0,0,2.29-1l2,1.65a5.4,5.4,0,0,1-4.48,2.1A5.19,5.19,0,0,1,114.43,47.08Zm7-.9c-.14-1.14-.8-1.86-1.79-1.86s-1.6.74-1.79,1.86Z"/><path class="cls-1" d="M127,49V44.79h-1.22V41.88H127V39.27h3.62v2.61H133v2.91h-2.4v3.49c0,.72.32,1,1,1A3.15,3.15,0,0,0,133,49V51.8a5.17,5.17,0,0,1-2.51.59C128.3,52.39,127,51.44,127,49Z"/><path class="cls-1" d="M134.07,49.23v0c0-2.13,1.62-3.24,4-3.24a7.86,7.86,0,0,1,2.47.4v-.17c0-1.06-.66-1.67-2.05-1.67a7.27,7.27,0,0,0-2.84.57L135,42.53a10.24,10.24,0,0,1,4.17-.8A5.29,5.29,0,0,1,143,43a4.31,4.31,0,0,1,1.1,3.28v5.92h-3.58V51.11a3.87,3.87,0,0,1-3,1.3C135.57,52.41,134.07,51.29,134.07,49.23Zm6.55-.78V48a3.86,3.86,0,0,0-1.41-.26c-1.05,0-1.66.51-1.66,1.27v0a1.14,1.14,0,0,0,1.28,1.12A1.65,1.65,0,0,0,140.62,48.45Z"/><path class="cls-1" d="M146.07,38.28h3.62v13.9h-3.62Z"/><path class="cls-1" d="M151.71,38.28h3.77V41h-3.77Zm.07,3.6h3.62v10.3h-3.62Z"/><path class="cls-1" d="M157,47.08v0a5.36,5.36,0,0,1,5.53-5.37,4.88,4.88,0,0,1,4.4,2.3l-2.46,1.83a2.23,2.23,0,0,0-1.92-1.08,2.13,2.13,0,0,0-2,2.28v0a2.13,2.13,0,0,0,2.05,2.34,2.46,2.46,0,0,0,2-1.07L167,50.07a5.1,5.1,0,0,1-4.59,2.36A5.32,5.32,0,0,1,157,47.08Z"/><path class="cls-1" d="M167.56,47.08v0a5.49,5.49,0,0,1,5.71-5.39A5.43,5.43,0,0,1,178.94,47v0a5.49,5.49,0,0,1-5.71,5.39A5.43,5.43,0,0,1,167.56,47.08Zm7.86,0v0a2.23,2.23,0,0,0-2.19-2.32A2.15,2.15,0,0,0,171.08,47v0a2.23,2.23,0,0,0,2.19,2.32A2.16,2.16,0,0,0,175.42,47.08Z"/><path class="cls-1" d="M179.65,50.89,181,48.7a6.71,6.71,0,0,0,3.55,1.18c.62,0,.91-.19.91-.56v0c0-.4-.57-.58-1.66-.88-2-.53-3.65-1.22-3.65-3.29v0c0-2.19,1.75-3.41,4.13-3.41a8.12,8.12,0,0,1,4.25,1.2l-1.24,2.28a7,7,0,0,0-3-.95c-.55,0-.84.21-.84.5v0c0,.4.59.6,1.68.92,2,.57,3.66,1.27,3.66,3.27v0c0,2.27-1.7,3.45-4.21,3.45A8.37,8.37,0,0,1,179.65,50.89Z"/><path class="cls-2" d="M190.07,48.47h3.77v3.71h-3.77Z"/><path class="cls-2" d="M195,47.08v0a5.36,5.36,0,0,1,5.53-5.37A4.88,4.88,0,0,1,205,44l-2.46,1.83a2.23,2.23,0,0,0-1.92-1.08,2.13,2.13,0,0,0-2,2.28v0a2.13,2.13,0,0,0,2,2.34,2.46,2.46,0,0,0,2-1.07L205,50.07a5.1,5.1,0,0,1-4.59,2.36A5.32,5.32,0,0,1,195,47.08Z"/><path class="cls-2" d="M205.58,47.08v0a5.49,5.49,0,0,1,5.71-5.39A5.43,5.43,0,0,1,217,47v0a5.7,5.7,0,0,1-11.38,0Zm7.86,0v0a2.23,2.23,0,0,0-2.19-2.32A2.15,2.15,0,0,0,209.1,47v0a2.23,2.23,0,0,0,2.19,2.32A2.16,2.16,0,0,0,213.44,47.08Z"/><path class="cls-2" d="M218.49,41.88h3.62v1.41a3.79,3.79,0,0,1,3.07-1.64,3.16,3.16,0,0,1,3,1.68,4.32,4.32,0,0,1,3.44-1.68c2.19,0,3.53,1.37,3.53,3.77v6.76H231.5v-5.6c0-1.12-.55-1.71-1.41-1.71s-1.49.59-1.49,1.71v5.6H225v-5.6c0-1.12-.56-1.71-1.41-1.71s-1.47.59-1.47,1.71v5.6h-3.62Z"/><path class="cls-2" d="M236.84,48.47h3.77v3.71h-3.77Z"/><path class="cls-2" d="M242.4,41.88H246v1.41a3.79,3.79,0,0,1,3.07-1.64,3.15,3.15,0,0,1,3,1.68,4.34,4.34,0,0,1,3.45-1.68c2.19,0,3.52,1.37,3.52,3.77v6.76H255.4v-5.6c0-1.12-.55-1.71-1.41-1.71s-1.48.59-1.48,1.71v5.6h-3.62v-5.6c0-1.12-.55-1.71-1.41-1.71s-1.47.59-1.47,1.71v5.6H242.4Z"/><path class="cls-2" d="M263.54,47l-3.41-5.1H264l1.52,2.53,1.52-2.53h3.83L267.52,47,271,52.18H267.1l-1.6-2.65-1.62,2.65h-3.81Z"/><circle class="cls-2" cx="35.26" cy="35.26" r="35.26"/><rect class="cls-2" x="81.37" y="7.05" width="4.56" height="56.78"/><path class="cls-3" d="M52.69,19.13h-8.8a1.3,1.3,0,0,0-1.3,1.3v3.21h0A2.31,2.31,0,0,1,40.36,26H34.17L47.6,12a1.58,1.58,0,0,0-.06-2.22L45.62,7.9a1.5,1.5,0,0,0-1.13-.44,1.57,1.57,0,0,0-1.09.48L28.25,23.8h0a.66.66,0,0,1,0-.14h0V20.59a1.45,1.45,0,0,0-1.4-1.45H23.19a3.6,3.6,0,0,1,3.47-2.61A5.65,5.65,0,0,0,32.42,11,5.63,5.63,0,0,0,26.7,5.49a1,1,0,0,0-1,1,1,1,0,0,0,1,1A3.58,3.58,0,0,1,30.37,11a3.6,3.6,0,0,1-3.71,3.46A5.6,5.6,0,0,0,21.12,19a.34.34,0,0,0,0,.1H18a1.2,1.2,0,0,0-1.14,1.24V51.88c0,5,3.73,9,8.31,9H45.52c4.58,0,8.32-4,8.32-9V20.37A1.2,1.2,0,0,0,52.69,19.13Zm-7.85,4.52v-2h6.72v4.48H44a4.58,4.58,0,0,0,.8-2.2,1.85,1.85,0,0,0,0-.24ZM29.1,27.79H29l0,0A.29.29,0,0,0,29.1,27.79Zm14-.76-.07,0ZM30.47,26A2.14,2.14,0,0,1,29,25.43L40,13.94l1.77,1.69L31.84,26ZM44.53,9.18l1.77,1.7-3.86,4-1.77-1.69ZM21.25,21.61H26v.05a.34.34,0,0,0,0,.1v1.89a1.93,1.93,0,0,0,0,.24A.43.43,0,0,0,26,24a4.33,4.33,0,0,0,.22,1,2.73,2.73,0,0,0,.27.64c.09.16.18.32.29.48H19.17V21.61ZM45.52,58.43H25.19a6.31,6.31,0,0,1-6-6.55V28.33H51.56V51.88A6.32,6.32,0,0,1,45.52,58.43Z"/></g></g></svg>