<svg xmlns="http://www.w3.org/2000/svg" viewBox="0 0 281.8 71.67"><defs><style>.cls-1{fill:#f29073;}.cls-2{fill:#1d1d1b;}.cls-3{fill:#fff;}</style></defs><title>Logo_negro</title><g id="Capa_2" data-name="Capa 2"><g id="Capa_2-2" data-name="Capa 2"><circle class="cls-1" cx="35.84" cy="35.84" r="35.84"/><rect class="cls-1" x="82.15" y="6.96" width="4.64" height="57.8"/><path class="cls-2" d="M97.26,24.1v0a7.08,7.08,0,0,1,7.27-7.18,6.77,6.77,0,0,1,5.86,2.88L107.51,22a3.7,3.7,0,0,0-3-1.62A3.42,3.42,0,0,0,101.2,24v0a3.41,3.41,0,0,0,3.29,3.68,3.79,3.79,0,0,0,3.12-1.67l2.87,2.05a7.26,7.26,0,0,1-13.22-4Z"/><path class="cls-2" d="M111.27,25.68v0a5.69,5.69,0,0,1,5.92-5.58,5.63,5.63,0,0,1,5.87,5.54v0a5.91,5.91,0,0,1-11.79,0Zm8.14,0v0a2.3,2.3,0,0,0-2.26-2.4,2.23,2.23,0,0,0-2.23,2.36v0a2.32,2.32,0,0,0,2.27,2.41A2.23,2.23,0,0,0,119.41,25.68Z"/><path class="cls-2" d="M124.64,20.3h3.74v1.5a4,4,0,0,1,3.2-1.74c2.27,0,3.63,1.5,3.63,3.93v7h-3.75V25.19c0-1.16-.61-1.8-1.5-1.8a1.59,1.59,0,0,0-1.58,1.8V31h-3.74Z"/><path class="cls-2" d="M136.7,25.68v0a5.69,5.69,0,0,1,5.92-5.58,5.63,5.63,0,0,1,5.87,5.54v0a5.91,5.91,0,0,1-11.79,0Zm8.15,0v0a2.31,2.31,0,0,0-2.27-2.4,2.23,2.23,0,0,0-2.23,2.36v0a2.32,2.32,0,0,0,2.27,2.41A2.24,2.24,0,0,0,144.85,25.68Z"/><path class="cls-2" d="M149.22,29.62l1.4-2.26a6.93,6.93,0,0,0,3.67,1.22c.65,0,.94-.2.94-.57v0c0-.42-.59-.59-1.71-.91-2.11-.55-3.79-1.26-3.79-3.41v0c0-2.27,1.82-3.53,4.28-3.53a8.33,8.33,0,0,1,4.4,1.25l-1.28,2.36a7.24,7.24,0,0,0-3.16-1c-.57,0-.86.21-.86.51v0c0,.41.61.61,1.73.94,2.11.59,3.79,1.32,3.79,3.39v0c0,2.35-1.76,3.57-4.36,3.57A8.59,8.59,0,0,1,149.22,29.62Z"/><path class="cls-2" d="M165.23,25.68v0c0-3.47,2.17-5.58,4.69-5.58a4.06,4.06,0,0,1,3.27,1.54v-5h3.75V31h-3.75V29.55a3.94,3.94,0,0,1-3.25,1.65C167.42,31.2,165.23,29.09,165.23,25.68Zm8,0v0a2.19,2.19,0,1,0-4.35,0v0a2.19,2.19,0,1,0,4.35,0Z"/><path class="cls-2" d="M178.52,25.68v0a5.35,5.35,0,0,1,5.38-5.58c3.69,0,5.38,2.7,5.38,5.84,0,.24,0,.51,0,.77h-7.13a2.19,2.19,0,0,0,2.3,1.75,3.22,3.22,0,0,0,2.37-1.08l2.07,1.71a5.61,5.61,0,0,1-4.64,2.17A5.36,5.36,0,0,1,178.52,25.68Zm7.25-.92c-.14-1.19-.83-1.94-1.85-1.94s-1.66.77-1.85,1.94Z"/><path class="cls-2" d="M96.7,50.5l1.4-2.27a7,7,0,0,0,3.67,1.22c.65,0,1-.19,1-.57v0c0-.41-.59-.59-1.72-.9-2.11-.56-3.78-1.27-3.78-3.42v0c0-2.27,1.81-3.53,4.27-3.53a8.33,8.33,0,0,1,4.4,1.24l-1.28,2.36a7.21,7.21,0,0,0-3.15-1c-.58,0-.87.21-.87.51v0c0,.41.61.61,1.73.95,2.11.59,3.79,1.32,3.79,3.39v0c0,2.34-1.76,3.57-4.36,3.57A8.66,8.66,0,0,1,96.7,50.5Z"/><path class="cls-2" d="M107.21,46.56v0a5.35,5.35,0,0,1,5.38-5.58c3.69,0,5.39,2.7,5.39,5.83,0,.24,0,.52,0,.77h-7.14a2.2,2.2,0,0,0,2.31,1.76,3.22,3.22,0,0,0,2.36-1.09l2.07,1.72a5.57,5.57,0,0,1-4.63,2.16A5.36,5.36,0,0,1,107.21,46.56Zm7.26-.93a1.91,1.91,0,0,0-1.86-1.93c-1,0-1.65.77-1.85,1.93Z"/><path class="cls-2" d="M119.47,53.81l1.21-2.48a7.33,7.33,0,0,0,3.72,1c1.87,0,2.8-.92,2.8-2.62V49.3a4.14,4.14,0,0,1-3.29,1.59,4.64,4.64,0,0,1-4.73-5v0a4.65,4.65,0,0,1,4.61-5,4.27,4.27,0,0,1,3.35,1.5V41.17h3.75v8.11a5.68,5.68,0,0,1-1.38,4.25c-1,1-2.47,1.5-4.69,1.5A11.44,11.44,0,0,1,119.47,53.81Zm7.73-7.87v0a2.18,2.18,0,0,0-4.35,0v0a2.18,2.18,0,0,0,4.35,0Z"/><path class="cls-2" d="M132.82,48.15v-7h3.75V47c0,1.16.61,1.79,1.51,1.79A1.57,1.57,0,0,0,139.64,47V41.17h3.75V51.84h-3.75V50.38a3.91,3.91,0,0,1-3.19,1.7C134.18,52.08,132.82,50.58,132.82,48.15Z"/><path class="cls-2" d="M145.4,41.17h3.74v2.15A3.26,3.26,0,0,1,152.51,41v3.94h-.31c-1.95,0-3.06,1.12-3.06,3.59v3.31H145.4Z"/><path class="cls-2" d="M153.84,37.45h3.9v2.76h-3.9Zm.07,3.72h3.75V51.84h-3.75Z"/><path class="cls-2" d="M159.35,46.56v0c0-3.47,2.17-5.58,4.7-5.58a4.1,4.1,0,0,1,3.27,1.53v-5h3.74V51.84h-3.74V50.42a4,4,0,0,1-3.25,1.66C161.54,52.08,159.35,50,159.35,46.56Zm8,0v0a2.19,2.19,0,1,0-4.36,0v0a2.19,2.19,0,1,0,4.36,0Z"/><path class="cls-2" d="M172.54,48.78v0c0-2.2,1.68-3.35,4.18-3.35a8.09,8.09,0,0,1,2.57.42v-.18c0-1.11-.69-1.74-2.13-1.74a7.42,7.42,0,0,0-2.94.6l-.77-2.65a10.79,10.79,0,0,1,4.32-.82,5.47,5.47,0,0,1,4.06,1.3A4.45,4.45,0,0,1,183,45.71v6.13h-3.7V50.73a4,4,0,0,1-3.14,1.35C174.1,52.08,172.54,50.91,172.54,48.78Zm6.79-.81v-.49a3.92,3.92,0,0,0-1.46-.27c-1.09,0-1.72.53-1.72,1.32v0a1.17,1.17,0,0,0,1.32,1.16A1.72,1.72,0,0,0,179.33,48Z"/><path class="cls-2" d="M184.49,46.56v0c0-3.47,2.17-5.58,4.69-5.58a4.11,4.11,0,0,1,3.28,1.53v-5h3.74V51.84h-3.74V50.42a4,4,0,0,1-3.26,1.66C186.68,52.08,184.49,50,184.49,46.56Zm8,0v0a2.19,2.19,0,1,0-4.35,0v0a2.19,2.19,0,1,0,4.35,0Z"/><path class="cls-1" d="M198.05,48H202v3.85h-3.91Z"/><path class="cls-1" d="M203.18,46.56v0A5.54,5.54,0,0,1,208.9,41a5,5,0,0,1,4.55,2.38l-2.54,1.89a2.31,2.31,0,0,0-2-1.12,2.21,2.21,0,0,0-2.09,2.37v0A2.2,2.2,0,0,0,209,48.94a2.57,2.57,0,0,0,2-1.1l2.5,1.81a5.3,5.3,0,0,1-4.75,2.44A5.5,5.5,0,0,1,203.18,46.56Z"/><path class="cls-1" d="M214.1,46.56v0A5.68,5.68,0,0,1,220,40.94a5.62,5.62,0,0,1,5.87,5.54v0a5.91,5.91,0,0,1-11.79,0Zm8.14,0v0A2.31,2.31,0,0,0,220,44.11a2.24,2.24,0,0,0-2.23,2.37v0a2.3,2.3,0,0,0,2.27,2.4A2.22,2.22,0,0,0,222.24,46.56Z"/><path class="cls-1" d="M227.47,41.17h3.74v1.46a3.94,3.94,0,0,1,3.18-1.69,3.26,3.26,0,0,1,3.07,1.73A4.5,4.5,0,0,1,241,40.94c2.27,0,3.65,1.42,3.65,3.9v7h-3.75V46c0-1.16-.57-1.77-1.46-1.77s-1.53.61-1.53,1.77v5.8h-3.75V46c0-1.16-.57-1.77-1.46-1.77s-1.52.61-1.52,1.77v5.8h-3.74Z"/><path class="cls-1" d="M246.45,48h3.91v3.85h-3.91Z"/><path class="cls-1" d="M252.21,41.17H256v1.46a3.94,3.94,0,0,1,3.18-1.69,3.26,3.26,0,0,1,3.07,1.73,4.51,4.51,0,0,1,3.57-1.73c2.27,0,3.65,1.42,3.65,3.9v7h-3.75V46c0-1.16-.57-1.77-1.45-1.77s-1.54.61-1.54,1.77v5.8h-3.75V46c0-1.16-.57-1.77-1.46-1.77S256,44.88,256,46v5.8h-3.74Z"/><path class="cls-1" d="M274.09,46.46l-3.53-5.29h4l1.58,2.62,1.58-2.62h4l-3.51,5.27,3.59,5.4h-4l-1.66-2.74-1.67,2.74H270.5Z"/><path class="cls-3" d="M54.25,55.26,52.38,45.7a4.28,4.28,0,0,0-4.32-3.26h-1l-5.65-28.2a4.83,4.83,0,0,0-4.88-3.63h-1.1a5,5,0,0,0-5,3.69l-5.8,28.14h-1a4.28,4.28,0,0,0-4.28,3.09L17,55.09a3.69,3.69,0,0,0,.69,3.16,4.57,4.57,0,0,0,3.59,1.66H49.94a4.49,4.49,0,0,0,3.52-1.59A3.68,3.68,0,0,0,54.25,55.26ZM33.78,15a1.64,1.64,0,0,1,1.67-1h1.1a1.51,1.51,0,0,1,1.55.9L39.52,22H32.33ZM31.62,25.41h8.59l1.88,9.43H29.67ZM27,47.69,27.54,45a1.15,1.15,0,0,0,.1-.33L29,38.24h13.8l1.3,6.44a1.37,1.37,0,0,0,.11.36l.52,2.66a2.2,2.2,0,0,1-.53,1.9A4,4,0,0,1,41.05,51H30.65a4,4,0,0,1-3.13-1.35A2.23,2.23,0,0,1,27,47.69Zm23.83,8.47a1.16,1.16,0,0,1-.89.35H21.28a1.19,1.19,0,0,1-.91-.36c-.09-.13-.08-.21-.07-.24l2.36-9.57a1,1,0,0,1,1-.5h.27L23.66,47a5.66,5.66,0,0,0,1.21,4.75,7.52,7.52,0,0,0,5.78,2.6h10.4a7.46,7.46,0,0,0,5.75-2.59A5.66,5.66,0,0,0,48,47l-.23-1.2h.25c.57,0,.94.3,1,.52l1.89,9.56A.28.28,0,0,1,50.83,56.16Z"/></g></g></svg>