<svg xmlns="http://www.w3.org/2000/svg" viewBox="0 0 335.48 71.67"><defs><style>.cls-1{fill:#00708a;}.cls-2{fill:#1d1d1b;}.cls-3{fill:#fff;}</style></defs><title>Logo_negro</title><g id="Capa_2" data-name="Capa 2"><g id="Capa_2-2" data-name="Capa 2"><circle class="cls-1" cx="35.84" cy="35.84" r="35.84"/><rect class="cls-1" x="82.95" y="6.52" width="4.64" height="57.8"/><path class="cls-2" d="M97.69,23.71v0A7.08,7.08,0,0,1,105,16.5a6.75,6.75,0,0,1,5.86,2.88l-2.88,2.22a3.71,3.71,0,0,0-3-1.61,3.41,3.41,0,0,0-3.29,3.65v0a3.42,3.42,0,0,0,3.29,3.69A3.79,3.79,0,0,0,108,25.69l2.88,2a7.27,7.27,0,0,1-13.23-4Z"/><path class="cls-2" d="M111.71,25.29v0a5.9,5.9,0,0,1,11.78,0v0a5.9,5.9,0,0,1-11.78,0Zm8.14,0v0a2.31,2.31,0,0,0-2.27-2.4,2.23,2.23,0,0,0-2.23,2.36v0a2.32,2.32,0,0,0,2.27,2.41A2.24,2.24,0,0,0,119.85,25.29Z"/><path class="cls-2" d="M125.07,19.91h3.75v1.5A3.94,3.94,0,0,1,132,19.67c2.27,0,3.63,1.5,3.63,3.93v7h-3.75V24.8c0-1.16-.61-1.8-1.5-1.8a1.58,1.58,0,0,0-1.57,1.8v5.77h-3.75Z"/><path class="cls-2" d="M138.22,27.26V22.93H137v-3h1.26v-2.7H142v2.7h2.48v3H142v3.6c0,.75.33,1.07,1,1.07a3.21,3.21,0,0,0,1.42-.36v2.94a5.4,5.4,0,0,1-2.6.61C139.56,30.79,138.22,29.81,138.22,27.26Z"/><path class="cls-2" d="M145.34,25.29v0a5.35,5.35,0,0,1,5.38-5.58c3.69,0,5.38,2.7,5.38,5.84,0,.23,0,.51,0,.77H149a2.19,2.19,0,0,0,2.3,1.75A3.22,3.22,0,0,0,153.62,27l2.07,1.71a5.6,5.6,0,0,1-4.63,2.17A5.37,5.37,0,0,1,145.34,25.29Zm7.25-.93c-.14-1.18-.83-1.93-1.85-1.93s-1.66.77-1.85,1.93Z"/><path class="cls-2" d="M157.7,19.91h3.74v1.5a4,4,0,0,1,3.2-1.74c2.26,0,3.62,1.5,3.62,3.93v7h-3.74V24.8c0-1.16-.61-1.8-1.5-1.8a1.58,1.58,0,0,0-1.58,1.8v5.77H157.7Z"/><path class="cls-2" d="M169.76,25.29v0a5.36,5.36,0,0,1,5.39-5.58c3.68,0,5.38,2.7,5.38,5.84,0,.23,0,.51,0,.77h-7.14A2.21,2.21,0,0,0,175.68,28,3.18,3.18,0,0,0,178,27l2.07,1.71a5.58,5.58,0,0,1-4.63,2.17A5.37,5.37,0,0,1,169.76,25.29Zm7.26-.93c-.14-1.18-.83-1.93-1.85-1.93s-1.66.77-1.86,1.93Z"/><path class="cls-2" d="M181.73,25.29v0c0-3.47,2.17-5.58,4.69-5.58a4.06,4.06,0,0,1,3.27,1.54v-5h3.75V30.57h-3.75V29.15a3.93,3.93,0,0,1-3.25,1.66C183.92,30.81,181.73,28.7,181.73,25.29Zm8,0v0a2.19,2.19,0,1,0-4.35,0v0a2.19,2.19,0,1,0,4.35,0Z"/><path class="cls-2" d="M195,25.29v0a5.91,5.91,0,0,1,11.79,0v0a5.68,5.68,0,0,1-5.92,5.58A5.62,5.62,0,0,1,195,25.29Zm8.14,0v0a2.31,2.31,0,0,0-2.27-2.4,2.23,2.23,0,0,0-2.23,2.36v0a2.32,2.32,0,0,0,2.27,2.41A2.24,2.24,0,0,0,203.16,25.29Z"/><path class="cls-2" d="M208.38,19.91h3.75v2.15a3.27,3.27,0,0,1,3.37-2.33v3.94h-.31c-2,0-3.06,1.13-3.06,3.59v3.31h-3.75Z"/><path class="cls-2" d="M216.19,25.29v0a5.35,5.35,0,0,1,5.38-5.58c3.69,0,5.38,2.7,5.38,5.84,0,.23,0,.51,0,.77H219.8A2.2,2.2,0,0,0,222.11,28,3.21,3.21,0,0,0,224.47,27l2.07,1.71a5.59,5.59,0,0,1-4.63,2.17A5.37,5.37,0,0,1,216.19,25.29Zm7.25-.93a1.9,1.9,0,0,0-1.85-1.93c-1,0-1.65.77-1.85,1.93Z"/><path class="cls-2" d="M227.74,29.23l1.4-2.26a7,7,0,0,0,3.67,1.22c.65,0,.95-.2.95-.57v0c0-.42-.6-.59-1.72-.91-2.11-.55-3.78-1.26-3.78-3.41v0c0-2.27,1.81-3.53,4.27-3.53a8.42,8.42,0,0,1,4.4,1.24l-1.28,2.37a7.27,7.27,0,0,0-3.16-1c-.57,0-.86.22-.86.52v0c0,.41.61.61,1.73.94,2.11.59,3.79,1.32,3.79,3.39v0c0,2.35-1.76,3.57-4.36,3.57A8.59,8.59,0,0,1,227.74,29.23Z"/><path class="cls-2" d="M243.75,25.29v0c0-3.47,2.17-5.58,4.69-5.58a4.1,4.1,0,0,1,3.28,1.54v-5h3.74V30.57h-3.74V29.15a4,4,0,0,1-3.26,1.66C245.94,30.81,243.75,28.7,243.75,25.29Zm8,0v0a2.19,2.19,0,1,0-4.35,0v0a2.19,2.19,0,1,0,4.35,0Z"/><path class="cls-2" d="M257,25.29v0a5.35,5.35,0,0,1,5.38-5.58c3.69,0,5.38,2.7,5.38,5.84,0,.23,0,.51,0,.77h-7.13A2.19,2.19,0,0,0,263,28,3.22,3.22,0,0,0,265.32,27l2.07,1.71a5.6,5.6,0,0,1-4.63,2.17A5.37,5.37,0,0,1,257,25.29Zm7.25-.93c-.14-1.18-.83-1.93-1.85-1.93s-1.66.77-1.85,1.93Z"/><path class="cls-2" d="M101.69,50.15v1.3H98V37.06h3.74V42.2a3.93,3.93,0,0,1,3.23-1.65c2.55,0,4.73,2.11,4.73,5.52v0c0,3.47-2.18,5.57-4.71,5.57A4,4,0,0,1,101.69,50.15Zm4.28-4v0a2.19,2.19,0,1,0-4.36,0v0a2.19,2.19,0,1,0,4.36,0Z"/><path class="cls-2" d="M110.74,48.39v0c0-2.2,1.68-3.35,4.18-3.35a8.08,8.08,0,0,1,2.56.42v-.18c0-1.11-.69-1.74-2.13-1.74a7.37,7.37,0,0,0-2.93.6l-.77-2.65a10.74,10.74,0,0,1,4.31-.82,5.44,5.44,0,0,1,4.06,1.3,4.45,4.45,0,0,1,1.15,3.39v6.13h-3.71V50.34a4,4,0,0,1-3.13,1.34C112.3,51.68,110.74,50.52,110.74,48.39Zm6.78-.81v-.49a3.88,3.88,0,0,0-1.46-.27c-1.08,0-1.71.53-1.71,1.32v0a1.17,1.17,0,0,0,1.32,1.16A1.71,1.71,0,0,0,117.52,47.58Z"/><path class="cls-2" d="M122.27,50.11l1.4-2.27a6.93,6.93,0,0,0,3.67,1.22c.65,0,.95-.19.95-.57v0c0-.41-.6-.59-1.72-.91-2.11-.55-3.78-1.26-3.78-3.41v0c0-2.27,1.81-3.53,4.27-3.53a8.33,8.33,0,0,1,4.4,1.24l-1.28,2.36a7.24,7.24,0,0,0-3.16-1c-.57,0-.86.22-.86.51v0c0,.41.61.61,1.73.95,2.11.59,3.79,1.32,3.79,3.39v0c0,2.34-1.76,3.56-4.36,3.56A8.65,8.65,0,0,1,122.27,50.11Z"/><path class="cls-2" d="M133.14,47.76v-7h3.74v5.78c0,1.16.61,1.79,1.52,1.79A1.57,1.57,0,0,0,140,46.56V40.78h3.74V51.45H140V50a3.92,3.92,0,0,1-3.2,1.69C134.5,51.68,133.14,50.19,133.14,47.76Z"/><path class="cls-2" d="M145.71,40.78h3.75v2.15a3.26,3.26,0,0,1,3.37-2.32v3.94h-.32c-1.95,0-3,1.12-3,3.59v3.31h-3.75Z"/><path class="cls-2" d="M153.13,48.39v0c0-2.2,1.67-3.35,4.18-3.35a8.08,8.08,0,0,1,2.56.42v-.18c0-1.11-.69-1.74-2.13-1.74a7.46,7.46,0,0,0-2.94.6L154,41.45a10.82,10.82,0,0,1,4.32-.82,5.47,5.47,0,0,1,4.06,1.3,4.45,4.45,0,0,1,1.14,3.39v6.13h-3.7V50.34a4,4,0,0,1-3.14,1.34C154.68,51.68,153.13,50.52,153.13,48.39Zm6.78-.81v-.49a3.92,3.92,0,0,0-1.46-.27c-1.09,0-1.72.53-1.72,1.32v0a1.17,1.17,0,0,0,1.32,1.16A1.72,1.72,0,0,0,159.91,47.58Z"/><path class="cls-2" d="M170.83,53.42l1.2-2.48a7.37,7.37,0,0,0,3.73,1c1.87,0,2.8-.93,2.8-2.62v-.41a4.16,4.16,0,0,1-3.3,1.59,4.64,4.64,0,0,1-4.73-5v0a4.65,4.65,0,0,1,4.62-5A4.31,4.31,0,0,1,178.5,42V40.78h3.74v8.11a5.64,5.64,0,0,1-1.38,4.25c-1,1-2.46,1.5-4.69,1.5A11.4,11.4,0,0,1,170.83,53.42Zm7.73-7.87v0a2,2,0,0,0-2.17-2,2.07,2.07,0,0,0-2.19,2.07v0a2.18,2.18,0,0,0,4.36,0Z"/><path class="cls-2" d="M184.26,40.78H188v2.15a3.26,3.26,0,0,1,3.37-2.32v3.94h-.31c-2,0-3.06,1.12-3.06,3.59v3.31h-3.74Z"/><path class="cls-2" d="M191.67,48.39v0c0-2.2,1.67-3.35,4.18-3.35a8.08,8.08,0,0,1,2.56.42v-.18c0-1.11-.69-1.74-2.13-1.74a7.46,7.46,0,0,0-2.94.6l-.77-2.65a10.82,10.82,0,0,1,4.32-.82,5.47,5.47,0,0,1,4.06,1.3,4.45,4.45,0,0,1,1.15,3.39v6.13h-3.71V50.34a4,4,0,0,1-3.14,1.34C193.22,51.68,191.67,50.52,191.67,48.39Zm6.78-.81v-.49a3.92,3.92,0,0,0-1.46-.27c-1.09,0-1.72.53-1.72,1.32v0a1.18,1.18,0,0,0,1.32,1.16A1.72,1.72,0,0,0,198.45,47.58Z"/><path class="cls-2" d="M204,40.78h3.74v1.5a4,4,0,0,1,3.2-1.73c2.26,0,3.62,1.49,3.62,3.92v7h-3.74V45.67c0-1.16-.61-1.79-1.5-1.79a1.58,1.58,0,0,0-1.58,1.79v5.78H204Z"/><path class="cls-2" d="M216.11,46.16v0c0-3.47,2.17-5.58,4.69-5.58a4.11,4.11,0,0,1,3.28,1.53v-5h3.74V51.45h-3.74V50a4,4,0,0,1-3.26,1.65C218.3,51.68,216.11,49.58,216.11,46.16Zm8,0v0a2.19,2.19,0,1,0-4.36,0v0a2.19,2.19,0,1,0,4.36,0Z"/><path class="cls-2" d="M229.4,46.16v0a5.35,5.35,0,0,1,5.38-5.58c3.69,0,5.38,2.7,5.38,5.83,0,.24,0,.51,0,.77H233a2.2,2.2,0,0,0,2.3,1.76,3.23,3.23,0,0,0,2.37-1.09l2.07,1.72a5.58,5.58,0,0,1-4.63,2.16A5.37,5.37,0,0,1,229.4,46.16Zm7.25-.92a1.9,1.9,0,0,0-1.85-1.93c-1,0-1.65.77-1.85,1.93Z"/><path class="cls-2" d="M241,50.11l1.4-2.27A6.9,6.9,0,0,0,246,49.06c.65,0,.94-.19.94-.57v0c0-.41-.59-.59-1.71-.91-2.11-.55-3.79-1.26-3.79-3.41v0c0-2.27,1.82-3.53,4.28-3.53a8.33,8.33,0,0,1,4.4,1.24l-1.28,2.36a7.24,7.24,0,0,0-3.16-1c-.57,0-.86.22-.86.51v0c0,.41.61.61,1.73.95,2.11.59,3.78,1.32,3.78,3.39v0c0,2.34-1.75,3.56-4.35,3.56A8.63,8.63,0,0,1,241,50.11Z"/><path class="cls-1" d="M251.74,47.6h3.9v3.85h-3.9Z"/><path class="cls-1" d="M256.86,46.16v0a5.54,5.54,0,0,1,5.72-5.56A5,5,0,0,1,267.13,43l-2.54,1.89a2.29,2.29,0,0,0-2-1.12,2.22,2.22,0,0,0-2.09,2.37v0a2.21,2.21,0,0,0,2.13,2.42,2.56,2.56,0,0,0,2.05-1.1l2.5,1.81a5.27,5.27,0,0,1-4.75,2.44A5.5,5.5,0,0,1,256.86,46.16Z"/><path class="cls-1" d="M267.78,46.16v0a5.68,5.68,0,0,1,5.92-5.58,5.62,5.62,0,0,1,5.87,5.54v0a5.91,5.91,0,0,1-11.79,0Zm8.14,0v0a2.31,2.31,0,0,0-2.26-2.41,2.23,2.23,0,0,0-2.23,2.37v0a2.31,2.31,0,0,0,2.27,2.4A2.23,2.23,0,0,0,275.92,46.16Z"/><path class="cls-1" d="M281.15,40.78h3.74v1.46a3.94,3.94,0,0,1,3.18-1.69,3.26,3.26,0,0,1,3.07,1.73,4.5,4.5,0,0,1,3.57-1.73c2.27,0,3.65,1.42,3.65,3.9v7h-3.75v-5.8c0-1.16-.57-1.77-1.46-1.77s-1.53.61-1.53,1.77v5.8h-3.75v-5.8c0-1.16-.57-1.77-1.46-1.77s-1.52.61-1.52,1.77v5.8h-3.74Z"/><path class="cls-1" d="M300.13,47.6H304v3.85h-3.91Z"/><path class="cls-1" d="M305.89,40.78h3.75v1.46a3.92,3.92,0,0,1,3.17-1.69,3.29,3.29,0,0,1,3.08,1.73,4.48,4.48,0,0,1,3.56-1.73c2.27,0,3.65,1.42,3.65,3.9v7h-3.75v-5.8c0-1.16-.57-1.77-1.45-1.77s-1.54.61-1.54,1.77v5.8h-3.75v-5.8c0-1.16-.57-1.77-1.46-1.77s-1.51.61-1.51,1.77v5.8h-3.75Z"/><path class="cls-1" d="M327.77,46.07l-3.53-5.29h4.05l1.57,2.63,1.58-2.63h4l-3.51,5.27,3.59,5.4h-4l-1.66-2.74-1.67,2.74h-3.94Z"/><path class="cls-3" d="M46.74,57.05a6.77,6.77,0,1,1,6.77-6.77A6.78,6.78,0,0,1,46.74,57.05Zm0-10.06A3.29,3.29,0,1,0,50,50.28,3.29,3.29,0,0,0,46.74,47Z"/><path class="cls-3" d="M16.31,56.69A4.1,4.1,0,1,1,20.4,52.6,4.1,4.1,0,0,1,16.31,56.69Zm0-5.87a1.78,1.78,0,1,0,1.77,1.78A1.78,1.78,0,0,0,16.31,50.82Z"/><path class="cls-3" d="M61.9,16.45a1.73,1.73,0,0,0-1.55-1H12.73A1.73,1.73,0,0,0,11,17.22v5.53a1.74,1.74,0,0,0,1.74,1.74h1.5V44.88a1.7,1.7,0,0,0,.65,1.36,1.75,1.75,0,0,0,1.48.34,4.13,4.13,0,0,1,1-.12,4.45,4.45,0,0,1,4.47,4A1.75,1.75,0,0,0,23.56,52H36a1.73,1.73,0,0,0,1.26-.55,1.69,1.69,0,0,0,.46-1.31v-.38a8.69,8.69,0,0,1,11.84-8,1.7,1.7,0,0,0,1.38,0,1.75,1.75,0,0,0,.92-1l5.58-16.87a.87.87,0,0,0,.09-.11l4.19-5.53A1.72,1.72,0,0,0,61.9,16.45ZM49.1,38.07a11.65,11.65,0,0,0-2.7-.31A12.13,12.13,0,0,0,34.31,48.54H25A8,8,0,0,0,17.71,43V24.66H53.54ZM55.29,21H14.47V19H56.85Z"/></g></g></svg>