<?xml version="1.0" encoding="utf-8"?>
<!-- Generator: Adobe Illustrator 27.1.0, SVG Export Plug-In . SVG Version: 6.00 Build 0)  -->
<svg version="1.1" id="Capa_2_00000066478614312613643730000014265802854449983108_"
	 xmlns="http://www.w3.org/2000/svg" xmlns:xlink="http://www.w3.org/1999/xlink" x="0px" y="0px" viewBox="0 0 366.4 85"
	 style="enable-background:new 0 0 366.4 85;" xml:space="preserve">
<style type="text/css">
	.st0{fill:#95C11F;}
	.st1{fill:#FFFFFF;}
	.st2{fill:#1D1D1B;}
</style>
<g>
	<g>
		<circle class="st0" cx="38.4" cy="42.5" r="37.9"/>
		<rect x="88.2" y="12.1" class="st0" width="4.9" height="61.1"/>
		<path class="st1" d="M27.4,70c-2.2,0-4.1-1.8-4.1-4.1c0-2.2,1.8-4.1,4.1-4.1s4.1,1.8,4.1,4.1C31.5,68.2,29.6,70,27.4,70z
			 M27.4,64.2c-1,0-1.8,0.8-1.8,1.8s0.8,1.8,1.8,1.8c1,0,1.8-0.8,1.8-1.8S28.4,64.2,27.4,64.2z"/>
		<path class="st1" d="M49.8,70c-2.2,0-4.1-1.8-4.1-4.1c0-2.2,1.8-4.1,4.1-4.1s4.1,1.8,4.1,4.1C53.8,68.2,52,70,49.8,70z M49.8,64.2
			c-1,0-1.8,0.8-1.8,1.8s0.8,1.8,1.8,1.8s1.8-0.8,1.8-1.8S50.8,64.2,49.8,64.2z"/>
		<path class="st1" d="M63.3,38h-1.9l0.6-5.5c0.2-0.1,0.3-0.3,0.4-0.5l3.3-6.3c0.3-0.5,0.3-1.2,0-1.7c-0.3-0.5-0.9-0.8-1.5-0.8H12.7
			c-0.6,0-1.2,0.3-1.5,0.8c-0.3,0.5-0.3,1.1-0.1,1.7l3.1,6.3c0.1,0.3,0.3,0.5,0.6,0.7l0.6,5.4h-1.6c-2.4,0-4.3,1.9-4.3,4.4v4.5
			c0,2.4,1.9,4.4,4.3,4.4h3l0.8,7.9c0.1,0.9,0.8,1.5,1.7,1.5h38.1c0.9,0,1.6-0.7,1.7-1.5l0.8-7.9c0,0,0.1,0,0.1,0h3.2
			c2.4,0,4.4-2,4.4-4.4v-4.5C67.7,40,65.8,38,63.3,38L63.3,38z M16.4,47.8h-2.6c-0.5,0-0.9-0.4-0.9-0.9v-4.5c0-0.5,0.4-0.9,0.9-0.9
			h1.9L16.4,47.8L16.4,47.8z M21,57.2L18.5,34h7.7l2,23.3L21,57.2L21,57.2z M31.6,57.2l-2-23.3h17.8l-1.9,23.2c0,0,0,0.1,0,0.1
			L31.6,57.2L31.6,57.2z M55.9,57.2h-7L50.9,34h7.6C58.4,34,55.9,57.2,55.9,57.2z M59.6,30.2l-42.3,0l-1.8-3.5h45.9
			C61.4,26.7,59.6,30.2,59.6,30.2z M64.2,46.9c0,0.5-0.4,0.9-0.9,0.9h-2.8l0.7-6.3h2.2c0.5,0,0.9,0.4,0.9,0.9L64.2,46.9L64.2,46.9z"
			/>
	</g>
	<g>
		<path class="st2" d="M104.5,32.4L104.5,32.4c0-4,3-7.1,7.1-7.1c2.8,0,4.5,1.2,5.7,2.8l-2.8,2.2c-0.8-1-1.7-1.6-2.9-1.6
			c-1.9,0-3.2,1.6-3.2,3.6v0c0,2,1.3,3.6,3.2,3.6c1.4,0,2.2-0.7,3.1-1.6l2.8,2c-1.3,1.8-3,3-6,3C107.6,39.4,104.5,36.4,104.5,32.4
			L104.5,32.4z"/>
		<path class="st2" d="M118.2,33.9L118.2,33.9c0-3,2.4-5.5,5.8-5.5c3.4,0,5.7,2.5,5.7,5.4v0c0,3-2.4,5.5-5.8,5.5
			C120.6,39.4,118.2,36.9,118.2,33.9L118.2,33.9z M126.2,33.9L126.2,33.9c0-1.3-0.9-2.4-2.2-2.4c-1.3,0-2.2,1.1-2.2,2.3v0
			c0,1.3,0.9,2.4,2.2,2.4C125.3,36.3,126.2,35.2,126.2,33.9z"/>
		<path class="st2" d="M131.3,28.7h3.7v1.5c0.7-0.9,1.6-1.7,3.1-1.7c2.2,0,3.5,1.5,3.5,3.8v6.8H138v-5.7c0-1.1-0.6-1.8-1.5-1.8
			s-1.5,0.6-1.5,1.8v5.7h-3.7V28.7z"/>
		<path class="st2" d="M144.1,35.9v-4.2h-1.2v-2.9h1.2V26h3.7v2.6h2.4v2.9h-2.4v3.5c0,0.7,0.3,1,1,1c0.5,0,0.9-0.1,1.4-0.3v2.9
			c-0.7,0.4-1.5,0.6-2.5,0.6C145.5,39.3,144.1,38.4,144.1,35.9L144.1,35.9z"/>
		<path class="st2" d="M151.1,33.9L151.1,33.9c0-3.1,2.2-5.5,5.3-5.5c3.6,0,5.3,2.6,5.3,5.7c0,0.2,0,0.5,0,0.7h-7
			c0.3,1.1,1.1,1.7,2.3,1.7c0.9,0,1.6-0.3,2.3-1.1l2,1.7c-1,1.3-2.5,2.1-4.5,2.1C153.4,39.4,151.1,37.2,151.1,33.9L151.1,33.9z
			 M158.2,33c-0.1-1.2-0.8-1.9-1.8-1.9c-1,0-1.6,0.7-1.8,1.9H158.2L158.2,33z"/>
		<path class="st2" d="M163.2,28.7h3.7v1.5c0.7-0.9,1.6-1.7,3.1-1.7c2.2,0,3.5,1.5,3.5,3.8v6.8h-3.7v-5.7c0-1.1-0.6-1.8-1.5-1.8
			s-1.5,0.6-1.5,1.8v5.7h-3.7V28.7z"/>
		<path class="st2" d="M175,33.9L175,33.9c0-3.1,2.2-5.5,5.3-5.5c3.6,0,5.3,2.6,5.3,5.7c0,0.2,0,0.5,0,0.7h-7
			c0.3,1.1,1.1,1.7,2.3,1.7c0.9,0,1.6-0.3,2.3-1.1l2,1.7c-1,1.3-2.5,2.1-4.5,2.1C177.3,39.4,175,37.2,175,33.9L175,33.9z M182.1,33
			c-0.1-1.2-0.8-1.9-1.8-1.9c-1,0-1.6,0.7-1.8,1.9H182.1L182.1,33z"/>
		<path class="st2" d="M186.7,33.9L186.7,33.9c0-3.4,2.1-5.5,4.6-5.5c1.6,0,2.5,0.7,3.2,1.5V25h3.7v14.1h-3.7v-1.4
			c-0.7,0.9-1.6,1.6-3.2,1.6C188.8,39.3,186.7,37.3,186.7,33.9L186.7,33.9z M194.5,33.9L194.5,33.9c0-1.4-0.9-2.4-2.1-2.4
			s-2.1,1-2.1,2.4v0c0,1.4,1,2.4,2.1,2.4S194.5,35.3,194.5,33.9z"/>
		<path class="st2" d="M199.7,33.9L199.7,33.9c0-3,2.4-5.5,5.8-5.5s5.7,2.5,5.7,5.4v0c0,3-2.4,5.5-5.8,5.5
			C202.1,39.4,199.7,36.9,199.7,33.9z M207.6,33.9L207.6,33.9c0-1.3-0.9-2.4-2.2-2.4c-1.3,0-2.2,1.1-2.2,2.3v0
			c0,1.3,0.9,2.4,2.2,2.4S207.6,35.2,207.6,33.9z"/>
		<path class="st2" d="M212.7,28.7h3.7v2.1c0.6-1.4,1.6-2.4,3.3-2.3v3.9h-0.3c-1.9,0-3,1.1-3,3.5v3.2h-3.7L212.7,28.7L212.7,28.7z"
			/>
		<path class="st2" d="M220.3,33.9L220.3,33.9c0-3.1,2.2-5.5,5.3-5.5c3.6,0,5.3,2.6,5.3,5.7c0,0.2,0,0.5,0,0.7h-7
			c0.3,1.1,1.1,1.7,2.3,1.7c0.9,0,1.6-0.3,2.3-1.1l2,1.7c-1,1.3-2.5,2.1-4.5,2.1C222.7,39.4,220.4,37.2,220.3,33.9L220.3,33.9z
			 M227.4,33c-0.1-1.2-0.8-1.9-1.8-1.9s-1.6,0.7-1.8,1.9H227.4L227.4,33z"/>
		<path class="st2" d="M231.6,37.8l1.4-2.2c1.2,0.8,2.5,1.2,3.6,1.2c0.6,0,0.9-0.2,0.9-0.6v0c0-0.4-0.6-0.6-1.7-0.9
			c-2.1-0.5-3.7-1.2-3.7-3.3v0c0-2.2,1.8-3.4,4.2-3.4c1.5,0,3.1,0.4,4.3,1.2l-1.3,2.3c-1.1-0.6-2.3-1-3.1-1c-0.6,0-0.8,0.2-0.8,0.5
			v0c0,0.4,0.6,0.6,1.7,0.9c2.1,0.6,3.7,1.3,3.7,3.3v0c0,2.3-1.7,3.5-4.3,3.5C234.8,39.3,233.1,38.8,231.6,37.8L231.6,37.8z"/>
		<path class="st2" d="M247.7,28.7h3.7v1.4c0.7-0.9,1.6-1.6,3.2-1.6c2.5,0,4.6,2.1,4.6,5.4v0c0,3.4-2.1,5.5-4.6,5.5
			c-1.6,0-2.5-0.7-3.2-1.5v4.4h-3.7V28.7L247.7,28.7z M255.5,33.9L255.5,33.9c0-1.4-0.9-2.4-2.1-2.4s-2.1,1-2.1,2.4v0
			c0,1.4,0.9,2.4,2.1,2.4S255.5,35.3,255.5,33.9z"/>
		<path class="st2" d="M260.2,36.1L260.2,36.1c0-2.2,1.6-3.3,4.1-3.3c1,0,1.9,0.2,2.5,0.4V33c0-1.1-0.7-1.7-2.1-1.7
			c-1.1,0-1.9,0.2-2.9,0.6l-0.7-2.6c1.2-0.5,2.4-0.8,4.2-0.8c1.8,0,3.1,0.4,4,1.3c0.8,0.8,1.1,1.9,1.1,3.3v6h-3.6V38
			c-0.7,0.8-1.7,1.3-3.1,1.3C261.7,39.3,260.2,38.2,260.2,36.1L260.2,36.1z M266.8,35.3v-0.5c-0.4-0.1-0.9-0.3-1.4-0.3
			c-1.1,0-1.7,0.5-1.7,1.3v0c0,0.7,0.5,1.1,1.3,1.1C266,37.1,266.8,36.4,266.8,35.3L266.8,35.3z"/>
		<path class="st2" d="M272.2,28.7h3.7v2.1c0.6-1.4,1.6-2.4,3.3-2.3v3.9h-0.3c-1.9,0-3,1.1-3,3.5v3.2h-3.7L272.2,28.7L272.2,28.7z"
			/>
		<path class="st2" d="M279.5,36.1L279.5,36.1c0-2.2,1.6-3.3,4.1-3.3c1,0,1.9,0.2,2.5,0.4V33c0-1.1-0.7-1.7-2.1-1.7
			c-1.1,0-1.9,0.2-2.9,0.6l-0.7-2.6c1.2-0.5,2.4-0.8,4.2-0.8c1.8,0,3.1,0.4,4,1.3c0.8,0.8,1.1,1.9,1.1,3.3v6h-3.6V38
			c-0.7,0.8-1.7,1.3-3.1,1.3C281,39.3,279.5,38.2,279.5,36.1L279.5,36.1z M286.1,35.3v-0.5c-0.4-0.1-0.9-0.3-1.4-0.3
			c-1.1,0-1.7,0.5-1.7,1.3v0c0,0.7,0.5,1.1,1.3,1.1C285.4,37.1,286.1,36.4,286.1,35.3L286.1,35.3z"/>
		<path class="st2" d="M300.5,37.8v1.3h-3.7V25h3.7v5c0.7-0.9,1.6-1.6,3.2-1.6c2.5,0,4.6,2.1,4.6,5.4v0c0,3.4-2.1,5.5-4.6,5.5
			C302.1,39.4,301.2,38.6,300.5,37.8L300.5,37.8z M304.7,33.9L304.7,33.9c0-1.4-0.9-2.4-2.1-2.4s-2.1,1-2.1,2.4v0
			c0,1.4,0.9,2.4,2.1,2.4S304.7,35.3,304.7,33.9z"/>
		<path class="st2" d="M309.4,36.1L309.4,36.1c0-2.2,1.6-3.3,4.1-3.3c1,0,1.9,0.2,2.5,0.4V33c0-1.1-0.7-1.7-2.1-1.7
			c-1.1,0-1.9,0.2-2.9,0.6l-0.7-2.6c1.2-0.5,2.4-0.8,4.2-0.8c1.8,0,3.1,0.4,4,1.3c0.8,0.8,1.1,1.9,1.1,3.3v6H316V38
			c-0.7,0.8-1.7,1.3-3.1,1.3C310.9,39.3,309.4,38.2,309.4,36.1L309.4,36.1z M316,35.3v-0.5c-0.4-0.1-0.9-0.3-1.4-0.3
			c-1.1,0-1.7,0.5-1.7,1.3v0c0,0.7,0.5,1.1,1.3,1.1C315.3,37.1,316,36.4,316,35.3L316,35.3z"/>
		<path class="st2" d="M320.7,37.8l1.4-2.2c1.2,0.8,2.5,1.2,3.6,1.2c0.6,0,0.9-0.2,0.9-0.6v0c0-0.4-0.6-0.6-1.7-0.9
			c-2.1-0.5-3.7-1.2-3.7-3.3v0c0-2.2,1.8-3.4,4.2-3.4c1.5,0,3.1,0.4,4.3,1.2l-1.3,2.3c-1.1-0.6-2.3-1-3.1-1c-0.6,0-0.8,0.2-0.8,0.5
			v0c0,0.4,0.6,0.6,1.7,0.9c2.1,0.6,3.7,1.3,3.7,3.3v0c0,2.3-1.7,3.5-4.3,3.5C323.8,39.3,322.1,38.8,320.7,37.8L320.7,37.8z"/>
		<path class="st2" d="M331.3,35.5v-6.8h3.7v5.7c0,1.1,0.6,1.8,1.5,1.8c0.9,0,1.5-0.6,1.5-1.8v-5.7h3.7v10.4h-3.7v-1.4
			c-0.7,0.9-1.6,1.7-3.1,1.7C332.6,39.3,331.3,37.9,331.3,35.5L331.3,35.5z"/>
		<path class="st2" d="M343.6,28.7h3.7v2.1c0.6-1.4,1.6-2.4,3.3-2.3v3.9h-0.3c-1.9,0-3,1.1-3,3.5v3.2h-3.7L343.6,28.7L343.6,28.7z"
			/>
		<path class="st2" d="M350.8,36.1L350.8,36.1c0-2.2,1.6-3.3,4.1-3.3c1,0,1.9,0.2,2.5,0.4V33c0-1.1-0.7-1.7-2.1-1.7
			c-1.1,0-1.9,0.2-2.9,0.6l-0.7-2.6c1.2-0.5,2.4-0.8,4.2-0.8c1.8,0,3.1,0.4,4,1.3c0.8,0.8,1.1,1.9,1.1,3.3v6h-3.6V38
			c-0.7,0.8-1.7,1.3-3.1,1.3C352.3,39.3,350.8,38.2,350.8,36.1L350.8,36.1z M357.4,35.3v-0.5c-0.4-0.1-0.9-0.3-1.4-0.3
			c-1.1,0-1.7,0.5-1.7,1.3v0c0,0.7,0.5,1.1,1.3,1.1C356.7,37.1,357.4,36.4,357.4,35.3L357.4,35.3z"/>
		<path class="st2" d="M104.8,51.8h3.7v1.4c0.7-0.9,1.6-1.7,3.1-1.7c1.4,0,2.5,0.6,3,1.7c0.9-1,2-1.7,3.5-1.7c2.2,0,3.6,1.4,3.6,3.8
			v6.8H118v-5.7c0-1.1-0.6-1.7-1.4-1.7s-1.5,0.6-1.5,1.7v5.7h-3.7v-5.7c0-1.1-0.6-1.7-1.4-1.7c-0.9,0-1.5,0.6-1.5,1.7v5.7h-3.7
			L104.8,51.8L104.8,51.8z"/>
		<path class="st2" d="M123.1,57.1L123.1,57.1c0-3.1,2.2-5.5,5.3-5.5c3.6,0,5.3,2.6,5.3,5.7c0,0.2,0,0.5,0,0.7h-7
			c0.3,1.1,1.1,1.7,2.3,1.7c0.9,0,1.6-0.3,2.3-1.1l2,1.7c-1,1.3-2.5,2.1-4.5,2.1C125.4,62.5,123.1,60.3,123.1,57.1L123.1,57.1z
			 M130.2,56.2c-0.1-1.2-0.8-1.9-1.8-1.9c-1,0-1.6,0.7-1.8,1.9H130.2L130.2,56.2z"/>
		<path class="st2" d="M135.8,59v-4.2h-1.2v-2.9h1.2v-2.6h3.7v2.6h2.4v2.9h-2.4v3.5c0,0.7,0.3,1,1,1c0.5,0,0.9-0.1,1.4-0.3v2.9
			c-0.7,0.4-1.5,0.6-2.5,0.6C137.1,62.4,135.8,61.5,135.8,59z"/>
		<path class="st2" d="M142.9,59.2L142.9,59.2c0-2.2,1.6-3.3,4.1-3.3c1,0,1.9,0.2,2.5,0.4v-0.2c0-1.1-0.7-1.7-2.1-1.7
			c-1.1,0-1.9,0.2-2.9,0.6l-0.7-2.6c1.2-0.5,2.4-0.8,4.2-0.8s3.1,0.4,4,1.3c0.8,0.8,1.1,1.9,1.1,3.3v6h-3.6v-1.1
			c-0.7,0.8-1.7,1.3-3.1,1.3C144.5,62.5,142.9,61.3,142.9,59.2L142.9,59.2z M149.6,58.4V58c-0.4-0.1-0.9-0.3-1.4-0.3
			c-1.1,0-1.7,0.5-1.7,1.3v0c0,0.7,0.5,1.1,1.3,1.1C148.8,60.2,149.6,59.5,149.6,58.4L149.6,58.4z"/>
		<path class="st2" d="M155.1,48.2h3.7v14.1h-3.7V48.2z"/>
		<path class="st2" d="M160.8,48.2h3.8v2.7h-3.8V48.2z M160.8,51.8h3.7v10.4h-3.7C160.8,62.2,160.8,51.8,160.8,51.8z"/>
		<path class="st2" d="M166.1,57.1L166.1,57.1c0-3,2.3-5.5,5.6-5.5c2.1,0,3.6,0.9,4.5,2.3l-2.5,1.9c-0.5-0.7-1.1-1.1-1.9-1.1
			c-1.2,0-2,1-2,2.3v0c0,1.3,0.8,2.4,2.1,2.4c0.9,0,1.4-0.4,2-1.1l2.5,1.8c-1,1.4-2.4,2.4-4.6,2.4C168.4,62.5,166.1,60,166.1,57.1
			L166.1,57.1z"/>
		<path class="st2" d="M176.8,57.1L176.8,57.1c0-3,2.4-5.5,5.8-5.5s5.7,2.5,5.7,5.4v0c0,3-2.4,5.4-5.8,5.4
			C179.2,62.5,176.8,60,176.8,57.1L176.8,57.1z M184.8,57.1L184.8,57.1c0-1.3-0.9-2.4-2.2-2.4c-1.3,0-2.2,1.1-2.2,2.3v0
			c0,1.3,0.9,2.4,2.2,2.4S184.8,58.3,184.8,57.1z"/>
		<path class="st2" d="M189,60.9l1.4-2.2c1.2,0.8,2.5,1.2,3.6,1.2c0.6,0,0.9-0.2,0.9-0.6v0c0-0.4-0.6-0.6-1.7-0.9
			c-2.1-0.5-3.7-1.2-3.7-3.3v0c0-2.2,1.8-3.4,4.2-3.4c1.5,0,3.1,0.4,4.3,1.2l-1.3,2.3c-1.1-0.6-2.3-1-3.1-1c-0.6,0-0.8,0.2-0.8,0.5
			v0c0,0.4,0.6,0.6,1.7,0.9c2.1,0.6,3.7,1.3,3.7,3.3v0c0,2.3-1.7,3.5-4.3,3.5C192.2,62.5,190.5,62,189,60.9L189,60.9z"/>
		<path class="st2" d="M205,64.2l1.2-2.4c1.1,0.6,2.2,1,3.6,1c1.8,0,2.7-0.9,2.7-2.6v-0.4c-0.7,0.8-1.7,1.6-3.2,1.6
			c-2.6,0-4.6-1.9-4.6-4.8v0c0-3,2.1-4.9,4.5-4.9c1.6,0,2.5,0.6,3.3,1.5v-1.2h3.7v7.9c0,1.9-0.4,3.2-1.3,4.2
			c-0.9,0.9-2.4,1.5-4.6,1.5C208.2,65.3,206.5,64.9,205,64.2L205,64.2z M212.5,56.5L212.5,56.5c0-1.2-0.9-2-2.1-2
			c-1.2,0-2.1,0.9-2.1,2v0c0,1.2,0.9,2,2.1,2S212.5,57.6,212.5,56.5z"/>
		<path class="st2" d="M218.1,51.8h3.7v2.1c0.6-1.4,1.6-2.4,3.3-2.3v3.9h-0.3c-1.9,0-3,1.1-3,3.5v3.2h-3.7L218.1,51.8L218.1,51.8z"
			/>
		<path class="st2" d="M225.3,59.2L225.3,59.2c0-2.2,1.6-3.3,4.1-3.3c1,0,1.9,0.2,2.5,0.4v-0.2c0-1.1-0.7-1.7-2.1-1.7
			c-1.1,0-1.9,0.2-2.9,0.6l-0.7-2.6c1.2-0.5,2.4-0.8,4.2-0.8s3.1,0.4,4,1.3c0.8,0.8,1.1,1.9,1.1,3.3v6h-3.6v-1.1
			c-0.7,0.8-1.7,1.3-3.1,1.3C226.9,62.5,225.3,61.3,225.3,59.2L225.3,59.2z M232,58.4V58c-0.4-0.1-0.9-0.3-1.4-0.3
			c-1.1,0-1.7,0.5-1.7,1.3v0c0,0.7,0.5,1.1,1.3,1.1C231.2,60.2,232,59.5,232,58.4L232,58.4z"/>
		<path class="st2" d="M237.4,51.8h3.7v1.5c0.7-0.9,1.6-1.7,3.1-1.7c2.2,0,3.5,1.5,3.5,3.8v6.8h-3.7v-5.7c0-1.1-0.6-1.8-1.5-1.8
			s-1.5,0.6-1.5,1.8v5.7h-3.7C237.4,62.2,237.4,51.8,237.4,51.8z"/>
		<path class="st2" d="M249.2,57.1L249.2,57.1c0-3.4,2.1-5.5,4.6-5.5c1.6,0,2.5,0.7,3.2,1.5v-4.9h3.7v14.1H257v-1.4
			c-0.7,0.9-1.6,1.6-3.2,1.6C251.4,62.4,249.2,60.4,249.2,57.1L249.2,57.1z M257.1,57L257.1,57c0-1.4-0.9-2.4-2.1-2.4
			c-1.2,0-2.1,1-2.1,2.4v0c0,1.4,1,2.4,2.1,2.4S257.1,58.4,257.1,57z"/>
		<path class="st2" d="M262.2,57.1L262.2,57.1c0-3.1,2.2-5.5,5.3-5.5c3.6,0,5.3,2.6,5.3,5.7c0,0.2,0,0.5,0,0.7h-7
			c0.3,1.1,1.1,1.7,2.3,1.7c0.9,0,1.6-0.3,2.3-1.1l2,1.7c-1,1.3-2.5,2.1-4.5,2.1C264.5,62.5,262.2,60.3,262.2,57.1L262.2,57.1z
			 M269.3,56.2c-0.1-1.2-0.8-1.9-1.8-1.9c-1,0-1.6,0.7-1.8,1.9H269.3L269.3,56.2z"/>
		<path class="st2" d="M273.5,60.9l1.4-2.2c1.2,0.8,2.5,1.2,3.6,1.2c0.6,0,0.9-0.2,0.9-0.6v0c0-0.4-0.6-0.6-1.7-0.9
			c-2.1-0.5-3.7-1.2-3.7-3.3v0c0-2.2,1.8-3.4,4.2-3.4c1.5,0,3.1,0.4,4.3,1.2l-1.3,2.3c-1.1-0.6-2.3-1-3.1-1c-0.6,0-0.8,0.2-0.8,0.5
			v0c0,0.4,0.6,0.6,1.7,0.9c2.1,0.6,3.7,1.3,3.7,3.3v0c0,2.3-1.7,3.5-4.3,3.5C276.7,62.5,274.9,62,273.5,60.9L273.5,60.9z"/>
		<path class="st0" d="M284,58.5h3.8v3.8H284V58.5z"/>
		<path class="st0" d="M289.1,57.1L289.1,57.1c0-3,2.3-5.5,5.6-5.5c2.1,0,3.6,0.9,4.5,2.3l-2.5,1.9c-0.5-0.7-1.1-1.1-1.9-1.1
			c-1.2,0-2,1-2,2.3v0c0,1.3,0.8,2.4,2.1,2.4c0.9,0,1.4-0.4,2-1.1l2.5,1.8c-1,1.4-2.4,2.4-4.6,2.4C291.4,62.5,289,60,289.1,57.1
			L289.1,57.1z"/>
		<path class="st0" d="M299.7,57.1L299.7,57.1c0-3,2.4-5.5,5.8-5.5c3.4,0,5.7,2.5,5.7,5.4v0c0,3-2.4,5.4-5.8,5.4
			S299.7,60,299.7,57.1L299.7,57.1z M307.7,57.1L307.7,57.1c0-1.3-0.9-2.4-2.2-2.4s-2.2,1.1-2.2,2.3v0c0,1.3,0.9,2.4,2.2,2.4
			C306.8,59.4,307.7,58.3,307.7,57.1z"/>
		<path class="st0" d="M312.8,51.8h3.7v1.4c0.7-0.9,1.6-1.7,3.1-1.7c1.4,0,2.5,0.6,3,1.7c0.9-1,2-1.7,3.5-1.7c2.2,0,3.6,1.4,3.6,3.8
			v6.8H326v-5.7c0-1.1-0.6-1.7-1.4-1.7s-1.5,0.6-1.5,1.7v5.7h-3.7v-5.7c0-1.1-0.6-1.7-1.4-1.7s-1.5,0.6-1.5,1.7v5.7h-3.7L312.8,51.8
			L312.8,51.8z"/>
		<path class="st0" d="M331.3,58.5h3.8v3.8h-3.8V58.5z"/>
		<path class="st0" d="M337,51.8h3.7v1.4c0.7-0.9,1.6-1.7,3.1-1.7c1.4,0,2.5,0.6,3,1.7c0.9-1,2-1.7,3.5-1.7c2.2,0,3.6,1.4,3.6,3.8
			v6.8h-3.7v-5.7c0-1.1-0.6-1.7-1.4-1.7s-1.5,0.6-1.5,1.7v5.7h-3.7v-5.7c0-1.1-0.6-1.7-1.4-1.7s-1.5,0.6-1.5,1.7v5.7H337L337,51.8
			L337,51.8z"/>
		<path class="st0" d="M358.4,57l-3.4-5.2h3.9l1.5,2.6l1.5-2.6h3.9l-3.4,5.1l3.5,5.3H362l-1.6-2.7l-1.6,2.7h-3.9L358.4,57L358.4,57z
			"/>
	</g>
</g>
</svg>
