<?xml version="1.0" encoding="utf-8"?>
<!-- Generator: Adobe Illustrator 27.1.0, SVG Export Plug-In . SVG Version: 6.00 Build 0)  -->
<svg version="1.1" id="Capa_1" xmlns="http://www.w3.org/2000/svg" xmlns:xlink="http://www.w3.org/1999/xlink" x="0px" y="0px"
	 viewBox="0 0 283.5 85" style="enable-background:new 0 0 283.5 85;" xml:space="preserve">
<style type="text/css">
	.st0{fill:#95C11F;}
	.st1{fill:#FFFFFF;}
	.st2{fill:#1D1D1B;}
</style>
<g>
	<rect x="92.2" y="10.2" class="st0" width="5.1" height="63.7"/>
	<circle class="st0" cx="40.2" cy="42.5" r="39.5"/>
	<path class="st1" d="M52.5,71.8H29.7c-5.2,0-9.3-4.2-9.3-9.3c0,0,0,0,0,0V30c0-0.7,0.6-1.3,1.3-1.3l0,0h38.9c0.7,0,1.3,0.6,1.3,1.3
		v32.5C61.8,67.7,57.6,71.8,52.5,71.8z M22.9,31.2v31.3c0,3.7,3,6.8,6.8,6.8l0,0h22.8c3.7,0,6.8-3,6.8-6.8l0,0V31.2H22.9z"/>
	<path class="st1" d="M21.7,27c-0.6,0-1.2-0.5-1.3-1.1l-0.1-0.6c-0.6-5.1,3-9.8,8.1-10.4l4.6-0.6c0.7-0.1,1.4,0.4,1.5,1.1
		c0.1,0.7-0.3,1.3-1,1.5c-0.1,0-0.2,0-0.3,0l-4.5,0.6c-3.5,0.4-6,3.4-5.9,6.9l36-4.4c-0.8-3.4-4-5.7-7.4-5.2l-4.8,0.6
		c-0.7,0.1-1.3-0.5-1.4-1.2c-0.1-0.7,0.4-1.2,1.1-1.4l4.8-0.6c5.1-0.6,9.8,3,10.4,8.1l0.1,0.6c0.1,0.7-0.4,1.3-1.1,1.4c0,0,0,0,0,0
		L21.8,27L21.7,27z"/>
	<path class="st1" d="M33.2,16.9c-0.6,0-1.2-0.5-1.3-1.1l-0.1-0.7c-0.3-2.1,1.3-4,3.4-4.3c0,0,0,0,0,0l8.1-1c2.1-0.3,4,1.2,4.3,3.3
		c0,0,0,0.1,0,0.1l0.1,0.7c0.1,0.7-0.4,1.3-1.1,1.4c-0.7,0.1-1.3-0.4-1.4-1.1c0,0,0,0,0,0l-0.1-0.7c0-0.3-0.2-0.6-0.5-0.8
		c-0.3-0.2-0.6-0.3-0.9-0.3l-8.1,1c-0.7,0.1-1.2,0.7-1.1,1.4l0.1,0.7c0.1,0.7-0.4,1.3-1.1,1.4L33.2,16.9z"/>
	<path class="st1" d="M41.9,37.7l2.9,3.3l1.3,1.5l-4.2,4.8v-1.3c0-0.2-0.2-0.4-0.4-0.4c-0.5-0.1-0.9-0.1-1.4-0.1
		c-3.9,0-7.5,2.2-9.2,5.7C29.7,46.1,33,41.1,38,40c0.7-0.1,1.4-0.2,2-0.2c0.4,0,0.9,0,1.3,0.1h0.1c0.1,0,0.2,0,0.3-0.1
		c0.1-0.1,0.2-0.2,0.2-0.3V37.7 M41.9,35.8c-0.2,0-0.5,0-0.7,0.1c-0.7,0.3-1.2,1-1.2,1.8v0.2C33.7,38,28.7,43,28.7,49.2
		c0,0.8,0.1,1.6,0.2,2.4c0.1,0.8,0.8,1.4,1.6,1.6h0.2c0.7,0,1.4-0.4,1.7-1.1c1.4-2.8,4.3-4.5,7.4-4.6c0.1,1.1,1,1.9,2,1.8
		c0.5,0,1-0.3,1.4-0.7l4.2-4.8c0.6-0.7,0.6-1.8,0-2.5l-1.3-1.5l-2.9-3.3C42.9,36.1,42.4,35.8,41.9,35.8z"/>
	<path class="st1" d="M50.1,48.2c1.1,5.1-2.2,10.1-7.3,11.2c-0.6,0.1-1.3,0.2-1.9,0.2c-0.4,0-0.9,0-1.3-0.1l0,0
		c-0.1,0-0.2,0-0.3,0.1c-0.1,0.1-0.2,0.2-0.2,0.3v1.7l-3-3.3l-1.3-1.5l4.2-4.8v1.3c0,0.2,0.2,0.4,0.4,0.4c0.5,0.1,0.9,0.1,1.4,0.1
		C44.8,53.9,48.4,51.7,50.1,48.2 M50.1,46.3c-0.7,0-1.4,0.4-1.7,1.1C47,50.2,44.1,52,41,52c0-0.8-0.5-1.4-1.2-1.7
		c-0.2-0.1-0.4-0.1-0.7-0.1c-0.5,0-1.1,0.2-1.4,0.6l-4.2,4.8c-0.6,0.7-0.6,1.8,0,2.5l1.3,1.5l2.9,3.3c0.4,0.4,0.9,0.7,1.4,0.7
		c0.2,0,0.5,0,0.7-0.1c0.7-0.3,1.2-1,1.2-1.8v-0.2c6.2-0.1,11.2-5.1,11.2-11.3c0-0.8,0-1.6-0.2-2.4c-0.2-0.8-0.8-1.4-1.6-1.5
		L50.1,46.3L50.1,46.3z"/>
	<path class="st2" d="M111.2,21.9h12.1v3.5h-7.9v2.3h7.2V31h-7.2v2.4h8v3.5h-12.2V21.9z"/>
	<path class="st2" d="M124.4,35.4l1.5-2.5c1.2,0.8,2.6,1.3,4,1.3c0.7,0,1-0.2,1-0.6l0,0c0-0.5-0.6-0.6-1.9-1
		c-2.3-0.6-4.1-1.4-4.1-3.7l0,0c0-2.5,2-3.8,4.6-3.8c1.7,0,3.3,0.5,4.8,1.3l-1.4,2.6c-1-0.6-2.2-1-3.4-1.1c-0.6,0-0.9,0.2-0.9,0.6
		l0,0c0,0.5,0.7,0.7,1.9,1c2.3,0.6,4.1,1.4,4.1,3.7l0,0c0,2.5-1.9,3.9-4.7,3.9C128,37.2,126,36.6,124.4,35.4z"/>
	<path class="st2" d="M136.7,33.3v-4.7h-1.4v-3.3h1.4v-2.9h4.1v2.9h2.7v3.3h-2.7v3.9c0,0.8,0.4,1.1,1.1,1.1c0.5,0,1.1-0.1,1.5-0.4
		v3.2c-0.9,0.5-1.8,0.7-2.8,0.7C138.2,37.1,136.7,36.1,136.7,33.3z"/>
	<path class="st2" d="M144.6,33.6L144.6,33.6c0-2.4,1.8-3.6,4.5-3.6c0.9,0,1.9,0.2,2.8,0.5v-0.2c0-1.2-0.7-1.9-2.3-1.9
		c-1.1,0-2.2,0.2-3.2,0.6l-0.9-3c1.5-0.6,3.1-0.9,4.7-0.9c1.6-0.1,3.2,0.4,4.4,1.4c0.9,1,1.4,2.3,1.2,3.7v6.6h-4v-1.2
		c-0.9,1-2.1,1.5-3.4,1.5C146.3,37.1,144.6,35.9,144.6,33.6z M152,32.7v-0.5c-0.5-0.2-1-0.3-1.6-0.3c-1.1,0-1.9,0.6-1.9,1.4l0,0
		c0,0.7,0.6,1.3,1.3,1.3c0.1,0,0.1,0,0.2,0c1,0.1,1.9-0.7,2-1.7C152,32.8,152,32.8,152,32.7z"/>
	<path class="st2" d="M157.5,31.2L157.5,31.2c0-3.3,2.7-6,6-6c0.1,0,0.1,0,0.2,0c2-0.1,3.9,0.9,4.9,2.6l-2.8,2
		c-0.5-0.8-1.3-1.2-2.2-1.2c-1.3,0.1-2.3,1.2-2.3,2.5c0,0,0,0,0,0l0,0c-0.1,1.3,0.8,2.5,2.2,2.6c0,0,0.1,0,0.1,0
		c0.9,0,1.7-0.4,2.3-1.2l2.7,2c-1.1,1.8-3.1,2.8-5.1,2.7c-3.3,0-6-2.6-6-5.9C157.5,31.2,157.5,31.2,157.5,31.2z"/>
	<path class="st2" d="M170.2,21.3h4.2v3h-4.2V21.3z M170.3,25.3h4.1v11.6h-4.1V25.3z"/>
	<path class="st2" d="M176.1,31.2L176.1,31.2c0.2-3.5,3.2-6.2,6.8-6c3.2,0.2,5.8,2.8,6,6l0,0c-0.1,3.4-2.9,6.1-6.3,6.1
		c0,0-0.1,0-0.1,0c-3.4,0.1-6.2-2.5-6.4-5.8C176.1,31.3,176.1,31.2,176.1,31.2z M184.9,31.2L184.9,31.2c0.1-1.4-1-2.5-2.4-2.6
		c0,0-0.1,0-0.1,0c-1.3,0-2.4,1.1-2.4,2.4c0,0.1,0,0.1,0,0.2l0,0c-0.1,1.4,1,2.5,2.4,2.6c0,0,0.1,0,0.1,0c1.3,0,2.4-1.1,2.4-2.4
		C184.9,31.3,184.9,31.2,184.9,31.2z"/>
	<path class="st2" d="M190.6,25.3h4.1V27c0.8-1.2,2.1-1.9,3.5-1.9c2.5,0,3.9,1.6,3.9,4.2v7.6h-4.1v-6.3c0-1.3-0.7-1.9-1.6-1.9
		c-0.9,0-1.7,0.7-1.7,1.7c0,0.1,0,0.2,0,0.3v6.3h-4.1L190.6,25.3z"/>
	<path class="st2" d="M203.7,31.2L203.7,31.2c-0.1-3.2,2.3-5.9,5.5-6c0.1,0,0.2,0,0.3,0c4,0,5.8,2.9,5.8,6.3c0,0.2,0,0.6,0,0.8h-7.7
		c0.2,1.2,1.3,2,2.5,1.9c1,0,1.9-0.4,2.6-1.1l2.3,1.9c-1.2,1.5-3.1,2.4-5,2.4c-3.2,0.2-6-2.2-6.2-5.4
		C203.7,31.6,203.6,31.4,203.7,31.2z M211.6,30.2c-0.2-1.3-0.9-2.1-2-2.1c-1.1,0-1.8,0.8-2,2.1H211.6z"/>
	<path class="st2" d="M216.2,35.4l1.5-2.5c1.2,0.8,2.6,1.3,4,1.3c0.7,0,1-0.2,1-0.6l0,0c0-0.5-0.6-0.6-1.9-1
		c-2.3-0.6-4.1-1.4-4.1-3.7l0,0c0-2.5,2-3.8,4.6-3.8c1.7,0,3.3,0.5,4.8,1.3l-1.4,2.6c-1-0.6-2.2-1-3.4-1.1c-0.6,0-0.9,0.2-0.9,0.6
		l0,0c0,0.5,0.7,0.7,1.9,1c2.3,0.6,4.1,1.4,4.1,3.7l0,0c0,2.5-1.9,3.9-4.7,3.9C219.7,37.2,217.8,36.6,216.2,35.4z"/>
	<path class="st2" d="M111,47.9h4.1v2.3c0.5-1.6,2-2.7,3.7-2.5V52h-0.4c-2.1,0-3.3,1.2-3.3,3.9v3.6H111L111,47.9z"/>
	<path class="st2" d="M119.4,53.8L119.4,53.8c-0.1-3.2,2.3-5.9,5.5-6c0.1,0,0.2,0,0.3,0c4,0,5.8,2.9,5.8,6.3c0,0.2,0,0.6,0,0.8h-7.7
		c0.2,1.2,1.3,2,2.5,1.9c1,0,1.9-0.4,2.6-1.1l2.3,1.9c-1.2,1.5-3.1,2.4-5,2.4c-3.2,0.2-6-2.2-6.2-5.4
		C119.4,54.3,119.4,54,119.4,53.8z M127.4,52.8c0-1.1-0.9-2.1-2-2.1c-1.1,0-1.8,0.8-2,2.1H127.4z"/>
	<path class="st2" d="M132.3,53.8L132.3,53.8c0-3.3,2.6-6,6-6c0.1,0,0.2,0,0.2,0c2-0.1,3.9,0.9,4.9,2.6l-2.8,2
		c-0.5-0.8-1.3-1.2-2.2-1.2c-1.3,0.1-2.3,1.2-2.3,2.5c0,0,0,0,0,0l0,0c-0.1,1.3,0.8,2.5,2.2,2.6c0,0,0.1,0,0.1,0
		c0.9,0,1.7-0.4,2.3-1.2l2.7,2c-1.1,1.8-3.1,2.8-5.1,2.7c-3.3,0-6-2.6-6-5.9C132.3,53.9,132.3,53.8,132.3,53.8z"/>
	<path class="st2" d="M145,43.9h4.2v3H145V43.9z M145.1,47.9h4v11.6h-4V47.9z"/>
	<path class="st2" d="M150.9,53.8L150.9,53.8c0-3.3,2.7-6,6-6c0.1,0,0.1,0,0.2,0c2-0.1,3.9,0.9,4.9,2.6l-2.8,2
		c-0.4-0.8-1.3-1.2-2.1-1.2c-1.3,0.1-2.3,1.2-2.3,2.5c0,0,0,0,0,0.1l0,0c-0.1,1.3,0.8,2.5,2.2,2.6c0,0,0.1,0,0.1,0
		c0.9,0,1.7-0.4,2.3-1.2l2.7,2c-1.1,1.7-3.1,2.8-5.1,2.7c-3.3,0-6-2.6-6.1-5.9C150.9,53.9,150.9,53.8,150.9,53.8z"/>
	<path class="st2" d="M163.6,43.9h4.1v15.6h-4.1V43.9z"/>
	<path class="st2" d="M169.4,56.2L169.4,56.2c0-2.4,1.8-3.6,4.5-3.6c0.9,0,1.9,0.2,2.8,0.5v-0.2c0-1.2-0.7-1.9-2.3-1.9
		c-1.1,0-2.2,0.2-3.2,0.6l-0.9-3c1.5-0.6,3.1-0.9,4.7-0.9c1.6-0.1,3.2,0.4,4.4,1.4c0.9,1,1.4,2.3,1.2,3.7v6.6h-4v-1.2
		c-0.9,1-2.1,1.5-3.4,1.5C171.1,59.8,169.4,58.5,169.4,56.2z M176.7,55.3v-0.5c-0.5-0.2-1-0.3-1.6-0.3c-1.1,0-1.9,0.6-1.9,1.4l0,0
		c0,0.7,0.6,1.3,1.3,1.3c0.1,0,0.1,0,0.2,0c1,0.1,1.9-0.7,2-1.7C176.7,55.4,176.7,55.4,176.7,55.3z"/>
	<path class="st2" d="M181.1,62.8v-2.7c0.2,0,0.4,0,0.5,0c0.8,0,1.2-0.4,1.2-1.3V47.9h4.1v11c0,2.9-1.5,4-4.1,4
		C182.2,63,181.7,62.9,181.1,62.8z M182.8,43.9h4.2v3h-4.2V43.9z"/>
	<path class="st2" d="M188.7,53.8L188.7,53.8c-0.2-3.2,2.3-5.9,5.5-6.1c0.1,0,0.2,0,0.3,0c4,0,5.8,2.9,5.8,6.3c0,0.2,0,0.6,0,0.8
		h-7.7c0.2,1.2,1.3,2,2.5,1.9c1,0,1.9-0.4,2.6-1.1l2.3,1.9c-1.2,1.5-3.1,2.4-5,2.4c-3.2,0.2-6-2.2-6.2-5.4
		C188.7,54.2,188.7,54,188.7,53.8z M196.7,52.8c0-1.1-0.9-2.1-2-2.1c-1.1,0-1.8,0.8-2,2.1H196.7z"/>
	<path class="st0" d="M201.9,55.3h4.2v4.2h-4.2V55.3z"/>
	<path class="st0" d="M207.4,53.8L207.4,53.8c0-3.3,2.7-6,6-6c0.1,0,0.1,0,0.2,0c2-0.1,3.9,0.9,4.9,2.6l-2.7,2
		c-0.5-0.8-1.3-1.2-2.2-1.2c-1.3,0.1-2.3,1.2-2.3,2.5c0,0,0,0,0,0l0,0c-0.1,1.3,0.8,2.5,2.2,2.6c0,0,0.1,0,0.1,0
		c0.9,0,1.7-0.4,2.3-1.2l2.7,2c-1.1,1.7-3.1,2.8-5.1,2.7c-3.3,0-6-2.6-6.1-5.9C207.4,53.9,207.4,53.8,207.4,53.8z"/>
	<path class="st0" d="M219.3,53.8L219.3,53.8c0.1-3.5,3.1-6.3,6.7-6.1c3.3,0.1,6,2.8,6.1,6.1l0,0c-0.1,3.5-3.1,6.3-6.7,6.1
		C222.1,59.8,219.4,57.1,219.3,53.8z M228.1,53.8L228.1,53.8c0.1-1.4-1-2.5-2.4-2.6c0,0,0,0-0.1,0c-1.3,0-2.4,1.1-2.4,2.4
		c0,0.1,0,0.1,0,0.2l0,0c-0.1,1.4,1,2.5,2.4,2.6c0,0,0,0,0.1,0c1.3,0,2.4-1.1,2.4-2.4C228.1,53.9,228.1,53.8,228.1,53.8z"/>
	<path class="st0" d="M233.7,47.9h4.1v1.6c0.8-1.1,2-1.8,3.4-1.8c1.4-0.1,2.7,0.6,3.4,1.9c0.9-1.2,2.4-1.9,3.9-1.9
		c2.5,0,3.9,1.5,3.9,4.2v7.6h-4.1v-6.3c0-1.3-0.6-1.9-1.6-1.9s-1.7,0.7-1.7,1.9v6.3H241v-6.3c0-1.3-0.6-1.9-1.6-1.9
		c-1,0-1.7,0.7-1.7,1.9v6.3h-4.1V47.9z"/>
	<path class="st2" d="M234.1,24.9h4.2v1.6c0.8-1.2,2.2-1.9,3.6-1.8c2.8,0,5.3,2.4,5.3,6.2l0,0c0,3.9-2.4,6.2-5.2,6.2
		c-1.4,0-2.8-0.6-3.6-1.7v5h-4.2V24.9z M243,30.8L243,30.8c0.1-1.3-0.9-2.5-2.2-2.7c-1.3-0.1-2.5,0.9-2.7,2.2c0,0.2,0,0.3,0,0.5l0,0
		c-0.1,1.3,0.9,2.5,2.2,2.7c1.3,0.1,2.5-0.9,2.7-2.2C243,31.2,243,31,243,30.8z"/>
	<path class="st2" d="M248.3,33.4L248.3,33.4c0-2.5,1.9-3.7,4.7-3.7c1,0,1.9,0.2,2.9,0.5v-0.2c0-1.2-0.8-1.9-2.4-1.9
		c-1.1,0-2.2,0.2-3.3,0.7l-0.9-2.9c1.5-0.6,3.2-1,4.8-0.9c1.6-0.1,3.3,0.4,4.5,1.4c0.9,1,1.4,2.4,1.3,3.8v6.8h-4.1v-1.2
		c-0.9,1-2.2,1.5-3.5,1.5C250,37,248.3,35.7,248.3,33.4z M255.9,32.5v-0.5c-0.5-0.2-1.1-0.3-1.6-0.3c-1.2,0-1.9,0.6-1.9,1.5l0,0
		c0,0.7,0.6,1.3,1.3,1.3c0.1,0,0.1,0,0.2,0c1,0.1,2-0.7,2.1-1.7C255.9,32.6,255.9,32.5,255.9,32.5z"/>
	<path class="st2" d="M262.1,24.9h4.2v2.4c0.5-1.6,2-2.7,3.8-2.6v4.4h-0.4c-2.2,0-3.4,1.2-3.4,4v3.7h-4.2L262.1,24.9z"/>
	<path class="st2" d="M271.1,33.6L271.1,33.6c0-2.5,1.9-3.7,4.7-3.7c1,0,1.9,0.2,2.9,0.5v-0.2c0-1.2-0.8-1.9-2.4-1.9
		c-1.1,0-2.2,0.2-3.3,0.7l-0.9-3c1.5-0.6,3.2-0.9,4.8-0.9c1.6-0.1,3.3,0.4,4.5,1.4c0.9,1,1.4,2.4,1.3,3.7V37h-4.1v-1.2
		c-0.9,1-2.2,1.5-3.5,1.5C272.9,37.3,271.1,36,271.1,33.6z M278.7,32.7v-0.6c-0.5-0.2-1.1-0.3-1.6-0.3c-1.2,0-1.9,0.6-1.9,1.5l0,0
		c0,0.7,0.6,1.3,1.3,1.3c0.1,0,0.1,0,0.2,0c1.1,0.1,2-0.7,2.1-1.7C278.7,32.8,278.7,32.8,278.7,32.7L278.7,32.7z"/>
</g>
</svg>
