<svg xmlns="http://www.w3.org/2000/svg" viewBox="0 0 324.15 70.88"><defs><style>.cls-1{fill:#9685a5;}.cls-2{fill:#1d1d1b;}.cls-3{fill:#fff;}</style></defs><title>Logo_negro</title><g id="Capa_2" data-name="Capa 2"><g id="Capa_2-2" data-name="Capa 2"><circle class="cls-1" cx="35.44" cy="35.44" r="35.44"/><rect class="cls-1" x="82.04" y="6.45" width="4.59" height="57.17"/><path class="cls-2" d="M97.08,18h11v3.22h-7.23V23.3h6.55v3h-6.55v2.16h7.33v3.22H97.08Z"/><path class="cls-2" d="M109.07,30.34l1.39-2.24a6.84,6.84,0,0,0,3.62,1.21c.65,0,.94-.19.94-.56v0c0-.41-.58-.59-1.7-.9-2.08-.55-3.74-1.25-3.74-3.37v0c0-2.25,1.79-3.49,4.23-3.49a8.25,8.25,0,0,1,4.35,1.22l-1.27,2.34a7.16,7.16,0,0,0-3.12-1c-.56,0-.86.21-.86.51v0c0,.41.61.6,1.72.93,2.09.59,3.74,1.31,3.74,3.36v0c0,2.32-1.73,3.52-4.3,3.52A8.49,8.49,0,0,1,109.07,30.34Z"/><path class="cls-2" d="M120.34,28.39V24.1h-1.25v-3h1.25V18.45h3.71v2.67h2.45v3h-2.45v3.57c0,.74.33,1.06,1,1.06a3.34,3.34,0,0,0,1.41-.35v2.9a5.32,5.32,0,0,1-2.58.6C121.67,31.88,120.34,30.91,120.34,28.39Z"/><path class="cls-2" d="M127.58,28.65v0c0-2.19,1.65-3.32,4.13-3.32a8.26,8.26,0,0,1,2.54.41v-.17c0-1.09-.69-1.72-2.11-1.72a7.48,7.48,0,0,0-2.91.59l-.76-2.62a10.74,10.74,0,0,1,4.27-.82,5.41,5.41,0,0,1,4,1.29,4.41,4.41,0,0,1,1.13,3.36v6.06h-3.66V30.58a4,4,0,0,1-3.1,1.32C129.12,31.9,127.58,30.75,127.58,28.65Zm6.7-.8v-.49a3.77,3.77,0,0,0-1.44-.27c-1.07,0-1.69.52-1.69,1.3v0a1.16,1.16,0,0,0,1.3,1.15A1.69,1.69,0,0,0,134.28,27.85Z"/><path class="cls-2" d="M139.35,26.44v0a5.48,5.48,0,0,1,5.66-5.5,5,5,0,0,1,4.5,2.36L147,25.14A2.29,2.29,0,0,0,145,24,2.19,2.19,0,0,0,143,26.37v0a2.19,2.19,0,0,0,2.11,2.39,2.52,2.52,0,0,0,2-1.09l2.48,1.8a5.23,5.23,0,0,1-4.7,2.41A5.44,5.44,0,0,1,139.35,26.44Z"/><path class="cls-2" d="M150.87,17.44h3.87v2.73h-3.87Zm.08,3.68h3.71V31.67H151Z"/><path class="cls-2" d="M156.29,26.44v0a5.62,5.62,0,0,1,5.86-5.52A5.56,5.56,0,0,1,168,26.37v0a5.85,5.85,0,0,1-11.67,0Zm8.06,0v0A2.29,2.29,0,0,0,162.11,24a2.21,2.21,0,0,0-2.21,2.34v0a2.29,2.29,0,0,0,2.25,2.37A2.21,2.21,0,0,0,164.35,26.44Z"/><path class="cls-2" d="M169.51,21.12h3.71V22.6a3.93,3.93,0,0,1,3.16-1.71c2.24,0,3.59,1.48,3.59,3.88v6.9h-3.71V26c0-1.15-.6-1.78-1.48-1.78A1.56,1.56,0,0,0,173.22,26v5.71h-3.71Z"/><path class="cls-2" d="M181.35,28.65v0c0-2.19,1.66-3.32,4.13-3.32a8.26,8.26,0,0,1,2.54.41v-.17c0-1.09-.68-1.72-2.11-1.72a7.4,7.4,0,0,0-2.9.59l-.76-2.62a10.7,10.7,0,0,1,4.27-.82,5.38,5.38,0,0,1,4,1.29,4.41,4.41,0,0,1,1.13,3.36v6.06H188V30.58a4,4,0,0,1-3.1,1.32C182.89,31.9,181.35,30.75,181.35,28.65Zm6.71-.8v-.49a3.83,3.83,0,0,0-1.45-.27c-1.07,0-1.69.52-1.69,1.3v0a1.16,1.16,0,0,0,1.3,1.15A1.69,1.69,0,0,0,188.06,27.85Z"/><path class="cls-2" d="M193.55,21.12h3.71v1.44a3.89,3.89,0,0,1,3.14-1.67,3.24,3.24,0,0,1,3,1.71A4.45,4.45,0,0,1,207,20.89c2.24,0,3.61,1.4,3.61,3.86v6.92h-3.71V25.94c0-1.15-.56-1.76-1.44-1.76s-1.52.61-1.52,1.76v5.73H200.2V25.94c0-1.15-.56-1.76-1.44-1.76s-1.5.61-1.5,1.76v5.73h-3.71Z"/><path class="cls-2" d="M212.49,17.44h3.86v2.73h-3.86Zm.07,3.68h3.71V31.67h-3.71Z"/><path class="cls-2" d="M217.91,26.44v0a5.29,5.29,0,0,1,5.32-5.52c3.65,0,5.32,2.67,5.32,5.77,0,.23,0,.51,0,.76h-7.06a2.19,2.19,0,0,0,2.29,1.73,3.21,3.21,0,0,0,2.34-1.07l2,1.7a5.5,5.5,0,0,1-4.58,2.14A5.31,5.31,0,0,1,217.91,26.44Zm7.17-.91a1.88,1.88,0,0,0-1.83-1.91c-1,0-1.64.76-1.84,1.91Z"/><path class="cls-2" d="M230.13,21.12h3.7V22.6A3.94,3.94,0,0,1,237,20.89c2.25,0,3.59,1.48,3.59,3.88v6.9h-3.7V26c0-1.15-.61-1.78-1.48-1.78A1.57,1.57,0,0,0,233.83,26v5.71h-3.7Z"/><path class="cls-2" d="M243.13,28.39V24.1h-1.24v-3h1.24V18.45h3.71v2.67h2.46v3h-2.46v3.57c0,.74.33,1.06,1,1.06a3.34,3.34,0,0,0,1.41-.35v2.9a5.29,5.29,0,0,1-2.58.6C244.46,31.88,243.13,30.91,243.13,28.39Z"/><path class="cls-2" d="M250.17,26.44v0A5.62,5.62,0,0,1,256,20.89a5.56,5.56,0,0,1,5.81,5.48v0a5.84,5.84,0,0,1-11.66,0Zm8.06,0v0A2.29,2.29,0,0,0,256,24a2.21,2.21,0,0,0-2.21,2.34v0A2.29,2.29,0,0,0,256,28.78,2.21,2.21,0,0,0,258.23,26.44Z"/><path class="cls-2" d="M96.87,41.77h3.7v1.4a3.87,3.87,0,0,1,3.2-1.64c2.52,0,4.68,2.09,4.68,5.46v0c0,3.43-2.16,5.52-4.66,5.52A4,4,0,0,1,100.57,51v4.41h-3.7Zm7.93,5.28v0a2.16,2.16,0,1,0-4.3,0v0a2.16,2.16,0,1,0,4.3,0Z"/><path class="cls-2" d="M109.52,49.29v0c0-2.18,1.66-3.31,4.14-3.31a7.9,7.9,0,0,1,2.53.41v-.18c0-1.09-.68-1.71-2.11-1.71a7.43,7.43,0,0,0-2.9.58l-.76-2.61a10.57,10.57,0,0,1,4.27-.82,5.43,5.43,0,0,1,4,1.29,4.4,4.4,0,0,1,1.13,3.35v6.07h-3.67v-1.1a4,4,0,0,1-3.1,1.33C111.06,52.55,109.52,51.4,109.52,49.29Zm6.71-.8V48a3.8,3.8,0,0,0-1.44-.28c-1.08,0-1.7.53-1.7,1.31v0a1.17,1.17,0,0,0,1.31,1.15A1.69,1.69,0,0,0,116.23,48.49Z"/><path class="cls-2" d="M121.73,41.77h3.7v2.12a3.24,3.24,0,0,1,3.34-2.3v3.9h-.32c-1.93,0-3,1.11-3,3.55v3.28h-3.7Z"/><path class="cls-2" d="M129.06,49.29v0c0-2.18,1.66-3.31,4.13-3.31a8,8,0,0,1,2.54.41v-.18c0-1.09-.69-1.71-2.11-1.71a7.39,7.39,0,0,0-2.9.58L130,42.43a10.58,10.58,0,0,1,4.28-.82,5.4,5.4,0,0,1,4,1.29,4.4,4.4,0,0,1,1.13,3.35v6.07h-3.66v-1.1a4,4,0,0,1-3.1,1.33C130.6,52.55,129.06,51.4,129.06,49.29Zm6.71-.8V48a3.82,3.82,0,0,0-1.45-.28c-1.07,0-1.69.53-1.69,1.31v0a1.16,1.16,0,0,0,1.3,1.15A1.7,1.7,0,0,0,135.77,48.49Z"/><path class="cls-2" d="M150.37,51v1.29h-3.71V38.08h3.71v5.09a3.87,3.87,0,0,1,3.2-1.64c2.51,0,4.68,2.09,4.68,5.46v0c0,3.43-2.17,5.52-4.66,5.52A4,4,0,0,1,150.37,51Zm4.23-4v0a2.17,2.17,0,1,0-4.31,0v0a2.17,2.17,0,1,0,4.31,0Z"/><path class="cls-2" d="M159.84,38.08h3.86v2.73h-3.86Zm.08,3.69h3.71V52.32h-3.71Z"/><path class="cls-2" d="M165.26,47.09v0a5.48,5.48,0,0,1,5.66-5.5,5,5,0,0,1,4.5,2.36l-2.51,1.87a2.28,2.28,0,0,0-2-1.11A2.19,2.19,0,0,0,168.87,47v0a2.19,2.19,0,0,0,2.11,2.4,2.54,2.54,0,0,0,2-1.09l2.47,1.79a5.24,5.24,0,0,1-4.7,2.42A5.45,5.45,0,0,1,165.26,47.09Z"/><path class="cls-2" d="M176.79,38.08h3.86v2.73h-3.86Zm.07,3.69h3.71V52.32h-3.71Z"/><path class="cls-2" d="M182.21,47.09v0a5.48,5.48,0,0,1,5.65-5.5,5,5,0,0,1,4.51,2.36l-2.52,1.87a2.28,2.28,0,0,0-2-1.11A2.19,2.19,0,0,0,185.81,47v0a2.19,2.19,0,0,0,2.11,2.4,2.54,2.54,0,0,0,2-1.09l2.47,1.79a5.23,5.23,0,0,1-4.7,2.42A5.44,5.44,0,0,1,182.21,47.09Z"/><path class="cls-2" d="M193.81,38.08h3.7V52.32h-3.7Z"/><path class="cls-2" d="M199.15,47.09v0a5.29,5.29,0,0,1,5.32-5.52c3.65,0,5.33,2.67,5.33,5.77,0,.24,0,.51,0,.76h-7.06A2.18,2.18,0,0,0,205,49.8a3.18,3.18,0,0,0,2.34-1.07l2,1.69a5.54,5.54,0,0,1-4.59,2.15A5.31,5.31,0,0,1,199.15,47.09Zm7.18-.92c-.14-1.17-.82-1.91-1.84-1.91s-1.64.76-1.83,1.91Z"/><path class="cls-2" d="M212,49V44.75h-1.25v-3H212V39.09h3.7v2.68h2.46v3h-2.46v3.57c0,.74.33,1,1,1a3.33,3.33,0,0,0,1.4-.35v2.91a5.28,5.28,0,0,1-2.57.6C213.34,52.53,212,51.55,212,49Z"/><path class="cls-2" d="M219.25,49.29v0c0-2.18,1.66-3.31,4.14-3.31a7.9,7.9,0,0,1,2.53.41v-.18c0-1.09-.68-1.71-2.11-1.71a7.39,7.39,0,0,0-2.9.58l-.76-2.61a10.57,10.57,0,0,1,4.27-.82,5.43,5.43,0,0,1,4,1.29,4.4,4.4,0,0,1,1.13,3.35v6.07H225.9v-1.1a4,4,0,0,1-3.1,1.33C220.79,52.55,219.25,51.4,219.25,49.29Zm6.71-.8V48a3.8,3.8,0,0,0-1.44-.28c-1.08,0-1.7.53-1.7,1.31v0a1.17,1.17,0,0,0,1.31,1.15A1.69,1.69,0,0,0,226,48.49Z"/><path class="cls-2" d="M230.66,51,232,48.75A6.87,6.87,0,0,0,235.67,50c.64,0,.93-.2.93-.57v0c0-.41-.58-.58-1.69-.9-2.09-.54-3.75-1.24-3.75-3.37v0c0-2.24,1.8-3.49,4.24-3.49a8.2,8.2,0,0,1,4.34,1.23l-1.26,2.34a7.23,7.23,0,0,0-3.12-1c-.57,0-.86.22-.86.51v0c0,.41.6.6,1.71.94,2.09.58,3.75,1.3,3.75,3.35v0c0,2.32-1.74,3.53-4.31,3.53A8.51,8.51,0,0,1,230.66,51Z"/><path class="cls-1" d="M241.32,48.51h3.86v3.81h-3.86Z"/><path class="cls-1" d="M246.39,47.09v0a5.48,5.48,0,0,1,5.66-5.5,5,5,0,0,1,4.5,2.36L254,45.78a2.29,2.29,0,0,0-2-1.11A2.19,2.19,0,0,0,250,47v0a2.19,2.19,0,0,0,2.1,2.4,2.53,2.53,0,0,0,2-1.09l2.48,1.79a5.25,5.25,0,0,1-4.7,2.42A5.45,5.45,0,0,1,246.39,47.09Z"/><path class="cls-1" d="M257.19,47.09v0A5.62,5.62,0,0,1,263,41.53,5.56,5.56,0,0,1,268.85,47v0a5.84,5.84,0,0,1-11.66,0Zm8.06,0v0A2.29,2.29,0,0,0,263,44.67,2.21,2.21,0,0,0,260.8,47v0A2.29,2.29,0,0,0,263,49.43,2.21,2.21,0,0,0,265.25,47.09Z"/><path class="cls-1" d="M270.41,41.77h3.71v1.44a3.85,3.85,0,0,1,3.14-1.68,3.23,3.23,0,0,1,3,1.72,4.41,4.41,0,0,1,3.53-1.72c2.24,0,3.61,1.41,3.61,3.86v6.93h-3.71V46.58c0-1.15-.57-1.75-1.44-1.75s-1.52.6-1.52,1.75v5.74h-3.71V46.58c0-1.15-.56-1.75-1.44-1.75s-1.5.6-1.5,1.75v5.74h-3.71Z"/><path class="cls-1" d="M289.19,48.51h3.86v3.81h-3.86Z"/><path class="cls-1" d="M294.88,41.77h3.7v1.44a3.88,3.88,0,0,1,3.14-1.68,3.23,3.23,0,0,1,3,1.72,4.41,4.41,0,0,1,3.53-1.72c2.24,0,3.6,1.41,3.6,3.86v6.93h-3.7V46.58c0-1.15-.57-1.75-1.44-1.75s-1.52.6-1.52,1.75v5.74h-3.71V46.58c0-1.15-.57-1.75-1.44-1.75s-1.51.6-1.51,1.75v5.74h-3.7Z"/><path class="cls-1" d="M316.52,47,313,41.77h4l1.56,2.59,1.56-2.59h3.92L320.6,47l3.55,5.35h-4l-1.64-2.72-1.66,2.72H313Z"/><path class="cls-3" d="M62.07,55a1.73,1.73,0,0,1-1.72,1.72H53.23a1.72,1.72,0,0,1,0-3.44h2V30c0-4.56-3.14-8.53-7.69-10.42a13.18,13.18,0,0,1,.86,4.69v23h1.74a1.72,1.72,0,0,1,0,3.44H43a1.72,1.72,0,0,1,0-3.44H45v-23a10.26,10.26,0,0,0-1.85-5.82c-.54-.05-1.09-.08-1.65-.08-8.2,0-14.86,5.65-14.86,12.57V53.41H28.4a1.72,1.72,0,0,1,0,3.44H21.26a1.72,1.72,0,0,1,0-3.44h1.91V31c0-8.24,7.18-15.07,16.36-15.91a15.19,15.19,0,0,0-8.32-2.39c-8.2,0-14.87,5.64-14.87,12.57V47.32H18.2a1.72,1.72,0,1,1,0,3.44H11.07a1.72,1.72,0,0,1,0-3.44H12.9V25.24c0-8.82,8.21-16,18.31-16a18.08,18.08,0,0,1,13.77,6c7.81,1.43,13.7,7.51,13.7,14.75V53.29h1.67A1.72,1.72,0,0,1,62.07,55Z"/></g></g></svg>