<svg xmlns="http://www.w3.org/2000/svg" viewBox="0 0 345.99 71.43"><defs><style>.cls-1{fill:#85a09a;}.cls-2{fill:#1d1d1b;}.cls-3{fill:#fff;}</style></defs><title>Logo_negro</title><g id="Capa_2" data-name="Capa 2"><g id="Capa_2-2" data-name="Capa 2"><circle class="cls-1" cx="35.71" cy="35.71" r="35.71"/><rect class="cls-1" x="82.29" y="6.94" width="4.62" height="57.6"/><path class="cls-2" d="M99.88,21.49H95.75V18.15h12.07v3.34h-4.13V31.9H99.88Z"/><path class="cls-2" d="M107,26.64v0a5.67,5.67,0,0,1,5.9-5.57,5.61,5.61,0,0,1,5.85,5.53v0a5.89,5.89,0,0,1-11.75,0Zm8.12,0v0a2.31,2.31,0,0,0-2.26-2.4,2.22,2.22,0,0,0-2.22,2.36v0A2.3,2.3,0,0,0,112.93,29,2.23,2.23,0,0,0,115.15,26.64Z"/><path class="cls-2" d="M120.35,21.27h3.73v1.42A3.91,3.91,0,0,1,127.31,21c2.53,0,4.71,2.11,4.71,5.51v0c0,3.46-2.18,5.56-4.69,5.56a4,4,0,0,1-3.25-1.53v4.44h-3.73Zm8,5.33v0a2.18,2.18,0,1,0-4.34,0v0a2.18,2.18,0,1,0,4.34,0Z"/><path class="cls-2" d="M133.2,26.64v0A5.34,5.34,0,0,1,138.56,21c3.68,0,5.37,2.7,5.37,5.82,0,.24,0,.51,0,.77H136.8a2.19,2.19,0,0,0,2.29,1.75,3.22,3.22,0,0,0,2.36-1.08L143.52,30a5.6,5.6,0,0,1-4.62,2.16A5.35,5.35,0,0,1,133.2,26.64Zm7.23-.93c-.14-1.18-.82-1.92-1.85-1.92s-1.65.76-1.84,1.92Z"/><path class="cls-2" d="M144.71,30.57l1.4-2.26a6.91,6.91,0,0,0,3.65,1.21c.65,0,.94-.19.94-.57v0c0-.42-.58-.59-1.71-.91-2.1-.55-3.77-1.26-3.77-3.4v0c0-2.26,1.81-3.52,4.27-3.52a8.37,8.37,0,0,1,4.38,1.24l-1.28,2.36a7.17,7.17,0,0,0-3.14-1c-.57,0-.87.21-.87.51v0c0,.41.61.61,1.73.94,2.1.59,3.78,1.32,3.78,3.38v0c0,2.34-1.75,3.56-4.35,3.56A8.59,8.59,0,0,1,144.71,30.57Z"/><path class="cls-2" d="M161.06,21.27h3.73v1.42A3.9,3.9,0,0,1,168,21c2.54,0,4.72,2.11,4.72,5.51v0c0,3.46-2.18,5.56-4.7,5.56a4,4,0,0,1-3.24-1.53v4.44h-3.73Zm8,5.33v0a2.19,2.19,0,1,0-4.35,0v0a2.19,2.19,0,1,0,4.35,0Z"/><path class="cls-2" d="M173.81,28.86v0c0-2.2,1.67-3.34,4.16-3.34a8.05,8.05,0,0,1,2.56.41v-.18c0-1.1-.69-1.73-2.12-1.73a7.55,7.55,0,0,0-2.93.59l-.77-2.63a10.73,10.73,0,0,1,4.31-.83,5.42,5.42,0,0,1,4,1.3,4.44,4.44,0,0,1,1.14,3.38V31.9h-3.69V30.8a4,4,0,0,1-3.13,1.34C175.36,32.14,173.81,31,173.81,28.86Zm6.76-.81v-.49a3.87,3.87,0,0,0-1.46-.28c-1.08,0-1.71.53-1.71,1.32v0a1.17,1.17,0,0,0,1.32,1.16A1.71,1.71,0,0,0,180.57,28.05Z"/><path class="cls-2" d="M186.11,21.27h3.73v2.14a3.26,3.26,0,0,1,3.36-2.32V25h-.31c-1.95,0-3,1.12-3,3.58v3.3h-3.73Z"/><path class="cls-2" d="M193.49,28.86v0c0-2.2,1.67-3.34,4.17-3.34a8,8,0,0,1,2.55.41v-.18c0-1.1-.68-1.73-2.12-1.73a7.58,7.58,0,0,0-2.93.59l-.76-2.63a10.67,10.67,0,0,1,4.3-.83,5.43,5.43,0,0,1,4.05,1.3,4.44,4.44,0,0,1,1.14,3.38V31.9H200.2V30.8a4,4,0,0,1-3.13,1.34C195.05,32.14,193.49,31,193.49,28.86Zm6.76-.81v-.49a3.82,3.82,0,0,0-1.45-.28c-1.08,0-1.71.53-1.71,1.32v0a1.17,1.17,0,0,0,1.32,1.16A1.7,1.7,0,0,0,200.25,28.05Z"/><path class="cls-2" d="M95.87,47.44v0a5.33,5.33,0,0,1,5.37-5.56c3.67,0,5.36,2.69,5.36,5.81,0,.24,0,.51,0,.77H99.47a2.19,2.19,0,0,0,2.3,1.75,3.25,3.25,0,0,0,2.36-1.08l2.06,1.71A5.59,5.59,0,0,1,101.57,53,5.35,5.35,0,0,1,95.87,47.44Zm7.23-.93a1.88,1.88,0,0,0-1.84-1.92c-1,0-1.65.76-1.85,1.92Z"/><path class="cls-2" d="M107.38,51.37l1.4-2.26a7,7,0,0,0,3.65,1.22c.65,0,.95-.2.95-.57v0c0-.42-.59-.59-1.71-.91-2.11-.55-3.78-1.26-3.78-3.4v0c0-2.26,1.81-3.51,4.27-3.51a8.37,8.37,0,0,1,4.38,1.23l-1.28,2.36a7.17,7.17,0,0,0-3.14-1c-.57,0-.86.22-.86.51v0c0,.41.6.61,1.72.94,2.11.59,3.78,1.32,3.78,3.38v0c0,2.34-1.75,3.56-4.35,3.56A8.61,8.61,0,0,1,107.38,51.37Z"/><path class="cls-2" d="M118.74,49.4V45.08h-1.26v-3h1.26V39.38h3.73v2.69H125v3h-2.48v3.59c0,.75.34,1.07,1,1.07a3.21,3.21,0,0,0,1.41-.36v2.93a5.36,5.36,0,0,1-2.59.61C120.08,52.92,118.74,51.94,118.74,49.4Z"/><path class="cls-2" d="M126,49.66v0c0-2.2,1.67-3.34,4.16-3.34a8.05,8.05,0,0,1,2.56.41v-.18c0-1.1-.69-1.73-2.12-1.73a7.55,7.55,0,0,0-2.93.59l-.77-2.63a10.73,10.73,0,0,1,4.31-.83,5.46,5.46,0,0,1,4,1.3,4.44,4.44,0,0,1,1.14,3.38V52.7h-3.69V51.6a4,4,0,0,1-3.12,1.34C127.58,52.94,126,51.78,126,49.66Zm6.76-.81v-.49a3.88,3.88,0,0,0-1.46-.27c-1.08,0-1.71.53-1.71,1.31v0a1.17,1.17,0,0,0,1.32,1.16A1.71,1.71,0,0,0,132.79,48.85Z"/><path class="cls-2" d="M137.89,47.44v0a5.52,5.52,0,0,1,5.7-5.54,5,5,0,0,1,4.54,2.37l-2.53,1.89a2.29,2.29,0,0,0-2-1.12,2.2,2.2,0,0,0-2.08,2.36v0a2.2,2.2,0,0,0,2.12,2.41,2.55,2.55,0,0,0,2-1.1l2.49,1.81A5.26,5.26,0,0,1,143.46,53,5.49,5.49,0,0,1,137.89,47.44Z"/><path class="cls-2" d="M149.5,38.36h3.9v2.75h-3.9Zm.08,3.71h3.74V52.7h-3.74Z"/><path class="cls-2" d="M155,47.44v0a5.89,5.89,0,0,1,11.75,0v0a5.67,5.67,0,0,1-5.9,5.56A5.61,5.61,0,0,1,155,47.44Zm8.11,0v0a2.3,2.3,0,0,0-2.26-2.4,2.23,2.23,0,0,0-2.22,2.36v0a2.32,2.32,0,0,0,2.26,2.4A2.23,2.23,0,0,0,163.08,47.44Z"/><path class="cls-2" d="M168.29,42.07H172v1.49a4,4,0,0,1,3.18-1.72c2.26,0,3.62,1.49,3.62,3.91v7h-3.73V46.94c0-1.15-.61-1.78-1.5-1.78A1.57,1.57,0,0,0,172,46.94V52.7h-3.73Z"/><path class="cls-2" d="M180.21,49.66v0c0-2.2,1.67-3.34,4.17-3.34a8,8,0,0,1,2.55.41v-.18c0-1.1-.69-1.73-2.12-1.73a7.58,7.58,0,0,0-2.93.59l-.76-2.63a10.64,10.64,0,0,1,4.3-.83,5.49,5.49,0,0,1,4.05,1.3,4.48,4.48,0,0,1,1.14,3.38V52.7h-3.7V51.6a4,4,0,0,1-3.12,1.34C181.76,52.94,180.21,51.78,180.21,49.66Zm6.76-.81v-.49a3.83,3.83,0,0,0-1.45-.27c-1.08,0-1.71.53-1.71,1.31v0a1.17,1.17,0,0,0,1.31,1.16A1.71,1.71,0,0,0,187,48.85Z"/><path class="cls-2" d="M192.51,42.07h3.73v1.46a3.89,3.89,0,0,1,3.17-1.69,3.25,3.25,0,0,1,3.06,1.72A4.48,4.48,0,0,1,206,41.84c2.26,0,3.64,1.41,3.64,3.89v7h-3.74V46.93c0-1.16-.57-1.77-1.45-1.77s-1.53.61-1.53,1.77V52.7h-3.74V46.93c0-1.16-.57-1.77-1.45-1.77s-1.52.61-1.52,1.77V52.7h-3.73Z"/><path class="cls-2" d="M211.59,38.36h3.89v2.75h-3.89Zm.08,3.71h3.73V52.7h-3.73Z"/><path class="cls-2" d="M217.05,47.44v0a5.33,5.33,0,0,1,5.36-5.56c3.68,0,5.37,2.69,5.37,5.81,0,.24,0,.51,0,.77h-7.11a2.18,2.18,0,0,0,2.29,1.75,3.22,3.22,0,0,0,2.36-1.08l2.07,1.71A5.6,5.6,0,0,1,222.75,53,5.35,5.35,0,0,1,217.05,47.44Zm7.23-.93a1.9,1.9,0,0,0-1.85-1.92c-1,0-1.65.76-1.84,1.92Z"/><path class="cls-2" d="M229.37,42.07h3.73v1.49a4,4,0,0,1,3.18-1.72c2.26,0,3.62,1.49,3.62,3.91v7h-3.73V46.94c0-1.15-.61-1.78-1.5-1.78a1.57,1.57,0,0,0-1.57,1.78V52.7h-3.73Z"/><path class="cls-2" d="M242.47,49.4V45.08h-1.26v-3h1.26V39.38h3.73v2.69h2.48v3H246.2v3.59c0,.75.34,1.07,1,1.07a3.21,3.21,0,0,0,1.41-.36v2.93a5.36,5.36,0,0,1-2.59.61C243.81,52.92,242.47,51.94,242.47,49.4Z"/><path class="cls-2" d="M249.56,47.44v0a5.66,5.66,0,0,1,5.9-5.56,5.6,5.6,0,0,1,5.85,5.52v0a5.89,5.89,0,0,1-11.75,0Zm8.12,0v0a2.3,2.3,0,0,0-2.26-2.4,2.22,2.22,0,0,0-2.22,2.36v0a2.31,2.31,0,0,0,2.26,2.4A2.24,2.24,0,0,0,257.68,47.44Z"/><path class="cls-1" d="M262.53,48.87h3.89V52.7h-3.89Z"/><path class="cls-1" d="M267.64,47.44v0a5.52,5.52,0,0,1,5.7-5.54,5,5,0,0,1,4.54,2.37l-2.54,1.89a2.28,2.28,0,0,0-2-1.12,2.21,2.21,0,0,0-2.09,2.36v0a2.21,2.21,0,0,0,2.13,2.41,2.54,2.54,0,0,0,2-1.1l2.5,1.81A5.28,5.28,0,0,1,273.2,53,5.49,5.49,0,0,1,267.64,47.44Z"/><path class="cls-1" d="M278.52,47.44v0a5.66,5.66,0,0,1,5.9-5.56,5.6,5.6,0,0,1,5.85,5.52v0a5.89,5.89,0,0,1-11.75,0Zm8.12,0v0a2.31,2.31,0,0,0-2.26-2.4,2.22,2.22,0,0,0-2.22,2.36v0a2.31,2.31,0,0,0,2.26,2.4A2.24,2.24,0,0,0,286.64,47.44Z"/><path class="cls-1" d="M291.84,42.07h3.73v1.46a3.91,3.91,0,0,1,3.17-1.69,3.27,3.27,0,0,1,3.07,1.72,4.45,4.45,0,0,1,3.55-1.72c2.26,0,3.64,1.41,3.64,3.89v7h-3.74V46.93c0-1.16-.57-1.77-1.45-1.77s-1.53.61-1.53,1.77V52.7h-3.74V46.93c0-1.16-.57-1.77-1.45-1.77s-1.52.61-1.52,1.77V52.7h-3.73Z"/><path class="cls-1" d="M310.76,48.87h3.89V52.7h-3.89Z"/><path class="cls-1" d="M316.5,42.07h3.73v1.46a3.89,3.89,0,0,1,3.16-1.69,3.25,3.25,0,0,1,3.07,1.72A4.47,4.47,0,0,1,330,41.84c2.26,0,3.63,1.41,3.63,3.89v7h-3.73V46.93c0-1.16-.57-1.77-1.45-1.77s-1.54.61-1.54,1.77V52.7H323.2V46.93c0-1.16-.57-1.77-1.46-1.77s-1.51.61-1.51,1.77V52.7H316.5Z"/><path class="cls-1" d="M338.31,47.34l-3.52-5.27h4l1.57,2.62L342,42.07h4l-3.5,5.25L346,52.7h-4L340.33,50l-1.67,2.73h-3.93Z"/><path class="cls-3" d="M65.3,39.77l-4.71-9.42a1.75,1.75,0,0,0-1.56-1H13.27a1.73,1.73,0,0,0-1.52.93l-5,9.42a1.69,1.69,0,0,0,0,1.7,1.72,1.72,0,0,0,1.49.84h55.5a1.75,1.75,0,0,0,1.48-.82A1.73,1.73,0,0,0,65.3,39.77Zm-48.4-1H11.14l3.17-6h5.85Zm9.5,0H20.86l3.25-6h5.55Zm14.53,0H30.36l3.25-6H44.19Zm7.22-6h5.91l-3.25,6H44.89Zm6.6,6L58,32.91l3,5.9Z"/></g></g></svg>