<?xml version="1.0" encoding="utf-8"?>
<!-- Generator: Adobe Illustrator 27.1.0, SVG Export Plug-In . SVG Version: 6.00 Build 0)  -->
<svg version="1.1" id="Capa_2_00000095322196820776889150000005610979170104102031_"
	 xmlns="http://www.w3.org/2000/svg" xmlns:xlink="http://www.w3.org/1999/xlink" x="0px" y="0px" viewBox="0 0 327 85"
	 style="enable-background:new 0 0 327 85;" xml:space="preserve">
<style type="text/css">
	.st0{fill:#EE7203;}
	.st1{fill:#1D1D1B;}
	.st2{fill:#FFFFFF;}
</style>
<g>
	<circle class="st0" cx="38.7" cy="42.5" r="38.7"/>
	<rect x="89.3" y="11.1" class="st0" width="5" height="62.4"/>
	<path class="st1" d="M110.5,37.6h-5.8v-4.7h17.1v4.7h-5.8v14.7h-5.4L110.5,37.6z"/>
	<path class="st1" d="M122.9,37.3h5.3v3c0.9-2.1,2.3-3.4,4.8-3.3v5.6h-0.5c-2.8,0-4.4,1.6-4.4,5.1v4.7h-5.3L122.9,37.3z"/>
	<path class="st1" d="M133.3,48.1L133.3,48.1c0-3.1,2.4-4.7,5.9-4.7c1.2,0,2.5,0.2,3.6,0.6v-0.3c0-1.6-1-2.5-3-2.5
		c-1.4,0-2.8,0.3-4.2,0.8l-1.1-3.7c1.9-0.8,4-1.2,6.1-1.2c2.7,0,4.5,0.6,5.7,1.8c1.2,1.3,1.8,3,1.6,4.8v8.7h-5.2v-1.6
		c-1.1,1.3-2.7,2-4.4,1.9C135.5,52.7,133.3,51.1,133.3,48.1z M142.9,47v-0.7c-0.7-0.3-1.4-0.4-2.1-0.4c-1.5,0-2.4,0.8-2.4,1.9l0,0
		c0,0.9,0.8,1.7,1.7,1.7c0.1,0,0.1,0,0.2,0c1.3,0.1,2.5-0.9,2.6-2.2C142.9,47.1,142.9,47,142.9,47L142.9,47z"/>
	<path class="st1" d="M151.7,41.6h-1.8v-4.2h1.8v-0.3c-0.1-1.4,0.3-2.8,1.3-3.9c1.1-1,2.5-1.4,3.9-1.3c1.2,0,2.3,0.1,3.4,0.4V36
		c-0.6-0.2-1.3-0.3-2-0.3c-1,0-1.5,0.4-1.5,1.4v0.4h3.5v4.1H157v10.8h-5.3L151.7,41.6z"/>
	<path class="st1" d="M162,32.1h5.5V36H162V32.1z M162.1,37.4h5.3v15h-5.3V37.4z"/>
	<path class="st1" d="M171.3,47.7v-6.1h-1.8v-4.3h1.8v-3.8h5.3v3.8h3.5v4.3h-3.5v5.1c0,1.1,0.5,1.5,1.4,1.5c0.7,0,1.4-0.2,2-0.5v4.1
		c-1.1,0.6-2.4,0.9-3.7,0.9C173.2,52.7,171.3,51.3,171.3,47.7z"/>
	<path class="st1" d="M181.6,48.1L181.6,48.1c0-3.1,2.4-4.7,5.9-4.7c1.2,0,2.5,0.2,3.6,0.6v-0.3c0-1.6-1-2.5-3-2.5
		c-1.4,0-2.8,0.3-4.2,0.8l-1.1-3.7c1.9-0.8,4-1.2,6.1-1.2c2.7,0,4.5,0.6,5.7,1.8c1.2,1.3,1.8,3,1.6,4.8v8.7h-5.2v-1.6
		c-1.1,1.3-2.7,2-4.4,1.9C183.8,52.7,181.6,51.1,181.6,48.1z M191.2,47v-0.7c-0.7-0.3-1.4-0.4-2.1-0.4c-1.5,0-2.4,0.8-2.4,1.9l0,0
		c0,0.9,0.7,1.7,1.7,1.7c0.1,0,0.1,0,0.2,0c1.3,0.1,2.5-0.9,2.6-2.2C191.2,47.1,191.2,47,191.2,47L191.2,47z"/>
	<path class="st1" d="M199,37.3h5.3v2.1c1-1.5,2.7-2.4,4.5-2.4c1.8-0.1,3.5,0.8,4.4,2.5c1.2-1.6,3.1-2.5,5-2.5c3.2,0,5.2,2,5.2,5.4
		v9.9h-5.3v-8.1c0-1.6-0.8-2.5-2.1-2.5c-1.3,0-2.2,0.9-2.2,2.5v8.2h-5.3v-8.2c0-1.6-0.8-2.5-2.1-2.5c-1.3,0-2.2,0.9-2.2,2.5v8.2H199
		V37.3z"/>
	<path class="st1" d="M231.3,50.6v1.8H226V32.1h5.3v7.3c1-1.5,2.8-2.4,4.6-2.4c3.6,0,6.7,3,6.7,7.8l0,0c0,4.9-3.1,7.9-6.7,7.9
		C234.2,52.7,232.5,52,231.3,50.6z M237.4,44.9L237.4,44.9c0.1-1.8-1.1-3.3-2.8-3.4c-1.7-0.1-3.2,1.1-3.3,2.8c0,0.2,0,0.3,0,0.5v0.1
		c-0.2,1.7,1,3.2,2.7,3.4c1.7,0.2,3.2-1,3.4-2.7C237.4,45.4,237.4,45.1,237.4,44.9z"/>
	<path class="st1" d="M244.2,44.9L244.2,44.9c0.2-4.7,4.1-8.2,8.7-8c4.3,0.2,7.7,3.6,7.9,7.9v0.1c-0.1,4.4-3.7,8-8.2,7.9
		c-0.1,0-0.1,0-0.2,0c-4.4,0.2-8.1-3.2-8.3-7.6C244.3,45.1,244.2,45,244.2,44.9z M255.7,44.9L255.7,44.9c0.1-1.9-1.3-3.4-3.1-3.5
		c0,0,0,0-0.1,0c-1.7,0-3.1,1.4-3.1,3.2c0,0.1,0,0.1,0,0.2v0.1c-0.1,1.8,1.3,3.3,3.1,3.4c0,0,0,0,0,0c1.7,0,3.2-1.4,3.2-3.1
		C255.7,45.1,255.7,45,255.7,44.9z"/>
	<path class="st1" d="M261.9,50.5l2-3.2c1.5,1.1,3.3,1.7,5.2,1.7c0.9,0,1.3-0.3,1.3-0.8v-0.1c0-0.6-0.8-0.8-2.4-1.3
		c-3-0.8-5.3-1.8-5.3-4.8l0,0c0-3.2,2.6-5,6-5c2.2,0,4.3,0.6,6.2,1.8l-1.8,3.3c-1.3-0.8-2.9-1.3-4.4-1.4c-0.8,0-1.2,0.3-1.2,0.7v0.1
		c0,0.6,0.9,0.9,2.5,1.3c3,0.8,5.3,1.9,5.3,4.8l0,0c0,3.3-2.5,5-6.1,5C266.5,52.7,264,52,261.9,50.5z"/>
	<path class="st0" d="M277.1,47h5.5v5.4h-5.5V47z"/>
	<path class="st0" d="M285.2,37.3h5.3v2.1c1-1.5,2.7-2.4,4.5-2.4c1.8-0.1,3.5,0.8,4.4,2.5c1.2-1.6,3.1-2.5,5-2.5
		c3.2,0,5.2,2,5.2,5.4v9.9h-5.3v-8.1c0-1.6-0.8-2.5-2.1-2.5c-1.3,0-2.2,0.9-2.2,2.5v8.2h-5.3v-8.2c0-1.6-0.8-2.5-2.1-2.5
		c-1.3,0-2.2,0.9-2.2,2.5v8.2h-5.3V37.3z"/>
	<path class="st0" d="M316.1,44.8l-5-7.5h5.7L319,41l2.2-3.7h5.6l-5,7.4l5.1,7.6h-5.7l-2.3-3.9l-2.4,3.9H311L316.1,44.8z"/>
	<path class="st2" d="M54.8,53.5L54.8,53.5v-6.8c-0.1-0.9-0.8-1.6-1.7-1.5H53v-7.3c0-0.9-0.8-1.6-1.7-1.6c0,0,0,0,0,0l0,0v-7.1
		c0-0.8-0.7-1.5-1.5-1.6V22c0-0.9-0.8-1.6-1.7-1.6H46l0,0c-0.1-3.3-2.8-5.8-6.1-5.8h-2.7c-3.3-0.1-6,2.5-6.1,5.8l0,0H29
		c-0.9,0-1.6,0.7-1.7,1.6c0,0,0,0,0,0v5.7l0,0c-0.9,0-1.7,0.7-1.7,1.6c0,0,0,0,0,0v7.1h-0.2c-0.9,0-1.6,0.7-1.7,1.6c0,0,0,0,0,0v7.3
		l0,0c-0.9,0-1.6,0.7-1.7,1.6v6.8l0,0c-0.9,0-1.6,0.7-1.7,1.6v9.2c0,0.9,0.8,1.6,1.6,1.6h32.7c0.9,0,1.6-0.7,1.7-1.6v-9.2
		C56.5,54.2,55.7,53.5,54.8,53.5z M37.2,17.8h2.7c1.4,0,2.6,1,2.7,2.4h-8.1C34.7,18.8,35.9,17.7,37.2,17.8z M30.7,23.5h15.7v4.1
		H30.7L30.7,23.5z M29,31.3h18.9v5.1H29L29,31.3z M27.2,39.5h22.4V45H27.1L27.2,39.5z M25.5,48.3h26v5.2h-26L25.5,48.3z M53.1,62.7
		H23.7V57h29.4V62.7z"/>
</g>
</svg>
