<svg xmlns="http://www.w3.org/2000/svg" viewBox="0 0 261.75 71.67"><defs><style>.cls-1{fill:#ffd86a;}.cls-2{fill:#1d1d1b;}.cls-3{fill:#fff;}</style></defs><title>Logo_negro</title><g id="Capa_2" data-name="Capa 2"><g id="Capa_2-2" data-name="Capa 2"><circle class="cls-1" cx="35.84" cy="35.84" r="35.84"/><rect class="cls-1" x="82.38" y="6.74" width="4.64" height="57.8"/><path class="cls-2" d="M96.49,28.75h4.28l3.13,8.73L107,28.75h4.19l-5.59,13.9h-3.55Z"/><path class="cls-2" d="M112.16,28.16h3.9v2.76h-3.9Zm.08,3.72H116V42.55h-3.74Z"/><path class="cls-2" d="M117.54,39.49v0c0-2.21,1.68-3.35,4.18-3.35a8.35,8.35,0,0,1,2.56.41v-.17c0-1.11-.69-1.74-2.13-1.74a7.55,7.55,0,0,0-2.93.59l-.77-2.64a10.74,10.74,0,0,1,4.32-.83A5.48,5.48,0,0,1,126.83,33,4.43,4.43,0,0,1,128,36.42v6.13h-3.71V41.44a4,4,0,0,1-3.13,1.34C119.1,42.78,117.54,41.62,117.54,39.49Zm6.78-.81v-.49a3.83,3.83,0,0,0-1.46-.28c-1.08,0-1.71.54-1.71,1.32v0a1.18,1.18,0,0,0,1.32,1.17A1.71,1.71,0,0,0,124.32,38.68Z"/><path class="cls-2" d="M130,28.16h3.75V42.55H130Z"/><path class="cls-2" d="M135.36,37.26v0a5.35,5.35,0,0,1,5.39-5.57c3.68,0,5.38,2.7,5.38,5.83,0,.24,0,.51,0,.77H139A2.2,2.2,0,0,0,141.28,40a3.21,3.21,0,0,0,2.36-1.08l2.07,1.71a5.55,5.55,0,0,1-4.63,2.17A5.37,5.37,0,0,1,135.36,37.26Zm7.26-.92c-.14-1.19-.83-1.94-1.86-1.94s-1.65.77-1.85,1.94Z"/><path class="cls-2" d="M148.37,39.23V34.9h-1.26v-3h1.26v-2.7h3.75v2.7h2.48v3h-2.48v3.61c0,.75.34,1.06,1,1.06a3.34,3.34,0,0,0,1.42-.35v2.93a5.26,5.26,0,0,1-2.6.61C149.71,42.76,148.37,41.78,148.37,39.23Z"/><path class="cls-2" d="M155.69,39.49v0c0-2.21,1.67-3.35,4.18-3.35a8.4,8.4,0,0,1,2.56.41v-.17c0-1.11-.69-1.74-2.13-1.74a7.63,7.63,0,0,0-2.94.59l-.77-2.64a10.81,10.81,0,0,1,4.32-.83A5.46,5.46,0,0,1,165,33a4.44,4.44,0,0,1,1.15,3.39v6.13h-3.71V41.44a4,4,0,0,1-3.13,1.34C157.24,42.78,155.69,41.62,155.69,39.49Zm6.78-.81v-.49a3.91,3.91,0,0,0-1.46-.28c-1.08,0-1.71.54-1.71,1.32v0a1.18,1.18,0,0,0,1.32,1.17A1.71,1.71,0,0,0,162.47,38.68Z"/><path class="cls-2" d="M167.22,41.21l1.4-2.27a6.9,6.9,0,0,0,3.67,1.22c.65,0,.94-.2.94-.57v0c0-.41-.59-.59-1.71-.91-2.11-.55-3.79-1.26-3.79-3.41v0c0-2.26,1.82-3.53,4.28-3.53a8.36,8.36,0,0,1,4.4,1.25l-1.28,2.36a7.24,7.24,0,0,0-3.16-1c-.57,0-.87.21-.87.51v0c0,.41.62.61,1.74.94,2.11.6,3.78,1.33,3.78,3.4v0c0,2.34-1.75,3.56-4.35,3.56A8.63,8.63,0,0,1,167.22,41.21Z"/><path class="cls-1" d="M178,38.7h3.91v3.85H178Z"/><path class="cls-1" d="M183.13,37.26v0a5.54,5.54,0,0,1,5.72-5.56,5.05,5.05,0,0,1,4.55,2.39l-2.54,1.89a2.31,2.31,0,0,0-2-1.12,2.2,2.2,0,0,0-2.09,2.36v0a2.21,2.21,0,0,0,2.12,2.43,2.61,2.61,0,0,0,2.06-1.1l2.5,1.81a5.3,5.3,0,0,1-4.75,2.44A5.5,5.5,0,0,1,183.13,37.26Z"/><path class="cls-1" d="M194.05,37.26v0A5.68,5.68,0,0,1,200,31.65a5.62,5.62,0,0,1,5.87,5.53v0a5.91,5.91,0,0,1-11.79,0Zm8.14,0v0a2.3,2.3,0,0,0-2.26-2.4,2.23,2.23,0,0,0-2.23,2.36v0A2.31,2.31,0,0,0,200,39.63,2.23,2.23,0,0,0,202.19,37.26Z"/><path class="cls-1" d="M207.42,31.88h3.74v1.46a3.91,3.91,0,0,1,3.18-1.69,3.26,3.26,0,0,1,3.07,1.73A4.5,4.5,0,0,1,221,31.65c2.27,0,3.65,1.41,3.65,3.9v7h-3.75v-5.8c0-1.16-.57-1.77-1.46-1.77s-1.54.61-1.54,1.77v5.8h-3.74v-5.8c0-1.16-.57-1.77-1.46-1.77s-1.52.61-1.52,1.77v5.8h-3.74Z"/><path class="cls-1" d="M226.4,38.7h3.9v3.85h-3.9Z"/><path class="cls-1" d="M232.16,31.88h3.74v1.46a3.91,3.91,0,0,1,3.18-1.69,3.26,3.26,0,0,1,3.07,1.73,4.5,4.5,0,0,1,3.57-1.73c2.27,0,3.65,1.41,3.65,3.9v7h-3.75v-5.8c0-1.16-.57-1.77-1.46-1.77s-1.54.61-1.54,1.77v5.8h-3.74v-5.8c0-1.16-.57-1.77-1.46-1.77s-1.52.61-1.52,1.77v5.8h-3.74Z"/><path class="cls-1" d="M254,37.17l-3.53-5.29h4l1.58,2.62,1.58-2.62h4l-3.51,5.27,3.59,5.4h-4l-1.66-2.74-1.68,2.74h-3.94Z"/><rect class="cls-3" x="25.23" y="21.44" width="3.09" height="1.11"/><rect class="cls-3" x="30.81" y="21.44" width="3.09" height="1.11"/><rect class="cls-3" x="36.38" y="21.44" width="3.09" height="1.11"/><rect class="cls-3" x="41.96" y="21.44" width="3.09" height="1.11"/><rect class="cls-3" x="25.23" y="48.49" width="3.09" height="1.11"/><rect class="cls-3" x="30.81" y="48.49" width="3.09" height="1.11"/><rect class="cls-3" x="36.38" y="48.49" width="3.09" height="1.11"/><rect class="cls-3" x="41.96" y="48.49" width="3.09" height="1.11"/><path class="cls-3" d="M55.18,14.72H16.7A1.74,1.74,0,0,0,15,16.46V54.94a1.73,1.73,0,0,0,1.74,1.73H55.18a1.73,1.73,0,0,0,1.74-1.73V16.46A1.74,1.74,0,0,0,55.18,14.72ZM21.25,18.43H49.94a1.41,1.41,0,0,1,1.4,1.41,6.54,6.54,0,0,1-6.54,6.54H26.39a6.54,6.54,0,0,1-6.54-6.54A1.41,1.41,0,0,1,21.25,18.43Zm-2.81,7.51a10,10,0,0,0,8,3.92H44.8a10,10,0,0,0,8.64-4.95V46.24a10,10,0,0,0-8.64-5H26.39a10,10,0,0,0-7.95,3.92Zm1.41,25.37a6.54,6.54,0,0,1,6.54-6.54H44.8a6.54,6.54,0,0,1,6.54,6.54,1.4,1.4,0,0,1-1.4,1.4H21.25A1.4,1.4,0,0,1,19.85,51.31Z"/></g></g></svg>