<svg xmlns="http://www.w3.org/2000/svg" viewBox="0 0 277.23 71.5"><defs><style>.cls-1{fill:#29235c;}.cls-2{fill:#1d1d1b;}.cls-3{fill:#fff;}</style></defs><title>Logo_negro</title><g id="Capa_2" data-name="Capa 2"><g id="Capa_3" data-name="Capa 3"><circle class="cls-1" cx="35.75" cy="35.75" r="35.75"/><rect class="cls-1" x="82.75" y="7.08" width="4.63" height="57.66"/><path class="cls-2" d="M97.93,18.39H105a5.12,5.12,0,0,1,3.76,1.24,3,3,0,0,1,.88,2.23v0A3.17,3.17,0,0,1,107.51,25c1.67.55,2.73,1.5,2.73,3.37v0c0,2.36-1.93,3.79-5.21,3.79h-7.1Zm6.12,5.49c1.16,0,1.8-.39,1.8-1.2v0c0-.74-.59-1.18-1.73-1.18h-2.47v2.42Zm.55,5.21c1.16,0,1.82-.45,1.82-1.25v0c0-.75-.59-1.24-1.86-1.24h-2.91v2.53Z"/><path class="cls-2" d="M111.24,29.11v0c0-2.2,1.67-3.34,4.17-3.34a8.35,8.35,0,0,1,2.56.41V26c0-1.1-.69-1.73-2.12-1.73a7.42,7.42,0,0,0-2.94.59l-.76-2.64a10.71,10.71,0,0,1,4.3-.83,5.52,5.52,0,0,1,4.06,1.3,4.48,4.48,0,0,1,1.14,3.39v6.11H118v-1.1a4,4,0,0,1-3.13,1.34C112.8,32.4,111.24,31.24,111.24,29.11Zm6.77-.8v-.49a3.87,3.87,0,0,0-1.46-.28c-1.08,0-1.71.53-1.71,1.32v0a1.17,1.17,0,0,0,1.32,1.16A1.71,1.71,0,0,0,118,28.31Z"/><path class="cls-2" d="M123.55,21.52h3.74V23a3.93,3.93,0,0,1,3.19-1.73c2.26,0,3.62,1.49,3.62,3.91v7h-3.74V26.4c0-1.16-.61-1.79-1.5-1.79a1.57,1.57,0,0,0-1.57,1.79v5.76h-3.74Z"/><path class="cls-2" d="M135.59,26.89v0a5.52,5.52,0,0,1,5.7-5.54,5,5,0,0,1,4.55,2.38l-2.54,1.88a2.31,2.31,0,0,0-2-1.12,2.2,2.2,0,0,0-2.08,2.36v0a2.2,2.2,0,0,0,2.12,2.42,2.55,2.55,0,0,0,2.05-1.1L145.9,30a5.28,5.28,0,0,1-4.74,2.44A5.49,5.49,0,0,1,135.59,26.89Z"/><path class="cls-2" d="M146.68,29.11v0c0-2.2,1.67-3.34,4.17-3.34a8.35,8.35,0,0,1,2.56.41V26c0-1.1-.69-1.73-2.13-1.73a7.41,7.41,0,0,0-2.93.59l-.76-2.64a10.73,10.73,0,0,1,4.31-.83,5.51,5.51,0,0,1,4,1.3,4.48,4.48,0,0,1,1.14,3.39v6.11h-3.7v-1.1a4,4,0,0,1-3.13,1.34C148.24,32.4,146.68,31.24,146.68,29.11Zm6.77-.8v-.49a3.91,3.91,0,0,0-1.46-.28c-1.08,0-1.71.53-1.71,1.32v0a1.17,1.17,0,0,0,1.32,1.16A1.71,1.71,0,0,0,153.45,28.31Z"/><path class="cls-2" d="M158.19,30.83l1.39-2.27a6.9,6.9,0,0,0,3.66,1.22c.65,0,.95-.19.95-.57v0c0-.41-.59-.59-1.71-.9-2.11-.55-3.78-1.26-3.78-3.4v0c0-2.27,1.81-3.52,4.27-3.52a8.37,8.37,0,0,1,4.38,1.23l-1.28,2.36a7.31,7.31,0,0,0-3.14-1c-.57,0-.87.22-.87.51v0c0,.42.61.61,1.73,1,2.11.59,3.78,1.31,3.78,3.38v0c0,2.34-1.75,3.56-4.35,3.56A8.57,8.57,0,0,1,158.19,30.83Z"/><path class="cls-2" d="M97.71,42.35h3.74V43.8a3.92,3.92,0,0,1,3.17-1.69,3.26,3.26,0,0,1,3.06,1.73,4.49,4.49,0,0,1,3.56-1.73c2.27,0,3.64,1.42,3.64,3.9v7h-3.73V47.21c0-1.17-.58-1.78-1.46-1.78s-1.53.61-1.53,1.78V53h-3.74V47.21c0-1.17-.57-1.78-1.46-1.78s-1.51.61-1.51,1.78V53H97.71Z"/><path class="cls-2" d="M116.38,47.72v0a5.34,5.34,0,0,1,5.36-5.57c3.68,0,5.37,2.69,5.37,5.82,0,.24,0,.51,0,.77H120a2.19,2.19,0,0,0,2.3,1.75,3.21,3.21,0,0,0,2.36-1.08l2.06,1.71a5.56,5.56,0,0,1-4.62,2.16A5.35,5.35,0,0,1,116.38,47.72Zm7.23-.93a1.89,1.89,0,0,0-1.84-1.93c-1,0-1.66.77-1.85,1.93Z"/><path class="cls-2" d="M129.36,49.68V45.36H128.1v-3h1.26v-2.7h3.73v2.7h2.48v3h-2.48V49c0,.74.34,1.06,1,1.06a3.21,3.21,0,0,0,1.41-.36v2.93a5.25,5.25,0,0,1-2.59.61C130.69,53.2,129.36,52.22,129.36,49.68Z"/><path class="cls-2" d="M136.65,49.94v0c0-2.2,1.67-3.34,4.17-3.34a8.05,8.05,0,0,1,2.56.41v-.18c0-1.1-.69-1.73-2.13-1.73a7.58,7.58,0,0,0-2.93.59L137.56,43a10.54,10.54,0,0,1,4.3-.83,5.47,5.47,0,0,1,4.06,1.3,4.46,4.46,0,0,1,1.14,3.38V53h-3.7v-1.1a4,4,0,0,1-3.13,1.33C138.21,53.22,136.65,52.06,136.65,49.94Zm6.77-.81v-.49a3.92,3.92,0,0,0-1.46-.27c-1.08,0-1.71.53-1.71,1.31v0a1.17,1.17,0,0,0,1.32,1.16A1.71,1.71,0,0,0,143.42,49.13Z"/><path class="cls-2" d="M149,38.63h3.74V53H149Z"/><path class="cls-2" d="M154.86,38.63h3.9v2.75h-3.9Zm.08,3.72h3.74V53h-3.74Z"/><path class="cls-2" d="M160.33,47.72v0A5.53,5.53,0,0,1,166,42.13a5,5,0,0,1,4.54,2.38L168,46.4a2.28,2.28,0,0,0-2-1.12A2.21,2.21,0,0,0,164,47.64v0a2.21,2.21,0,0,0,2.12,2.42,2.56,2.56,0,0,0,2-1.11l2.5,1.81a5.28,5.28,0,0,1-4.74,2.44A5.49,5.49,0,0,1,160.33,47.72Z"/><path class="cls-2" d="M171.42,49.94v0c0-2.2,1.68-3.34,4.17-3.34a8.05,8.05,0,0,1,2.56.41v-.18c0-1.1-.69-1.73-2.12-1.73a7.51,7.51,0,0,0-2.93.59L172.33,43a10.56,10.56,0,0,1,4.31-.83,5.46,5.46,0,0,1,4.05,1.3,4.46,4.46,0,0,1,1.14,3.38V53h-3.7v-1.1A4,4,0,0,1,175,53.22C173,53.22,171.42,52.06,171.42,49.94Zm6.77-.81v-.49a3.88,3.88,0,0,0-1.46-.27c-1.08,0-1.71.53-1.71,1.31v0a1.17,1.17,0,0,0,1.32,1.16A1.71,1.71,0,0,0,178.19,49.13Z"/><path class="cls-2" d="M182.93,51.65l1.39-2.26A7,7,0,0,0,188,50.61c.65,0,1-.2,1-.57v0c0-.41-.59-.59-1.71-.91-2.11-.55-3.78-1.26-3.78-3.4v0c0-2.26,1.81-3.52,4.27-3.52a8.28,8.28,0,0,1,4.38,1.24l-1.27,2.36a7.25,7.25,0,0,0-3.15-1c-.57,0-.87.21-.87.51v0c0,.41.61.61,1.73.94,2.11.59,3.78,1.32,3.78,3.38v0c0,2.34-1.75,3.56-4.35,3.56A8.57,8.57,0,0,1,182.93,51.65Z"/><path class="cls-1" d="M193.69,49.15h3.89V53h-3.89Z"/><path class="cls-1" d="M198.8,47.72v0a5.53,5.53,0,0,1,5.7-5.55,5,5,0,0,1,4.55,2.38l-2.54,1.89a2.29,2.29,0,0,0-2-1.12,2.2,2.2,0,0,0-2.08,2.36v0a2.21,2.21,0,0,0,2.12,2.42A2.56,2.56,0,0,0,206.61,49l2.5,1.81a5.28,5.28,0,0,1-4.74,2.44A5.49,5.49,0,0,1,198.8,47.72Z"/><path class="cls-1" d="M209.7,47.72v0a5.89,5.89,0,0,1,11.76,0v0a5.66,5.66,0,0,1-5.9,5.56A5.6,5.6,0,0,1,209.7,47.72Zm8.12,0v0a2.31,2.31,0,0,0-2.26-2.4,2.23,2.23,0,0,0-2.23,2.36v0a2.32,2.32,0,0,0,2.27,2.4A2.24,2.24,0,0,0,217.82,47.72Z"/><path class="cls-1" d="M223,42.35h3.74V43.8a3.92,3.92,0,0,1,3.16-1.69A3.26,3.26,0,0,1,233,43.84a4.49,4.49,0,0,1,3.56-1.73c2.26,0,3.64,1.42,3.64,3.9v7h-3.74V47.21c0-1.17-.57-1.78-1.45-1.78s-1.54.61-1.54,1.78V53h-3.73V47.21c0-1.17-.57-1.78-1.46-1.78s-1.51.61-1.51,1.78V53H223Z"/><path class="cls-1" d="M242,49.15h3.89V53H242Z"/><path class="cls-1" d="M247.71,42.35h3.74V43.8a3.92,3.92,0,0,1,3.17-1.69,3.26,3.26,0,0,1,3.06,1.73,4.49,4.49,0,0,1,3.56-1.73c2.27,0,3.64,1.42,3.64,3.9v7h-3.73V47.21c0-1.17-.58-1.78-1.46-1.78s-1.53.61-1.53,1.78V53h-3.74V47.21c0-1.17-.57-1.78-1.46-1.78s-1.51.61-1.51,1.78V53h-3.74Z"/><path class="cls-1" d="M269.54,47.62,266,42.35h4L271.63,45l1.57-2.61h3.95l-3.5,5.25L277.23,53h-4l-1.65-2.74L269.9,53H266Z"/><path class="cls-3" d="M59,35H48.25V31H52.4a4.37,4.37,0,0,0,4.36-4.36V21.28a4.37,4.37,0,0,0-4.36-4.36H19.19a4.37,4.37,0,0,0-4.36,4.36v5.34A4.37,4.37,0,0,0,19.19,31h4.47V35H12.94a4.24,4.24,0,0,0-4.23,4.23v.87a4.24,4.24,0,0,0,3.8,4.21v9a1.45,1.45,0,1,0,2.9,0v-9h8.25V49.9a1.45,1.45,0,0,0,2.9,0V44.37H45.35V49.9a1.45,1.45,0,0,0,2.9,0V44.37h8.27v9a1.45,1.45,0,0,0,2.9,0v-9a4.23,4.23,0,0,0,3.77-4.2v-.87A4.24,4.24,0,0,0,59,35ZM45.35,35H26.56V31H45.35Zm-26.16-7a1.45,1.45,0,0,1-1.46-1.45V21.28a1.46,1.46,0,0,1,1.46-1.45H52.4a1.47,1.47,0,0,1,1.46,1.45v5.34a1.45,1.45,0,0,1-1.46,1.45ZM60.28,40.14A1.33,1.33,0,0,1,59,41.47h-46a1.33,1.33,0,0,1-1.32-1.33v-.87A1.33,1.33,0,0,1,12.94,38H59a1.33,1.33,0,0,1,1.32,1.32Z"/><rect class="cls-3" x="22.11" y="21.6" width="3.21" height="1.16"/><rect class="cls-3" x="27.92" y="21.6" width="3.21" height="1.16"/><rect class="cls-3" x="33.72" y="21.6" width="3.21" height="1.16"/><rect class="cls-3" x="39.53" y="21.6" width="3.21" height="1.16"/><rect class="cls-3" x="45.34" y="21.6" width="3.21" height="1.16"/><rect class="cls-3" x="22.11" y="24.51" width="3.21" height="1.16"/><rect class="cls-3" x="27.92" y="24.51" width="3.21" height="1.16"/><rect class="cls-3" x="33.72" y="24.51" width="3.21" height="1.16"/><rect class="cls-3" x="39.53" y="24.51" width="3.21" height="1.16"/><rect class="cls-3" x="45.34" y="24.51" width="3.21" height="1.16"/></g></g></svg>