<svg xmlns="http://www.w3.org/2000/svg" viewBox="0 0 256.51 70.43"><defs><style>.cls-1{fill:#e94e1b;}.cls-2{fill:#1d1d1b;}.cls-3{fill:#fff;}</style></defs><title>Logo_negro</title><g id="Capa_2" data-name="Capa 2"><g id="Capa_2-2" data-name="Capa 2"><circle class="cls-1" cx="35.22" cy="35.22" r="35.22"/><rect class="cls-1" x="81.19" y="6.95" width="4.56" height="56.8"/><path class="cls-2" d="M96.9,28.12h6.95a5,5,0,0,1,3.7,1.22,3,3,0,0,1,.88,2.19v0a3.14,3.14,0,0,1-2.1,3c1.65.54,2.7,1.47,2.7,3.31v0c0,2.33-1.9,3.74-5.14,3.74h-7Zm6,5.4c1.15,0,1.79-.38,1.79-1.18v0c0-.73-.59-1.16-1.71-1.16h-2.44v2.38Zm.54,5.14c1.15,0,1.81-.45,1.81-1.24v0c0-.74-.58-1.22-1.84-1.22h-2.87v2.5Z"/><path class="cls-2" d="M110.11,36.49v0a5.81,5.81,0,0,1,11.59,0v0a5.59,5.59,0,0,1-5.82,5.48A5.53,5.53,0,0,1,110.11,36.49Zm8,0v0a2.27,2.27,0,0,0-2.23-2.36,2.2,2.2,0,0,0-2.19,2.32v0a2.27,2.27,0,0,0,2.23,2.36A2.19,2.19,0,0,0,118.11,36.49Z"/><path class="cls-2" d="M123.32,27.54H127V41.68h-3.68Z"/><path class="cls-2" d="M128.53,38.68v0c0-2.17,1.65-3.3,4.11-3.3a8.12,8.12,0,0,1,2.52.41v-.17c0-1.09-.68-1.71-2.09-1.71a7.52,7.52,0,0,0-2.89.58l-.76-2.59a10.43,10.43,0,0,1,4.25-.82,5.41,5.41,0,0,1,4,1.28,4.4,4.4,0,0,1,1.12,3.33v6h-3.64V40.6a4,4,0,0,1-3.08,1.31C130.06,41.91,128.53,40.77,128.53,38.68Zm6.67-.8V37.4a3.77,3.77,0,0,0-1.44-.27c-1.06,0-1.68.52-1.68,1.3v0a1.16,1.16,0,0,0,1.3,1.14A1.69,1.69,0,0,0,135.2,37.88Z"/><path class="cls-2" d="M140.66,31.2h3.68v2.11A3.22,3.22,0,0,1,147.65,31V34.9h-.31c-1.91,0-3,1.1-3,3.53v3.25h-3.68Z"/><path class="cls-2" d="M148.37,36.49v0C148.37,33,150.5,31,153,31a4,4,0,0,1,3.22,1.51V27.54h3.68V41.68H156.2V40.29a3.89,3.89,0,0,1-3.2,1.62C150.52,41.91,148.37,39.84,148.37,36.49Zm7.89,0v0a2.15,2.15,0,1,0-4.29,0v0a2.16,2.16,0,1,0,4.29,0Z"/><path class="cls-2" d="M161.42,36.49v0A5.58,5.58,0,0,1,167.24,31,5.53,5.53,0,0,1,173,36.41v0a5.81,5.81,0,0,1-11.59,0Zm8,0v0a2.27,2.27,0,0,0-2.23-2.36A2.19,2.19,0,0,0,165,36.41v0a2.27,2.27,0,0,0,2.23,2.36A2.19,2.19,0,0,0,169.43,36.49Z"/><path class="cls-1" d="M174.21,37.9h3.84v3.78h-3.84Z"/><path class="cls-1" d="M179.25,36.49v0A5.44,5.44,0,0,1,184.87,31a5,5,0,0,1,4.47,2.35l-2.5,1.86a2.24,2.24,0,0,0-2-1.1,2.17,2.17,0,0,0-2.06,2.32v0a2.18,2.18,0,0,0,2.1,2.38,2.49,2.49,0,0,0,2-1.08l2.46,1.78a5.18,5.18,0,0,1-4.67,2.4A5.4,5.4,0,0,1,179.25,36.49Z"/><path class="cls-1" d="M190,36.49v0a5.81,5.81,0,0,1,11.59,0v0a5.58,5.58,0,0,1-5.82,5.48A5.53,5.53,0,0,1,190,36.49Zm8,0v0a2.27,2.27,0,0,0-2.23-2.36,2.19,2.19,0,0,0-2.18,2.32v0a2.27,2.27,0,0,0,2.22,2.36A2.19,2.19,0,0,0,198,36.49Z"/><path class="cls-1" d="M203.11,31.2h3.69v1.43A3.83,3.83,0,0,1,209.92,31a3.22,3.22,0,0,1,3,1.7,4.4,4.4,0,0,1,3.51-1.7c2.23,0,3.58,1.39,3.58,3.83v6.88h-3.68V36c0-1.14-.56-1.74-1.43-1.74s-1.52.6-1.52,1.74v5.7h-3.68V36c0-1.14-.56-1.74-1.43-1.74s-1.49.6-1.49,1.74v5.7h-3.69Z"/><path class="cls-1" d="M221.77,37.9h3.84v3.78h-3.84Z"/><path class="cls-1" d="M227.43,31.2h3.68v1.43A3.86,3.86,0,0,1,234.23,31a3.22,3.22,0,0,1,3,1.7,4.4,4.4,0,0,1,3.51-1.7c2.23,0,3.58,1.39,3.58,3.83v6.88h-3.68V36c0-1.14-.56-1.74-1.43-1.74s-1.51.6-1.51,1.74v5.7H234V36c0-1.14-.57-1.74-1.44-1.74s-1.49.6-1.49,1.74v5.7h-3.68Z"/><path class="cls-1" d="M248.93,36.39l-3.47-5.19h4L251,33.78l1.55-2.58h3.89L253,36.37l3.53,5.31h-4L250.93,39l-1.65,2.69H245.4Z"/><path class="cls-3" d="M36.47,9.39h-2.6a7.78,7.78,0,0,0-7.77,7.77v39.9a3.78,3.78,0,0,0,3.78,3.77H40.46a3.77,3.77,0,0,0,3.78-3.77V17.16A7.77,7.77,0,0,0,36.47,9.39ZM29.1,17.16a4.78,4.78,0,0,1,4.77-4.77h2.6a4.78,4.78,0,0,1,4.77,4.77V19.5H29.1Zm0,5.48H41.24V26.4H29.1ZM41.24,57.06a.77.77,0,0,1-.78.77H29.88a.77.77,0,0,1-.78-.77V54.75H41.24Zm0-5.45H29.1V29.54H41.24Z"/></g></g></svg>