<svg xmlns="http://www.w3.org/2000/svg" viewBox="0 0 238.15 69.41"><defs><style>.cls-1{fill:#1d1d1b;}.cls-2{fill:#e71d73;}.cls-3{fill:#fff;}</style></defs><title>logo_negro</title><g id="Capa_2" data-name="Capa 2"><g id="Capa_1-2" data-name="Capa 1"><path class="cls-1" d="M97.06,7.06h6.73a4.83,4.83,0,0,1,3.58,1.18,2.86,2.86,0,0,1,.85,2.12v0a3.05,3.05,0,0,1-2,2.93c1.59.52,2.61,1.42,2.61,3.2v0c0,2.25-1.84,3.62-5,3.62H97.06Zm5.83,5.23c1.11,0,1.73-.38,1.73-1.15v0c0-.72-.57-1.13-1.65-1.13H100.6v2.31Zm.53,5c1.1,0,1.74-.44,1.74-1.2v0c0-.71-.56-1.18-1.78-1.18H100.6v2.42Z"/><path class="cls-1" d="M109.85,15.16v0a5.61,5.61,0,0,1,11.21,0v0a5.62,5.62,0,0,1-11.21,0Zm7.74,0v0a2.2,2.2,0,0,0-2.15-2.29,2.12,2.12,0,0,0-2.12,2.25v0a2.2,2.2,0,0,0,2.15,2.29A2.13,2.13,0,0,0,117.59,15.16Z"/><path class="cls-1" d="M123.09,17V12.91h-1.2V10h1.2V7.47h3.56V10H129v2.87h-2.36v3.43c0,.71.32,1,1,1A3.07,3.07,0,0,0,129,17v2.8a5.12,5.12,0,0,1-2.47.58C124.36,20.39,123.09,19.45,123.09,17Z"/><path class="cls-1" d="M129.86,15.16v0A5.09,5.09,0,0,1,135,9.81c3.5,0,5.11,2.57,5.11,5.55,0,.23,0,.49,0,.73h-6.79a2.09,2.09,0,0,0,2.19,1.67,3.06,3.06,0,0,0,2.25-1l2,1.63a5.3,5.3,0,0,1-4.41,2.06A5.1,5.1,0,0,1,129.86,15.16Zm6.9-.89A1.81,1.81,0,0,0,135,12.44c-.93,0-1.57.73-1.76,1.83Z"/><path class="cls-1" d="M140.85,18.91l1.33-2.16a6.55,6.55,0,0,0,3.48,1.16c.62,0,.9-.19.9-.54v0c0-.39-.56-.56-1.63-.86-2-.53-3.6-1.2-3.6-3.25v0c0-2.16,1.73-3.36,4.07-3.36A7.92,7.92,0,0,1,149.58,11l-1.22,2.25a6.87,6.87,0,0,0-3-.94c-.54,0-.82.21-.82.49v0c0,.39.58.58,1.65.9,2,.56,3.6,1.26,3.6,3.22v0c0,2.23-1.67,3.4-4.14,3.4A8.18,8.18,0,0,1,140.85,18.91Z"/><path class="cls-1" d="M156.45,10H160v1.35a3.71,3.71,0,0,1,3.07-1.58c2.42,0,4.5,2,4.5,5.25v0c0,3.3-2.08,5.31-4.48,5.31A3.82,3.82,0,0,1,160,18.94v4.24h-3.56Zm7.63,5.08v0a2.09,2.09,0,1,0-4.15,0v0a2.09,2.09,0,1,0,4.15,0Z"/><path class="cls-1" d="M168.62,17.27v0c0-2.1,1.59-3.19,4-3.19a8,8,0,0,1,2.44.39v-.17c0-1-.66-1.65-2-1.65a7.09,7.09,0,0,0-2.79.57l-.73-2.52a10.33,10.33,0,0,1,4.11-.78,5.25,5.25,0,0,1,3.86,1.23,4.24,4.24,0,0,1,1.09,3.23v5.83H175V19.13a3.82,3.82,0,0,1-3,1.28C170.1,20.41,168.62,19.3,168.62,17.27Zm6.45-.76V16a3.78,3.78,0,0,0-1.39-.27c-1,0-1.63.51-1.63,1.26v0a1.11,1.11,0,0,0,1.25,1.1A1.63,1.63,0,0,0,175.07,16.51Z"/><path class="cls-1" d="M180.36,10h3.56v2a3.09,3.09,0,0,1,3.2-2.21v3.75h-.3c-1.85,0-2.9,1.07-2.9,3.41v3.15h-3.56Z"/><path class="cls-1" d="M187.41,17.27v0c0-2.1,1.59-3.19,4-3.19a8,8,0,0,1,2.44.39v-.17c0-1-.66-1.65-2-1.65a7.09,7.09,0,0,0-2.79.57l-.73-2.52a10.33,10.33,0,0,1,4.11-.78,5.25,5.25,0,0,1,3.86,1.23,4.24,4.24,0,0,1,1.09,3.23v5.83H193.8V19.13a3.82,3.82,0,0,1-3,1.28C188.89,20.41,187.41,19.3,187.41,17.27Zm6.45-.76V16a3.78,3.78,0,0,0-1.39-.27c-1,0-1.63.51-1.63,1.26v0a1.11,1.11,0,0,0,1.25,1.1A1.63,1.63,0,0,0,193.86,16.51Z"/><path class="cls-1" d="M96.48,35v0c0-3.3,2.06-5.3,4.46-5.3a3.86,3.86,0,0,1,3.11,1.46V26.35h3.57V40h-3.57V38.69A3.75,3.75,0,0,1,101,40.26C98.56,40.26,96.48,38.25,96.48,35Zm7.63,0v0a2.08,2.08,0,1,0-4.14,0v0a2.08,2.08,0,1,0,4.14,0Z"/><path class="cls-1" d="M109.12,35v0a5.09,5.09,0,0,1,5.12-5.3c3.5,0,5.12,2.57,5.12,5.55,0,.22,0,.48,0,.73h-6.79a2.1,2.1,0,0,0,2.19,1.67,3.06,3.06,0,0,0,2.25-1l2,1.63a5.32,5.32,0,0,1-4.4,2.06A5.11,5.11,0,0,1,109.12,35Zm6.9-.88a1.81,1.81,0,0,0-1.77-1.84c-.93,0-1.57.73-1.76,1.84Z"/><path class="cls-1" d="M120.1,38.76l1.34-2.16a6.57,6.57,0,0,0,3.48,1.17c.62,0,.9-.19.9-.55v0c0-.4-.56-.57-1.63-.87-2-.52-3.6-1.2-3.6-3.24v0c0-2.15,1.73-3.35,4.07-3.35a7.92,7.92,0,0,1,4.18,1.18l-1.22,2.25a6.87,6.87,0,0,0-3-.94c-.54,0-.82.21-.82.49v0c0,.4.58.59,1.65.9,2,.57,3.6,1.26,3.6,3.23v0c0,2.23-1.67,3.39-4.15,3.39A8.22,8.22,0,0,1,120.1,38.76Z"/><path class="cls-1" d="M130.1,35v0a5.09,5.09,0,0,1,5.12-5.3c3.51,0,5.12,2.57,5.12,5.55,0,.22,0,.48,0,.73h-6.79a2.1,2.1,0,0,0,2.2,1.67,3.05,3.05,0,0,0,2.24-1l2,1.63a5.32,5.32,0,0,1-4.4,2.06A5.11,5.11,0,0,1,130.1,35Zm6.9-.88c-.13-1.13-.79-1.84-1.76-1.84s-1.58.73-1.76,1.84Z"/><path class="cls-1" d="M141.45,35v0a5.26,5.26,0,0,1,5.43-5.28A4.81,4.81,0,0,1,151.21,32l-2.41,1.8a2.21,2.21,0,0,0-1.9-1.06,2.11,2.11,0,0,0-2,2.25v0a2.11,2.11,0,0,0,2,2.31,2.42,2.42,0,0,0,1.95-1.05L151.27,38a5,5,0,0,1-4.52,2.33A5.23,5.23,0,0,1,141.45,35Z"/><path class="cls-1" d="M152.53,26.35h3.56v4.93a3.74,3.74,0,0,1,3-1.61c2.15,0,3.45,1.42,3.45,3.73V40H159v-5.5c0-1.1-.58-1.7-1.42-1.7a1.5,1.5,0,0,0-1.5,1.7V40h-3.56Z"/><path class="cls-1" d="M164,35v0a5.62,5.62,0,0,1,11.22,0v0a5.41,5.41,0,0,1-5.63,5.31A5.36,5.36,0,0,1,164,35Zm7.75,0v0a2.2,2.2,0,0,0-2.16-2.28,2.13,2.13,0,0,0-2.12,2.25v0a2.2,2.2,0,0,0,2.16,2.29A2.13,2.13,0,0,0,171.75,35Z"/><path class="cls-1" d="M175.91,38.76l1.33-2.16a6.6,6.6,0,0,0,3.49,1.17c.62,0,.9-.19.9-.55v0c0-.4-.56-.57-1.63-.87-2-.52-3.6-1.2-3.6-3.24v0c0-2.15,1.72-3.35,4.07-3.35a7.92,7.92,0,0,1,4.18,1.18l-1.22,2.25a6.87,6.87,0,0,0-3-.94c-.54,0-.83.21-.83.49v0c0,.4.59.59,1.66.9,2,.57,3.6,1.26,3.6,3.23v0c0,2.23-1.67,3.39-4.15,3.39A8.2,8.2,0,0,1,175.91,38.76Z"/><path class="cls-1" d="M191.14,35v0c0-3.3,2.06-5.3,4.46-5.3a3.86,3.86,0,0,1,3.11,1.46V26.35h3.56V40h-3.56V38.69a3.75,3.75,0,0,1-3.09,1.57C193.22,40.26,191.14,38.25,191.14,35Zm7.63,0v0a2.09,2.09,0,1,0-4.15,0v0a2.09,2.09,0,1,0,4.15,0Z"/><path class="cls-1" d="M203.78,35v0a5.09,5.09,0,0,1,5.12-5.3c3.5,0,5.11,2.57,5.11,5.55,0,.22,0,.48,0,.73h-6.78a2.1,2.1,0,0,0,2.19,1.67,3.06,3.06,0,0,0,2.25-1l2,1.63a5.32,5.32,0,0,1-4.41,2.06A5.1,5.1,0,0,1,203.78,35Zm6.9-.88c-.14-1.13-.79-1.84-1.77-1.84s-1.57.73-1.76,1.84Z"/><path class="cls-1" d="M96.85,49.75h3.57V51.1a3.69,3.69,0,0,1,3.07-1.58c2.42,0,4.5,2,4.5,5.25v0c0,3.3-2.08,5.31-4.48,5.31a3.79,3.79,0,0,1-3.09-1.47v4.24H96.85Zm7.63,5.08v0a2.08,2.08,0,1,0-4.14,0v0a2.08,2.08,0,1,0,4.14,0Z"/><path class="cls-1" d="M109.12,54.87v0a5.09,5.09,0,0,1,5.12-5.31c3.5,0,5.12,2.57,5.12,5.55,0,.23,0,.49,0,.73h-6.79a2.09,2.09,0,0,0,2.19,1.67,3.06,3.06,0,0,0,2.25-1l2,1.63a5.3,5.3,0,0,1-4.4,2.07A5.11,5.11,0,0,1,109.12,54.87ZM116,54a1.81,1.81,0,0,0-1.77-1.83c-.93,0-1.57.73-1.76,1.83Z"/><path class="cls-1" d="M120.87,49.75h3.57v2a3.09,3.09,0,0,1,3.2-2.21v3.75h-.3c-1.85,0-2.9,1.07-2.9,3.41v3.15h-3.57Z"/><path class="cls-1" d="M128.9,49.75h3.56v2a3.1,3.1,0,0,1,3.21-2.21v3.75h-.3c-1.86,0-2.91,1.07-2.91,3.41v3.15H128.9Z"/><path class="cls-1" d="M136.33,54.87v0a5.61,5.61,0,0,1,11.21,0v0a5.61,5.61,0,0,1-11.21,0Zm7.74,0v0a2.2,2.2,0,0,0-2.16-2.29,2.12,2.12,0,0,0-2.11,2.25v0A2.19,2.19,0,0,0,142,57.12,2.13,2.13,0,0,0,144.07,54.87Z"/><path class="cls-1" d="M148.23,58.62l1.33-2.16a6.6,6.6,0,0,0,3.49,1.16c.62,0,.9-.18.9-.54v0c0-.39-.56-.56-1.63-.86-2-.53-3.6-1.2-3.6-3.24v0c0-2.16,1.73-3.36,4.07-3.36A7.92,7.92,0,0,1,157,50.72L155.75,53a6.84,6.84,0,0,0-3-.93c-.54,0-.82.2-.82.48v0c0,.39.58.58,1.65.9,2,.56,3.6,1.26,3.6,3.22v0c0,2.23-1.67,3.4-4.15,3.4A8.22,8.22,0,0,1,148.23,58.62Z"/><path class="cls-2" d="M158.49,56.24h3.71v3.65h-3.71Z"/><path class="cls-2" d="M163.37,54.87v0a5.27,5.27,0,0,1,5.43-5.29,4.81,4.81,0,0,1,4.34,2.27l-2.42,1.8a2.2,2.2,0,0,0-1.9-1.07,2.1,2.1,0,0,0-2,2.25v0a2.11,2.11,0,0,0,2,2.31,2.43,2.43,0,0,0,1.95-1.06l2.38,1.73a5,5,0,0,1-4.52,2.33A5.23,5.23,0,0,1,163.37,54.87Z"/><path class="cls-2" d="M173.75,54.87v0a5.41,5.41,0,0,1,5.63-5.31A5.36,5.36,0,0,1,185,54.79v0a5.62,5.62,0,0,1-11.22,0Zm7.75,0v0a2.2,2.2,0,0,0-2.16-2.29,2.13,2.13,0,0,0-2.12,2.25v0a2.2,2.2,0,0,0,2.16,2.29A2.13,2.13,0,0,0,181.5,54.87Z"/><path class="cls-2" d="M186.47,49.75H190v1.39a3.71,3.71,0,0,1,3-1.62A3.12,3.12,0,0,1,196,51.17a4.27,4.27,0,0,1,3.39-1.65c2.16,0,3.47,1.35,3.47,3.72v6.65h-3.57V54.38c0-1.11-.54-1.69-1.38-1.69s-1.47.58-1.47,1.69v5.51h-3.56V54.38c0-1.11-.54-1.69-1.39-1.69s-1.44.58-1.44,1.69v5.51h-3.56Z"/><path class="cls-2" d="M204.53,56.24h3.71v3.65h-3.71Z"/><path class="cls-2" d="M210,49.75h3.57v1.39a3.7,3.7,0,0,1,3-1.62,3.11,3.11,0,0,1,2.93,1.65,4.27,4.27,0,0,1,3.39-1.65c2.16,0,3.47,1.35,3.47,3.72v6.65h-3.56V54.38c0-1.11-.55-1.69-1.39-1.69s-1.46.58-1.46,1.69v5.51H216.4V54.38c0-1.11-.55-1.69-1.39-1.69s-1.44.58-1.44,1.69v5.51H210Z"/><path class="cls-2" d="M230.82,54.77l-3.36-5h3.84l1.5,2.49,1.5-2.49h3.77l-3.33,5,3.41,5.14h-3.83l-1.57-2.61-1.6,2.61H227.4Z"/><circle class="cls-2" cx="34.71" cy="34.71" r="34.71"/><rect class="cls-2" x="80.1" y="6.73" width="4.49" height="55.9"/><path class="cls-3" d="M45.24,59.79h-20a8.19,8.19,0,0,1-8.18-8.19V23a1.12,1.12,0,0,1,1.12-1.12H52.3A1.13,1.13,0,0,1,53.43,23V51.6A8.2,8.2,0,0,1,45.24,59.79ZM19.29,24.16V51.6a6,6,0,0,0,5.94,5.94h20a5.94,5.94,0,0,0,5.94-5.94V24.16Z"/><path class="cls-3" d="M18.19,20.46a1.1,1.1,0,0,1-1.11-1L17,18.94A8.2,8.2,0,0,1,24.12,9.8l4-.51a1.14,1.14,0,0,1,1.23.85,1.13,1.13,0,0,1-.82,1.36.73.73,0,0,1-.25,0L24.4,12a5.95,5.95,0,0,0-5.21,6.06l31.59-3.92a5.94,5.94,0,0,0-6.53-4.61l-4.2.52a1.12,1.12,0,1,1-.28-2.22L44,7.33a8.19,8.19,0,0,1,9.13,7.12l.08.54a1.15,1.15,0,0,1-.23.84,1.1,1.1,0,0,1-.75.42L18.33,20.46Z"/><path class="cls-3" d="M28.3,11.54a1.13,1.13,0,0,1-1.12-1l-.07-.6A3.39,3.39,0,0,1,30,6.2l7.15-.89A3.34,3.34,0,0,1,39.68,6,3.38,3.38,0,0,1,41,8.24l.07.59a1.13,1.13,0,0,1-1,1.26,1.14,1.14,0,0,1-1.25-1l-.07-.6a1.16,1.16,0,0,0-.42-.74,1.1,1.1,0,0,0-.83-.23l-7.15.88a1.15,1.15,0,0,0-1,1.27l.07.59a1.11,1.11,0,0,1-1,1.25Z"/><path class="cls-3" d="M38.82,51.36a4.08,4.08,0,0,1-.77-.07A6.35,6.35,0,0,1,37,51a6.91,6.91,0,0,0-4.49,0A4.58,4.58,0,0,1,29,50.92a3.54,3.54,0,0,1-1.72-2.22,5.16,5.16,0,0,1-.14-.68L27,47.76v-.09A5.69,5.69,0,0,1,28.61,44c1-1.14,1.9-2.17,2.73-3.27A4.48,4.48,0,0,1,35,38.62a4.45,4.45,0,0,1,3.55,2.26c.35.5.74,1,1.15,1.46A19.08,19.08,0,0,1,41,44.05a8.29,8.29,0,0,1,1.49,3.18,3.51,3.51,0,0,1-1,3.09A3.81,3.81,0,0,1,38.82,51.36Zm-4-2.35a8.21,8.21,0,0,1,2.68.46,6,6,0,0,0,.84.2,2.24,2.24,0,0,0,2-.54,1.88,1.88,0,0,0,.53-1.65A7,7,0,0,0,39.63,45a18.91,18.91,0,0,0-1.22-1.56c-.42-.5-.86-1-1.25-1.59a3.09,3.09,0,0,0-2.23-1.54,3,3,0,0,0-2.27,1.42c-.87,1.14-1.78,2.2-2.81,3.36a4.11,4.11,0,0,0-1.14,2.59v.11c0,.14.05.31.1.47a1.89,1.89,0,0,0,.91,1.23,3,3,0,0,0,2.27,0A9.36,9.36,0,0,1,34.84,49Z"/><path class="cls-3" d="M38.63,38.91a2.52,2.52,0,0,1-.67-.09,3,3,0,0,1-2.11-2.16,4.88,4.88,0,0,1,.43-3.86,3.41,3.41,0,0,1,3.71-2,3.52,3.52,0,0,1,2.33,3.58v.06a5,5,0,0,1-1.47,3.5A3.2,3.2,0,0,1,38.63,38.91Zm.7-6.54a2,2,0,0,0-1.59,1.21,3.21,3.21,0,0,0-.31,2.6,1.26,1.26,0,0,0,2.26.57,3.47,3.47,0,0,0,1-2.38,2,2,0,0,0-1.09-2Z"/><path class="cls-3" d="M31.84,38.63a3,3,0,0,1-2.43-1.39,4.69,4.69,0,0,1-.63-4.7,2.93,2.93,0,0,1,2-1.88,3,3,0,0,1,2.68.83,4.93,4.93,0,0,1,1.39,3.59l0,.25a5,5,0,0,1-.12.81,3,3,0,0,1-2.33,2.43A2.74,2.74,0,0,1,31.84,38.63Zm-.44-6.38-.21,0a1.37,1.37,0,0,0-.88.88,3.07,3.07,0,0,0,.44,3.12c.54.74,1,.75,1.35.68s.81-.29,1.07-1.25a3.11,3.11,0,0,0,.06-.49c0-.06,0-.13,0-.18a3.28,3.28,0,0,0-.85-2.33A1.53,1.53,0,0,0,31.4,32.25Z"/><path class="cls-3" d="M43.52,43.72a2.68,2.68,0,0,1-1.18-.27A2.93,2.93,0,0,1,40.8,40.9a4.23,4.23,0,0,1,1.65-3.61,2.85,2.85,0,0,1,3.15-.55,2.72,2.72,0,0,1,1.6,2.73,4.2,4.2,0,0,1-2,3.7A3.1,3.1,0,0,1,43.52,43.72Zm.95-5.59a1.63,1.63,0,0,0-1,.45,2.56,2.56,0,0,0-1,2.24A1.28,1.28,0,0,0,43.08,42a1.22,1.22,0,0,0,1.24-.17,2.52,2.52,0,0,0,1.22-2.34V39.4a1.06,1.06,0,0,0-.66-1.16A.93.93,0,0,0,44.47,38.13Z"/><path class="cls-3" d="M26.79,43.16a3.11,3.11,0,0,1-2.25-1.08,4.27,4.27,0,0,1-1.2-3.54A2.87,2.87,0,0,1,25,36.17a2.84,2.84,0,0,1,2.85.4A4.21,4.21,0,0,1,29.57,40v0A2.86,2.86,0,0,1,27.83,43,2.75,2.75,0,0,1,26.79,43.16ZM26,37.6a1,1,0,0,0-.38.08,1.23,1.23,0,0,0-.65,1,2.58,2.58,0,0,0,.74,2.21c.67.69,1.12.63,1.48.49s.69-.46.7-1.38a2.55,2.55,0,0,0-1.05-2.13A1.48,1.48,0,0,0,26,37.6Z"/></g></g></svg>