<svg xmlns="http://www.w3.org/2000/svg" viewBox="0 0 306.28 71.68"><defs><style>.cls-1{fill:#943850;}.cls-2{fill:#1d1d1b;}.cls-3{fill:#fff;}</style></defs><title>Logo_negro</title><g id="Capa_2" data-name="Capa 2"><g id="Capa_2-2" data-name="Capa 2"><circle class="cls-1" cx="35.84" cy="35.84" r="35.84"/><rect class="cls-1" x="81.95" y="6.52" width="4.64" height="57.8"/><path class="cls-2" d="M97.16,17.27h7.08A5.09,5.09,0,0,1,108,18.52a3,3,0,0,1,.88,2.22v0a3.19,3.19,0,0,1-2.13,3.08c1.68.55,2.74,1.5,2.74,3.37v0c0,2.36-1.93,3.8-5.22,3.8H97.16Zm6.14,5.5c1.16,0,1.81-.39,1.81-1.2v0c0-.75-.59-1.18-1.74-1.18h-2.48v2.42Zm.55,5.23c1.16,0,1.83-.45,1.83-1.26v0c0-.75-.59-1.24-1.87-1.24h-2.92V28Z"/><path class="cls-2" d="M110.61,25.79v0a5.91,5.91,0,0,1,11.79,0v0a5.68,5.68,0,0,1-5.92,5.58A5.62,5.62,0,0,1,110.61,25.79Zm8.14,0v0a2.3,2.3,0,0,0-2.27-2.4,2.22,2.22,0,0,0-2.22,2.36v0a2.31,2.31,0,0,0,2.26,2.41A2.24,2.24,0,0,0,118.75,25.79Z"/><path class="cls-2" d="M124.53,27.76V23.43h-1.26v-3h1.26v-2.7h3.74v2.7h2.49v3h-2.49V27c0,.75.34,1.07,1,1.07a3.28,3.28,0,0,0,1.42-.36v2.94a5.4,5.4,0,0,1-2.6.61C125.87,31.29,124.53,30.3,124.53,27.76Z"/><path class="cls-2" d="M131.65,25.79v0A5.35,5.35,0,0,1,137,20.17c3.68,0,5.38,2.7,5.38,5.84,0,.23,0,.51,0,.77h-7.14a2.21,2.21,0,0,0,2.31,1.75,3.18,3.18,0,0,0,2.36-1.08L142,29.16a5.58,5.58,0,0,1-4.63,2.17A5.36,5.36,0,0,1,131.65,25.79Zm7.25-.93c-.14-1.18-.83-1.93-1.85-1.93s-1.66.77-1.86,1.93Z"/><path class="cls-2" d="M143.2,29.73l1.4-2.26a7,7,0,0,0,3.66,1.22c.66,0,1-.2,1-.57v0c0-.42-.59-.59-1.71-.91-2.11-.55-3.79-1.26-3.79-3.41v0c0-2.27,1.81-3.53,4.28-3.53a8.38,8.38,0,0,1,4.39,1.24L151.1,23.8a7.2,7.2,0,0,0-3.15-1c-.57,0-.87.22-.87.52v0c0,.41.61.61,1.74.94,2.11.59,3.78,1.32,3.78,3.39v0c0,2.35-1.75,3.57-4.36,3.57A8.56,8.56,0,0,1,143.2,29.73Z"/><path class="cls-2" d="M159.21,25.79v0c0-3.47,2.17-5.58,4.69-5.58a4.06,4.06,0,0,1,3.27,1.54v-5h3.75V31.07h-3.75V29.65a3.94,3.94,0,0,1-3.25,1.66C161.4,31.31,159.21,29.2,159.21,25.79Zm8,0v0a2.19,2.19,0,1,0-4.36,0v0a2.19,2.19,0,1,0,4.36,0Z"/><path class="cls-2" d="M172.5,25.79v0a5.35,5.35,0,0,1,5.38-5.58c3.68,0,5.38,2.7,5.38,5.84,0,.23,0,.51,0,.77H176.1a2.21,2.21,0,0,0,2.31,1.75,3.18,3.18,0,0,0,2.36-1.08l2.07,1.71a5.58,5.58,0,0,1-4.63,2.17A5.36,5.36,0,0,1,172.5,25.79Zm7.25-.93c-.14-1.18-.83-1.93-1.85-1.93s-1.66.77-1.86,1.93Z"/><path class="cls-2" d="M194.06,29.77v1.3h-3.74V16.68h3.74v5.15a3.92,3.92,0,0,1,3.24-1.66c2.54,0,4.73,2.11,4.73,5.52v0c0,3.47-2.19,5.58-4.71,5.58A4,4,0,0,1,194.06,29.77Zm4.28-4v0a2.19,2.19,0,1,0-4.36,0v0a2.19,2.19,0,1,0,4.36,0Z"/><path class="cls-2" d="M203.11,28v0c0-2.21,1.68-3.35,4.18-3.35a8.05,8.05,0,0,1,2.56.41v-.18c0-1.1-.69-1.73-2.12-1.73a7.56,7.56,0,0,0-2.94.59L204,21.08a10.74,10.74,0,0,1,4.32-.83,5.52,5.52,0,0,1,4.06,1.3,4.46,4.46,0,0,1,1.14,3.39v6.13h-3.71V30a4,4,0,0,1-3.13,1.34C204.67,31.31,203.11,30.15,203.11,28Zm6.78-.81v-.49a3.83,3.83,0,0,0-1.46-.28c-1.08,0-1.71.53-1.71,1.32v0A1.17,1.17,0,0,0,208,29,1.71,1.71,0,0,0,209.89,27.21Z"/><path class="cls-2" d="M214.64,29.73l1.4-2.26a7,7,0,0,0,3.67,1.22c.65,0,.95-.2.95-.57v0c0-.42-.59-.59-1.72-.91-2.11-.55-3.78-1.26-3.78-3.41v0c0-2.27,1.81-3.53,4.28-3.53a8.41,8.41,0,0,1,4.39,1.24l-1.28,2.37a7.24,7.24,0,0,0-3.15-1c-.58,0-.87.22-.87.52v0c0,.41.61.61,1.73.94,2.11.59,3.79,1.32,3.79,3.39v0c0,2.35-1.76,3.57-4.36,3.57A8.59,8.59,0,0,1,214.64,29.73Z"/><path class="cls-2" d="M225.51,27.39v-7h3.74v5.77c0,1.17.61,1.8,1.52,1.8s1.56-.63,1.56-1.8V20.41h3.74V31.07h-3.74V29.62a3.94,3.94,0,0,1-3.19,1.69C226.87,31.31,225.51,29.81,225.51,27.39Z"/><path class="cls-2" d="M238.09,20.41h3.74v2.15a3.27,3.27,0,0,1,3.37-2.33v3.94h-.31c-2,0-3.06,1.13-3.06,3.59v3.31h-3.74Z"/><path class="cls-2" d="M245.5,28v0c0-2.21,1.67-3.35,4.18-3.35a8.1,8.1,0,0,1,2.56.41v-.18c0-1.1-.69-1.73-2.13-1.73a7.63,7.63,0,0,0-2.94.59l-.77-2.64a10.81,10.81,0,0,1,4.32-.83,5.5,5.5,0,0,1,4.06,1.3,4.46,4.46,0,0,1,1.15,3.39v6.13h-3.71V30a4,4,0,0,1-3.13,1.34C247.06,31.31,245.5,30.15,245.5,28Zm6.78-.81v-.49a3.87,3.87,0,0,0-1.46-.28c-1.08,0-1.71.53-1.71,1.32v0A1.17,1.17,0,0,0,250.43,29,1.71,1.71,0,0,0,252.28,27.21Z"/><path class="cls-2" d="M263.3,20.41h3.75v1.42a3.9,3.9,0,0,1,3.23-1.66c2.54,0,4.73,2.11,4.73,5.52v0c0,3.47-2.19,5.58-4.71,5.58a4,4,0,0,1-3.25-1.54v4.46H263.3Zm8,5.34v0a2.19,2.19,0,1,0-4.35,0v0a2.19,2.19,0,1,0,4.35,0Z"/><path class="cls-2" d="M276.1,28v0c0-2.21,1.67-3.35,4.17-3.35a8.12,8.12,0,0,1,2.57.41v-.18c0-1.1-.69-1.73-2.13-1.73a7.63,7.63,0,0,0-2.94.59L277,21.08a10.78,10.78,0,0,1,4.32-.83,5.52,5.52,0,0,1,4.06,1.3,4.46,4.46,0,0,1,1.14,3.39v6.13h-3.7V30a4,4,0,0,1-3.14,1.34C277.65,31.31,276.1,30.15,276.1,28Zm6.78-.81v-.49a3.91,3.91,0,0,0-1.46-.28c-1.09,0-1.72.53-1.72,1.32v0A1.17,1.17,0,0,0,281,29,1.72,1.72,0,0,0,282.88,27.21Z"/><path class="cls-2" d="M288.44,20.41h3.74v2.15a3.27,3.27,0,0,1,3.37-2.33v3.94h-.31c-1.95,0-3.06,1.13-3.06,3.59v3.31h-3.74Z"/><path class="cls-2" d="M295.85,28v0c0-2.21,1.68-3.35,4.18-3.35a8.1,8.1,0,0,1,2.56.41v-.18c0-1.1-.69-1.73-2.13-1.73a7.55,7.55,0,0,0-2.93.59l-.77-2.64a10.73,10.73,0,0,1,4.31-.83,5.48,5.48,0,0,1,4.06,1.3,4.46,4.46,0,0,1,1.15,3.39v6.13h-3.71V30a4,4,0,0,1-3.13,1.34C297.41,31.31,295.85,30.15,295.85,28Zm6.78-.81v-.49a3.87,3.87,0,0,0-1.46-.28c-1.08,0-1.71.53-1.71,1.32v0A1.17,1.17,0,0,0,300.78,29,1.71,1.71,0,0,0,302.63,27.21Z"/><path class="cls-2" d="M96.85,53.92l1.2-2.48a7.37,7.37,0,0,0,3.73,1c1.87,0,2.8-.93,2.8-2.62v-.41a4.16,4.16,0,0,1-3.3,1.59,4.64,4.64,0,0,1-4.73-5v0a4.65,4.65,0,0,1,4.62-5,4.29,4.29,0,0,1,3.35,1.5V41.28h3.74v8.11a5.64,5.64,0,0,1-1.38,4.25c-1,1-2.46,1.5-4.69,1.5A11.4,11.4,0,0,1,96.85,53.92Zm7.73-7.87v0a2,2,0,0,0-2.17-2A2.07,2.07,0,0,0,100.22,46v0a2.18,2.18,0,0,0,4.36,0Z"/><path class="cls-2" d="M109.74,48.89v0c0-2.2,1.68-3.35,4.18-3.35a8,8,0,0,1,2.56.42v-.18c0-1.1-.69-1.74-2.12-1.74a7.39,7.39,0,0,0-2.94.6L110.65,42a10.75,10.75,0,0,1,4.32-.82,5.47,5.47,0,0,1,4.06,1.3,4.45,4.45,0,0,1,1.14,3.39V52h-3.71V50.84a4,4,0,0,1-3.13,1.34C111.3,52.18,109.74,51,109.74,48.89Zm6.78-.81v-.49a3.84,3.84,0,0,0-1.46-.27c-1.08,0-1.71.53-1.71,1.32v0a1.17,1.17,0,0,0,1.32,1.16A1.71,1.71,0,0,0,116.52,48.08Z"/><path class="cls-2" d="M121.28,50.61l1.4-2.27a6.9,6.9,0,0,0,3.66,1.22c.65,0,1-.19,1-.57v0c0-.41-.59-.59-1.72-.9-2.11-.56-3.78-1.27-3.78-3.41v0c0-2.27,1.81-3.53,4.28-3.53a8.32,8.32,0,0,1,4.39,1.24l-1.28,2.36a7.21,7.21,0,0,0-3.15-1c-.58,0-.87.22-.87.51v0c0,.41.61.61,1.73.95,2.11.59,3.79,1.32,3.79,3.39v0c0,2.34-1.76,3.56-4.36,3.56A8.6,8.6,0,0,1,121.28,50.61Z"/><path class="cls-2" d="M131.78,46.67v0a5.68,5.68,0,0,1,5.92-5.58,5.62,5.62,0,0,1,5.87,5.54v0a5.91,5.91,0,0,1-11.79,0Zm8.15,0v0a2.31,2.31,0,0,0-2.27-2.41,2.23,2.23,0,0,0-2.23,2.37v0A2.31,2.31,0,0,0,137.7,49,2.23,2.23,0,0,0,139.93,46.67Z"/><path class="cls-2" d="M145.23,37.56H149V52h-3.74Z"/><path class="cls-2" d="M151.06,37.56H155v2.76h-3.91Zm.08,3.72h3.75V52h-3.75Z"/><path class="cls-2" d="M157,41.28h3.74v1.5a4,4,0,0,1,3.2-1.73c2.26,0,3.62,1.5,3.62,3.92v7H163.8V46.17c0-1.16-.61-1.79-1.5-1.79a1.58,1.58,0,0,0-1.58,1.79V52H157Z"/><path class="cls-2" d="M169,46.67v0a5.35,5.35,0,0,1,5.38-5.58c3.69,0,5.39,2.7,5.39,5.83,0,.24,0,.51,0,.77h-7.14A2.2,2.2,0,0,0,175,49.41a3.22,3.22,0,0,0,2.36-1.09L179.39,50a5.57,5.57,0,0,1-4.63,2.16A5.36,5.36,0,0,1,169,46.67Zm7.26-.93a1.91,1.91,0,0,0-1.86-1.93c-1,0-1.65.77-1.85,1.93Z"/><path class="cls-2" d="M181.4,41.28h3.75v2.15a3.26,3.26,0,0,1,3.37-2.32v3.94h-.32c-1.95,0-3,1.12-3,3.59V52H181.4Z"/><path class="cls-2" d="M188.82,48.89v0c0-2.2,1.67-3.35,4.18-3.35a8.08,8.08,0,0,1,2.56.42v-.18c0-1.1-.69-1.74-2.13-1.74a7.46,7.46,0,0,0-2.94.6L189.72,42a10.82,10.82,0,0,1,4.32-.82,5.47,5.47,0,0,1,4.06,1.3,4.45,4.45,0,0,1,1.15,3.39V52h-3.71V50.84a4,4,0,0,1-3.14,1.34C190.37,52.18,188.82,51,188.82,48.89Zm6.78-.81v-.49a3.92,3.92,0,0,0-1.46-.27c-1.09,0-1.72.53-1.72,1.32v0a1.18,1.18,0,0,0,1.32,1.16A1.72,1.72,0,0,0,195.6,48.08Z"/><path class="cls-2" d="M200.35,50.61l1.4-2.27a6.9,6.9,0,0,0,3.66,1.22c.66,0,1-.19,1-.57v0c0-.41-.59-.59-1.71-.9-2.11-.56-3.79-1.27-3.79-3.41v0c0-2.27,1.82-3.53,4.28-3.53a8.29,8.29,0,0,1,4.39,1.24l-1.28,2.36a7.17,7.17,0,0,0-3.15-1c-.57,0-.87.22-.87.51v0c0,.41.61.61,1.74.95,2.11.59,3.78,1.32,3.78,3.39v0c0,2.34-1.75,3.56-4.35,3.56A8.63,8.63,0,0,1,200.35,50.61Z"/><path class="cls-1" d="M211.13,48.1H215V52h-3.91Z"/><path class="cls-1" d="M216.26,46.67v0A5.54,5.54,0,0,1,222,41.07a5,5,0,0,1,4.55,2.38L224,45.34a2.33,2.33,0,0,0-2-1.12,2.21,2.21,0,0,0-2.09,2.37v0A2.2,2.2,0,0,0,222,49.05a2.57,2.57,0,0,0,2.05-1.1l2.5,1.81a5.3,5.3,0,0,1-4.75,2.44A5.5,5.5,0,0,1,216.26,46.67Z"/><path class="cls-1" d="M227.18,46.67v0a5.68,5.68,0,0,1,5.92-5.58A5.62,5.62,0,0,1,239,46.59v0a5.91,5.91,0,0,1-11.79,0Zm8.14,0v0a2.31,2.31,0,0,0-2.26-2.41,2.23,2.23,0,0,0-2.23,2.37v0A2.3,2.3,0,0,0,233.1,49,2.22,2.22,0,0,0,235.32,46.67Z"/><path class="cls-1" d="M240.55,41.28h3.74v1.46a3.94,3.94,0,0,1,3.18-1.69,3.26,3.26,0,0,1,3.07,1.73,4.5,4.5,0,0,1,3.57-1.73c2.27,0,3.65,1.42,3.65,3.9v7H254v-5.8c0-1.16-.57-1.77-1.46-1.77S251,45,251,46.15V52h-3.74v-5.8c0-1.16-.57-1.77-1.46-1.77s-1.52.61-1.52,1.77V52h-3.74Z"/><path class="cls-1" d="M259.53,48.1h3.91V52h-3.91Z"/><path class="cls-1" d="M265.29,41.28H269v1.46a3.94,3.94,0,0,1,3.18-1.69,3.26,3.26,0,0,1,3.07,1.73,4.5,4.5,0,0,1,3.57-1.73c2.27,0,3.65,1.42,3.65,3.9v7h-3.75v-5.8c0-1.16-.57-1.77-1.46-1.77s-1.53.61-1.53,1.77V52H272v-5.8c0-1.16-.57-1.77-1.46-1.77S269,45,269,46.15V52h-3.74Z"/><path class="cls-1" d="M287.17,46.57l-3.53-5.29h4l1.58,2.63,1.58-2.63h4l-3.51,5.27,3.59,5.4h-4l-1.66-2.74L287.53,52h-3.95Z"/><path class="cls-3" d="M26.24,21a3.12,3.12,0,0,0,.54,0H46a3.31,3.31,0,0,0,.55,0Z"/><path class="cls-3" d="M57.1,24.74,57,24.66l-6.6-6.49a2.09,2.09,0,0,0-.45-.33,3.68,3.68,0,0,0,.1-.89V15.54a4,4,0,0,0-4-4.06H26.78a4.05,4.05,0,0,0-4.05,4.06V17a3.56,3.56,0,0,0,.13,1,1.5,1.5,0,0,0-.25.19L15.37,24.6l-.12.13-.12.13a1.57,1.57,0,0,0-.42,1.08V51.46A3.49,3.49,0,0,0,18.2,55h3.58V59a1.64,1.64,0,0,0,1.64,1.64h25.5A1.64,1.64,0,0,0,50.55,59V55h3.57a3.5,3.5,0,0,0,3.51-3.49V25.94A1.64,1.64,0,0,0,57.1,24.74ZM26,15.54a.79.79,0,0,1,.78-.8H46a.79.79,0,0,1,.79.8V17a.77.77,0,0,1-.53.74.75.75,0,0,1-.26,0H26.78a.69.69,0,0,1-.25,0A.76.76,0,0,1,26,17ZM24.32,21H48.6l3.29,3.23H20.72ZM42.85,51.69H29.73V27.46H42.85Zm-24.65,0a.23.23,0,0,1-.23-.23V27.58h8.49V51.69Zm29.09,5.7H25.05V55H47.29Zm7.07-5.93a.23.23,0,0,1-.24.23h-8V27.58h8.25Z"/></g></g></svg>