<svg xmlns="http://www.w3.org/2000/svg" viewBox="0 0 262.69 70.82"><defs><style>.cls-1{fill:#00983a;}.cls-2{fill:#1d1d1b;}.cls-3{fill:#fff;}</style></defs><title>Logo_negro</title><g id="Capa_2" data-name="Capa 2"><g id="Capa_2-2" data-name="Capa 2"><circle class="cls-1" cx="35.41" cy="35.41" r="35.41"/><rect class="cls-1" x="82.02" y="6.65" width="4.58" height="57.12"/><path class="cls-2" d="M97.28,18.19h7A5,5,0,0,1,108,19.42a3,3,0,0,1,.88,2.2v0a3.17,3.17,0,0,1-2.1,3c1.65.55,2.7,1.48,2.7,3.33v0c0,2.34-1.9,3.76-5.16,3.76h-7Zm6.06,5.44c1.15,0,1.79-.39,1.79-1.19v0c0-.74-.59-1.17-1.72-1.17H101v2.4Zm.54,5.16c1.15,0,1.81-.45,1.81-1.25v0c0-.74-.58-1.23-1.85-1.23H101v2.51Z"/><path class="cls-2" d="M110.56,26.61v0a5.84,5.84,0,0,1,11.66,0v0a5.84,5.84,0,0,1-11.66,0Zm8,0v0a2.28,2.28,0,0,0-2.24-2.38,2.21,2.21,0,0,0-2.2,2.34v0A2.28,2.28,0,0,0,116.41,29,2.21,2.21,0,0,0,118.61,26.61Z"/><path class="cls-2" d="M124.32,28.56V24.27h-1.25v-3h1.25V18.62H128v2.67h2.45v3H128v3.57c0,.74.33,1.05,1,1.05a3.26,3.26,0,0,0,1.4-.35v2.9a5.27,5.27,0,0,1-2.57.61C125.64,32.05,124.32,31.07,124.32,28.56Z"/><path class="cls-2" d="M131.35,26.61v0a5.28,5.28,0,0,1,5.32-5.51c3.64,0,5.32,2.67,5.32,5.76,0,.24,0,.51,0,.76h-7.06a2.19,2.19,0,0,0,2.28,1.74,3.18,3.18,0,0,0,2.34-1.07l2.05,1.69A5.53,5.53,0,0,1,137,32.08,5.3,5.3,0,0,1,131.35,26.61Zm7.17-.92c-.14-1.17-.82-1.91-1.83-1.91s-1.64.76-1.83,1.91Z"/><path class="cls-2" d="M142.76,30.51l1.39-2.24a6.91,6.91,0,0,0,3.62,1.2c.65,0,.94-.19.94-.56v0c0-.41-.59-.58-1.7-.9-2.08-.54-3.74-1.24-3.74-3.37v0c0-2.24,1.79-3.48,4.23-3.48a8.19,8.19,0,0,1,4.34,1.22l-1.26,2.34a7.16,7.16,0,0,0-3.12-1c-.56,0-.86.21-.86.5v0c0,.41.61.61,1.72.94,2.08.58,3.74,1.3,3.74,3.35v0c0,2.32-1.74,3.53-4.31,3.53A8.55,8.55,0,0,1,142.76,30.51Z"/><path class="cls-2" d="M158.58,26.61v0c0-3.43,2.14-5.51,4.64-5.51a4,4,0,0,1,3.23,1.52v-5h3.71V31.83h-3.71v-1.4a3.89,3.89,0,0,1-3.21,1.64C160.74,32.07,158.58,30,158.58,26.61Zm7.93,0v0a2.16,2.16,0,1,0-4.3,0v0a2.16,2.16,0,1,0,4.3,0Z"/><path class="cls-2" d="M171.71,26.61v0A5.28,5.28,0,0,1,177,21.06c3.65,0,5.32,2.67,5.32,5.76,0,.24,0,.51,0,.76h-7.05a2.18,2.18,0,0,0,2.28,1.74,3.19,3.19,0,0,0,2.34-1.07l2,1.69a5.5,5.5,0,0,1-4.58,2.14A5.3,5.3,0,0,1,171.71,26.61Zm7.17-.92a1.88,1.88,0,0,0-1.83-1.91c-1,0-1.64.76-1.83,1.91Z"/><path class="cls-2" d="M97.06,41.92h3.7V44a3.24,3.24,0,0,1,3.34-2.3v3.9h-.32c-1.92,0-3,1.11-3,3.55v3.27h-3.7Z"/><path class="cls-2" d="M104.78,47.24v0a5.29,5.29,0,0,1,5.32-5.52c3.64,0,5.32,2.67,5.32,5.77,0,.23,0,.51,0,.76h-7.06A2.18,2.18,0,0,0,110.62,50,3.19,3.19,0,0,0,113,48.87l2.05,1.7a5.55,5.55,0,0,1-4.58,2.14A5.3,5.3,0,0,1,104.78,47.24Zm7.17-.92c-.14-1.17-.82-1.91-1.83-1.91s-1.64.76-1.84,1.91Z"/><path class="cls-2" d="M116.56,47.24v0a5.48,5.48,0,0,1,5.65-5.5,5,5,0,0,1,4.5,2.36l-2.51,1.87a2.28,2.28,0,0,0-2-1.11,2.18,2.18,0,0,0-2.06,2.34v0a2.18,2.18,0,0,0,2.1,2.39,2.51,2.51,0,0,0,2-1.09l2.47,1.8a5.23,5.23,0,0,1-4.69,2.41A5.44,5.44,0,0,1,116.56,47.24Z"/><path class="cls-2" d="M128.08,38.23h3.85V41h-3.85Zm.07,3.69h3.71V52.46h-3.71Z"/><path class="cls-2" d="M133.49,47.24v0a5.48,5.48,0,0,1,5.65-5.5,5,5,0,0,1,4.5,2.36l-2.51,1.87a2.28,2.28,0,0,0-2-1.11,2.19,2.19,0,0,0-2.07,2.34v0a2.19,2.19,0,0,0,2.11,2.39,2.51,2.51,0,0,0,2-1.09l2.47,1.8a5.23,5.23,0,0,1-4.7,2.41A5.44,5.44,0,0,1,133.49,47.24Z"/><path class="cls-2" d="M145.08,38.23h3.7V52.46h-3.7Z"/><path class="cls-2" d="M150.32,49.44v0c0-2.18,1.66-3.31,4.13-3.31a7.85,7.85,0,0,1,2.53.41v-.18c0-1.09-.68-1.71-2.1-1.71a7.39,7.39,0,0,0-2.9.58l-.76-2.61a10.51,10.51,0,0,1,4.26-.82,5.43,5.43,0,0,1,4,1.29,4.4,4.4,0,0,1,1.13,3.35v6.06H157V51.37a4,4,0,0,1-3.1,1.32C151.86,52.69,150.32,51.54,150.32,49.44Zm6.7-.8v-.49a4,4,0,0,0-1.44-.27c-1.07,0-1.69.53-1.69,1.31v0a1.15,1.15,0,0,0,1.3,1.15A1.69,1.69,0,0,0,157,48.64Z"/><path class="cls-2" d="M161,55.5V53a4.1,4.1,0,0,0,.49,0c.72,0,1.09-.31,1.09-1.22V41.92h3.71V52c0,2.67-1.37,3.64-3.76,3.64A10.94,10.94,0,0,1,161,55.5Zm1.51-17.27h3.85V41h-3.85Z"/><path class="cls-2" d="M168,47.24v0a5.29,5.29,0,0,1,5.32-5.52c3.64,0,5.32,2.67,5.32,5.77,0,.23,0,.51,0,.76h-7.05A2.18,2.18,0,0,0,173.82,50a3.19,3.19,0,0,0,2.33-1.08l2,1.7a5.54,5.54,0,0,1-4.58,2.14A5.3,5.3,0,0,1,168,47.24Zm7.17-.92c-.14-1.17-.82-1.91-1.83-1.91s-1.64.76-1.83,1.91Z"/><path class="cls-1" d="M179.93,48.66h3.86v3.8h-3.86Z"/><path class="cls-1" d="M185,47.24v0a5.48,5.48,0,0,1,5.65-5.5,5,5,0,0,1,4.5,2.36l-2.52,1.87a2.26,2.26,0,0,0-2-1.11,2.19,2.19,0,0,0-2.07,2.34v0a2.19,2.19,0,0,0,2.11,2.39,2.5,2.5,0,0,0,2-1.09l2.48,1.8a5.24,5.24,0,0,1-4.7,2.41A5.43,5.43,0,0,1,185,47.24Z"/><path class="cls-1" d="M195.79,47.24v0a5.83,5.83,0,0,1,11.65,0v0a5.61,5.61,0,0,1-5.85,5.51A5.55,5.55,0,0,1,195.79,47.24Zm8.05,0v0a2.29,2.29,0,0,0-2.25-2.38,2.21,2.21,0,0,0-2.2,2.34v0a2.29,2.29,0,0,0,2.24,2.38A2.22,2.22,0,0,0,203.84,47.24Z"/><path class="cls-1" d="M209,41.92h3.7v1.44a3.85,3.85,0,0,1,3.14-1.68,3.25,3.25,0,0,1,3,1.72,4.42,4.42,0,0,1,3.52-1.72c2.24,0,3.61,1.41,3.61,3.86v6.92H222.3V46.73c0-1.15-.56-1.75-1.44-1.75s-1.52.6-1.52,1.75v5.73h-3.7V46.73c0-1.15-.56-1.75-1.44-1.75s-1.5.6-1.5,1.75v5.73H209Z"/><path class="cls-1" d="M227.76,48.66h3.85v3.8h-3.85Z"/><path class="cls-1" d="M233.44,41.92h3.71v1.44a3.85,3.85,0,0,1,3.13-1.68,3.23,3.23,0,0,1,3,1.72,4.46,4.46,0,0,1,3.53-1.72c2.24,0,3.61,1.41,3.61,3.86v6.92h-3.71V46.73c0-1.15-.56-1.75-1.44-1.75s-1.52.6-1.52,1.75v5.73h-3.7V46.73c0-1.15-.57-1.75-1.44-1.75s-1.5.6-1.5,1.75v5.73h-3.71Z"/><path class="cls-1" d="M255.07,47.14l-3.49-5.22h4l1.55,2.59,1.56-2.59h3.92l-3.47,5.2,3.55,5.34h-4l-1.63-2.71-1.66,2.71h-3.9Z"/><path class="cls-3" d="M36.44,32.47l2.09,2.36.93,1.05-3,3.42v-.91a.3.3,0,0,0-.27-.31,6.36,6.36,0,0,0-1-.07,7.38,7.38,0,0,0-6.57,4.06,7.3,7.3,0,0,1-.14-1.4A6.73,6.73,0,0,1,35.17,34a5.25,5.25,0,0,1,.91.07h.05a.32.32,0,0,0,.31-.31V32.47Zm0-1.37a1.37,1.37,0,0,0-1.36,1.37v.12a8.09,8.09,0,0,0-8,8.08,8,8,0,0,0,.18,1.68,1.37,1.37,0,0,0,1.16,1.08h.18a1.37,1.37,0,0,0,1.22-.76,6,6,0,0,1,5.25-3.3,1.37,1.37,0,0,0,1.36,1.29,1.37,1.37,0,0,0,1-.46l3-3.42a1.37,1.37,0,0,0,0-1.81l-.93-1-2.09-2.37a1.37,1.37,0,0,0-1-.46Z"/><path class="cls-3" d="M42.35,39.9a6.62,6.62,0,0,1,.15,1.41A6.73,6.73,0,0,1,35.78,48a6.52,6.52,0,0,1-.91-.06h0a.31.31,0,0,0-.2.07.32.32,0,0,0-.11.24v1.24l-2.09-2.37-.93-1,3-3.42v.92a.33.33,0,0,0,.27.31,8,8,0,0,0,1,.06,7.36,7.36,0,0,0,6.57-4.06Zm0-1.36a1.37,1.37,0,0,0-1.22.75,6,6,0,0,1-5.25,3.3,1.34,1.34,0,0,0-1.37-1.28,1.35,1.35,0,0,0-1,.46l-3,3.41a1.36,1.36,0,0,0,0,1.81l.93,1,2.09,2.37a1.35,1.35,0,0,0,1,.46,1.4,1.4,0,0,0,.49-.08,1.38,1.38,0,0,0,.88-1.28v-.12a8.09,8.09,0,0,0,8-8.08,8.81,8.81,0,0,0-.17-1.69,1.37,1.37,0,0,0-1.16-1.07Z"/><path class="cls-3" d="M38.92,11.45H32.09a1.5,1.5,0,0,1,0-3h6.83a1.5,1.5,0,0,1,0,3Z"/><path class="cls-3" d="M46.94,13.17H24.08a9.46,9.46,0,0,0-9.45,9.45v1.49a1.5,1.5,0,0,0,1.5,1.5h0l3.08,30.3A5.54,5.54,0,0,0,24.9,60.7H46.22a5.53,5.53,0,0,0,5.67-4.81l3-30.28h0a1.5,1.5,0,0,0,1.5-1.5V22.62A9.46,9.46,0,0,0,46.94,13.17ZM49.4,55.68a3.1,3.1,0,0,1-3.18,2.7H24.9a3.11,3.11,0,0,1-3.19-2.69L18.65,25.61H52.34ZM17.63,22.61a6.44,6.44,0,0,1,6.45-6.44H46.94a6.46,6.46,0,0,1,6.46,6.44Z"/></g></g></svg>