<svg xmlns="http://www.w3.org/2000/svg" viewBox="0 0 373.88 70.88"><defs><style>.cls-1{fill:#58568c;}.cls-2{fill:#1d1d1b;}.cls-3{fill:#fff;}</style></defs><g id="Capa_2" data-name="Capa 2"><g id="Capa_2-2" data-name="Capa 2"><circle class="cls-1" cx="35.44" cy="35.44" r="35.44"/><rect class="cls-1" x="81.6" y="6.96" width="4.59" height="57.16"/><path class="cls-2" d="M97.21,18.38h7a5,5,0,0,1,3.73,1.23,3,3,0,0,1,.87,2.2v0a3.17,3.17,0,0,1-2.1,3c1.65.54,2.71,1.48,2.71,3.33v0c0,2.34-1.91,3.76-5.17,3.76h-7Zm6.06,5.44c1.16,0,1.8-.39,1.8-1.19v0c0-.74-.59-1.17-1.72-1.17H100.9v2.4Zm.55,5.17c1.15,0,1.81-.45,1.81-1.25v0c0-.74-.58-1.22-1.85-1.22H100.9V29Z"/><path class="cls-2" d="M110.51,26.81v0a5.84,5.84,0,0,1,11.66,0v0a5.62,5.62,0,0,1-5.85,5.52A5.56,5.56,0,0,1,110.51,26.81Zm8,0v0a2.29,2.29,0,0,0-2.24-2.38,2.21,2.21,0,0,0-2.21,2.34v0a2.3,2.3,0,0,0,2.25,2.38A2.21,2.21,0,0,0,118.56,26.81Z"/><path class="cls-2" d="M124.27,28.76V24.47H123v-3h1.25V18.81H128v2.67h2.45v3H128V28c0,.74.33,1.05,1,1.05a3.26,3.26,0,0,0,1.4-.35v2.9a5.27,5.27,0,0,1-2.57.61C125.6,32.25,124.27,31.27,124.27,28.76Z"/><path class="cls-2" d="M131.31,26.81v0a5.29,5.29,0,0,1,5.32-5.52c3.65,0,5.33,2.67,5.33,5.77,0,.24,0,.51,0,.76h-7.06a2.18,2.18,0,0,0,2.28,1.74,3.18,3.18,0,0,0,2.34-1.07l2.05,1.69A5.54,5.54,0,0,1,137,32.29,5.31,5.31,0,0,1,131.31,26.81Zm7.18-.92c-.14-1.17-.82-1.91-1.84-1.91s-1.64.76-1.83,1.91Z"/><path class="cls-2" d="M147.56,26.81v0c0-3.43,2.14-5.52,4.64-5.52a4,4,0,0,1,3.24,1.52v-5h3.7V32h-3.7v-1.4a3.91,3.91,0,0,1-3.22,1.64C149.72,32.27,147.56,30.18,147.56,26.81Zm7.94,0v0a2.17,2.17,0,1,0-4.31,0v0a2.17,2.17,0,1,0,4.31,0Z"/><path class="cls-2" d="M160.7,26.81v0A5.29,5.29,0,0,1,166,21.25c3.65,0,5.33,2.67,5.33,5.77,0,.24,0,.51,0,.76h-7.06a2.18,2.18,0,0,0,2.28,1.74,3.18,3.18,0,0,0,2.34-1.07l2.05,1.69a5.54,5.54,0,0,1-4.59,2.15A5.31,5.31,0,0,1,160.7,26.81Zm7.18-.92c-.14-1.17-.82-1.91-1.84-1.91s-1.64.76-1.83,1.91Z"/><path class="cls-2" d="M182,30.75V32h-3.71V17.8H182v5.09a3.87,3.87,0,0,1,3.2-1.64c2.51,0,4.68,2.09,4.68,5.46v0c0,3.43-2.17,5.52-4.66,5.52A4,4,0,0,1,182,30.75Zm4.23-4v0a2.17,2.17,0,1,0-4.31,0v0a2.17,2.17,0,1,0,4.31,0Z"/><path class="cls-2" d="M191,29v0c0-2.18,1.65-3.31,4.13-3.31a8,8,0,0,1,2.54.41v-.18c0-1.09-.69-1.72-2.11-1.72a7.48,7.48,0,0,0-2.91.59l-.76-2.61a10.57,10.57,0,0,1,4.27-.82,5.45,5.45,0,0,1,4,1.28A4.42,4.42,0,0,1,201.29,26V32h-3.66V30.94a4,4,0,0,1-3.1,1.33C192.52,32.27,191,31.12,191,29Zm6.7-.8v-.49a4,4,0,0,0-1.44-.27c-1.07,0-1.69.53-1.69,1.31v0a1.16,1.16,0,0,0,1.3,1.15A1.7,1.7,0,0,0,197.68,28.21Z"/><path class="cls-2" d="M202.38,30.71l1.39-2.25a6.84,6.84,0,0,0,3.62,1.21c.65,0,.94-.19.94-.56v0c0-.41-.58-.59-1.7-.9-2.08-.54-3.74-1.25-3.74-3.37v0c0-2.24,1.79-3.49,4.23-3.49a8.26,8.26,0,0,1,4.35,1.23l-1.27,2.34a7.06,7.06,0,0,0-3.12-1c-.56,0-.86.22-.86.51v0c0,.41.61.6,1.72.93,2.09.59,3.74,1.31,3.74,3.36v0c0,2.32-1.73,3.53-4.31,3.53A8.53,8.53,0,0,1,202.38,30.71Z"/><path class="cls-2" d="M213.13,28.39V21.48h3.7V27.2c0,1.15.61,1.77,1.5,1.77a1.55,1.55,0,0,0,1.54-1.77V21.48h3.71V32h-3.71V30.59a3.88,3.88,0,0,1-3.16,1.68C214.47,32.27,213.13,30.78,213.13,28.39Z"/><path class="cls-2" d="M225.56,21.48h3.71v2.13a3.22,3.22,0,0,1,3.33-2.3v3.9h-.31c-1.93,0-3,1.11-3,3.55V32h-3.71Z"/><path class="cls-2" d="M232.89,29v0c0-2.18,1.66-3.31,4.14-3.31a7.9,7.9,0,0,1,2.53.41v-.18c0-1.09-.68-1.72-2.1-1.72a7.48,7.48,0,0,0-2.91.59l-.76-2.61a10.57,10.57,0,0,1,4.27-.82,5.47,5.47,0,0,1,4,1.28A4.42,4.42,0,0,1,243.21,26V32h-3.67V30.94a4,4,0,0,1-3.1,1.33C234.44,32.27,232.89,31.12,232.89,29Zm6.71-.8v-.49a4,4,0,0,0-1.44-.27c-1.07,0-1.7.53-1.7,1.31v0A1.17,1.17,0,0,0,237.77,30,1.7,1.7,0,0,0,239.6,28.21Z"/><path class="cls-2" d="M96.61,47.45v0c0-3.43,2.14-5.52,4.64-5.52a4,4,0,0,1,3.23,1.52v-5h3.71V52.68h-3.71V51.27a3.89,3.89,0,0,1-3.21,1.64C98.77,52.91,96.61,50.82,96.61,47.45Zm7.93,0v0a2.17,2.17,0,1,0-4.31,0v0a2.25,2.25,0,0,0,2.17,2.4A2.22,2.22,0,0,0,104.54,47.41Z"/><path class="cls-2" d="M109.75,47.45v0a5.29,5.29,0,0,1,5.32-5.52c3.65,0,5.32,2.67,5.32,5.78,0,.23,0,.5,0,.76h-7.06a2.19,2.19,0,0,0,2.29,1.73,3.19,3.19,0,0,0,2.34-1.07l2,1.7a5.52,5.52,0,0,1-4.58,2.14A5.31,5.31,0,0,1,109.75,47.45Zm7.17-.92a1.88,1.88,0,0,0-1.83-1.91c-1,0-1.64.76-1.83,1.91Z"/><path class="cls-2" d="M126.84,49.65v0c0-2.19,1.66-3.32,4.14-3.32a8.19,8.19,0,0,1,2.53.41v-.18c0-1.09-.68-1.71-2.1-1.71a7.48,7.48,0,0,0-2.91.58l-.76-2.61A10.57,10.57,0,0,1,132,42a5.43,5.43,0,0,1,4,1.29,4.4,4.4,0,0,1,1.13,3.35v6.07h-3.67V51.59a4,4,0,0,1-3.1,1.32C128.38,52.91,126.84,51.76,126.84,49.65Zm6.71-.8v-.48a3.76,3.76,0,0,0-1.44-.28c-1.07,0-1.7.53-1.7,1.31v0a1.17,1.17,0,0,0,1.31,1.15A1.69,1.69,0,0,0,133.55,48.85Z"/><path class="cls-2" d="M138.62,47.45v0a5.48,5.48,0,0,1,5.66-5.5,5,5,0,0,1,4.5,2.36l-2.52,1.87a2.27,2.27,0,0,0-2-1.11,2.19,2.19,0,0,0-2.06,2.34v0a2.19,2.19,0,0,0,2.1,2.4,2.53,2.53,0,0,0,2-1.09l2.48,1.79a5.23,5.23,0,0,1-4.7,2.42A5.45,5.45,0,0,1,138.62,47.45Z"/><path class="cls-2" d="M149.42,47.45v0a5.3,5.3,0,0,1,5.33-5.52c3.64,0,5.32,2.67,5.32,5.78,0,.23,0,.5,0,.76H153a2.17,2.17,0,0,0,2.28,1.73,3.18,3.18,0,0,0,2.34-1.07l2,1.7a5.55,5.55,0,0,1-4.58,2.14A5.31,5.31,0,0,1,149.42,47.45Zm7.18-.92c-.14-1.17-.82-1.91-1.84-1.91s-1.63.76-1.83,1.91Z"/><path class="cls-2" d="M161.64,42.13h3.71v2.12a3.23,3.23,0,0,1,3.33-2.3v3.9h-.31c-1.93,0-3,1.11-3,3.55v3.28h-3.71Z"/><path class="cls-2" d="M169.37,47.45v0a5.84,5.84,0,0,1,11.66,0v0a5.84,5.84,0,0,1-11.66,0Zm8,0v0A2.29,2.29,0,0,0,175.18,45,2.22,2.22,0,0,0,173,47.37v0a2.29,2.29,0,0,0,2.25,2.38A2.21,2.21,0,0,0,177.42,47.45Z"/><path class="cls-2" d="M188,38.44h3.86v2.73H188Zm.08,3.69h3.71V52.68h-3.71Z"/><path class="cls-2" d="M193.83,42.13h3.71v1.48a3.91,3.91,0,0,1,3.16-1.72c2.24,0,3.59,1.49,3.59,3.88v6.91h-3.71V47c0-1.15-.6-1.77-1.48-1.77A1.56,1.56,0,0,0,197.54,47v5.72h-3.71Z"/><path class="cls-2" d="M205.76,47.45v0a5.62,5.62,0,0,1,5.85-5.52,5.56,5.56,0,0,1,5.81,5.48v0a5.84,5.84,0,0,1-11.66,0Zm8.06,0v0A2.29,2.29,0,0,0,211.58,45a2.22,2.22,0,0,0-2.21,2.34v0a2.29,2.29,0,0,0,2.24,2.38A2.21,2.21,0,0,0,213.82,47.45Z"/><path class="cls-2" d="M221,47.35l-3.49-5.22h4l1.56,2.59,1.56-2.59h3.92l-3.47,5.2,3.54,5.35h-4L223,50l-1.66,2.71h-3.9Z"/><path class="cls-2" d="M229.78,38.44h3.86v2.73h-3.86Zm.08,3.69h3.71V52.68h-3.71Z"/><path class="cls-2" d="M235.24,47.45v0c0-3.43,2.15-5.52,4.64-5.52a4,4,0,0,1,3.24,1.52v-5h3.7V52.68h-3.7V51.27a3.91,3.91,0,0,1-3.22,1.64C237.41,52.91,235.24,50.82,235.24,47.45Zm7.94,0v0a2.17,2.17,0,1,0-4.31,0v0a2.17,2.17,0,1,0,4.31,0Z"/><path class="cls-2" d="M248.28,49.65v0c0-2.19,1.66-3.32,4.14-3.32a8.19,8.19,0,0,1,2.53.41v-.18c0-1.09-.68-1.71-2.1-1.71a7.48,7.48,0,0,0-2.91.58l-.76-2.61a10.57,10.57,0,0,1,4.27-.82,5.43,5.43,0,0,1,4,1.29,4.4,4.4,0,0,1,1.13,3.35v6.07h-3.67V51.59a4,4,0,0,1-3.1,1.32C249.83,52.91,248.28,51.76,248.28,49.65Zm6.71-.8v-.48a3.76,3.76,0,0,0-1.44-.28c-1.07,0-1.7.53-1.7,1.31v0a1.17,1.17,0,0,0,1.31,1.15A1.69,1.69,0,0,0,255,48.85Z"/><path class="cls-2" d="M264.2,51.39v1.29h-3.71V38.44h3.71v5.09a3.85,3.85,0,0,1,3.19-1.64c2.52,0,4.68,2.09,4.68,5.46v0c0,3.43-2.16,5.52-4.66,5.52A3.94,3.94,0,0,1,264.2,51.39Zm4.23-4v0a2.17,2.17,0,1,0-4.31,0v0a2.17,2.17,0,1,0,4.31,0Z"/><path class="cls-2" d="M273.75,38.44h3.7V52.68h-3.7Z"/><path class="cls-2" d="M279.09,47.45v0a5.29,5.29,0,0,1,5.32-5.52c3.65,0,5.33,2.67,5.33,5.78,0,.23,0,.5,0,.76h-7.06a2.17,2.17,0,0,0,2.28,1.73,3.18,3.18,0,0,0,2.34-1.07l2.05,1.7a5.56,5.56,0,0,1-4.59,2.14A5.31,5.31,0,0,1,279.09,47.45Zm7.18-.92c-.14-1.17-.82-1.91-1.84-1.91s-1.64.76-1.83,1.91Z"/><path class="cls-1" d="M291.06,48.87h3.86v3.81h-3.86Z"/><path class="cls-1" d="M296.13,47.45v0a5.48,5.48,0,0,1,5.65-5.5,5,5,0,0,1,4.51,2.36l-2.52,1.87a2.27,2.27,0,0,0-2-1.11,2.19,2.19,0,0,0-2.06,2.34v0a2.18,2.18,0,0,0,2.1,2.4,2.53,2.53,0,0,0,2-1.09l2.48,1.79a5.23,5.23,0,0,1-4.7,2.42A5.45,5.45,0,0,1,296.13,47.45Z"/><path class="cls-1" d="M306.93,47.45v0a5.84,5.84,0,0,1,11.66,0v0a5.84,5.84,0,0,1-11.66,0Zm8.05,0v0A2.28,2.28,0,0,0,312.74,45a2.21,2.21,0,0,0-2.2,2.34v0a2.28,2.28,0,0,0,2.24,2.38A2.2,2.2,0,0,0,315,47.45Z"/><path class="cls-1" d="M320.15,42.13h3.7v1.44A3.88,3.88,0,0,1,327,41.89,3.25,3.25,0,0,1,330,43.61a4.42,4.42,0,0,1,3.52-1.72c2.25,0,3.61,1.41,3.61,3.86v6.93h-3.7V46.94c0-1.15-.57-1.75-1.45-1.75s-1.52.6-1.52,1.75v5.74h-3.7V46.94c0-1.15-.57-1.75-1.45-1.75s-1.5.6-1.5,1.75v5.74h-3.7Z"/><path class="cls-1" d="M338.92,48.87h3.86v3.81h-3.86Z"/><path class="cls-1" d="M344.62,42.13h3.7v1.44a3.87,3.87,0,0,1,3.14-1.68,3.24,3.24,0,0,1,3,1.72A4.46,4.46,0,0,1,358,41.89c2.24,0,3.61,1.41,3.61,3.86v6.93h-3.71V46.94c0-1.15-.56-1.75-1.44-1.75s-1.52.6-1.52,1.75v5.74h-3.7V46.94c0-1.15-.57-1.75-1.45-1.75s-1.5.6-1.5,1.75v5.74h-3.7Z"/><path class="cls-1" d="M366.26,47.35l-3.49-5.22h4l1.56,2.59,1.56-2.59h3.92l-3.47,5.2,3.55,5.35h-4L368.27,50l-1.66,2.71h-3.9Z"/><rect class="cls-3" x="26.05" y="34.36" width="3.17" height="1.68"/><rect class="cls-3" x="26.05" y="39.93" width="3.17" height="1.68"/><rect class="cls-3" x="26.05" y="45.49" width="3.17" height="1.68"/><rect class="cls-3" x="26.05" y="51.06" width="3.17" height="1.68"/><rect class="cls-3" x="33.84" y="34.36" width="3.17" height="1.68"/><rect class="cls-3" x="33.84" y="39.93" width="3.17" height="1.68"/><rect class="cls-3" x="33.84" y="45.49" width="3.17" height="1.68"/><rect class="cls-3" x="33.84" y="51.06" width="3.17" height="1.68"/><rect class="cls-3" x="41.63" y="34.36" width="3.17" height="1.68"/><rect class="cls-3" x="41.63" y="39.93" width="3.17" height="1.68"/><rect class="cls-3" x="41.63" y="45.49" width="3.17" height="1.68"/><rect class="cls-3" x="41.63" y="51.06" width="3.17" height="1.68"/><path class="cls-3" d="M51.92,25.11H19a1.33,1.33,0,0,0-1.33,1.33V54a8.16,8.16,0,0,0,8.15,8.15H45.1A8.16,8.16,0,0,0,53.25,54V26.44A1.34,1.34,0,0,0,51.92,25.11ZM45.1,59.52H25.77A5.5,5.5,0,0,1,20.28,54V27.78h30.3V54A5.49,5.49,0,0,1,45.1,59.52Z"/><path class="cls-3" d="M52.94,17.12a8.17,8.17,0,0,0-9.1-7.1L41,10.38a3.37,3.37,0,0,0-1.14-1.59,3.46,3.46,0,0,0-2.59-.72l-6.9.86a3.56,3.56,0,0,0-3.06,3.15l-2.66.33a8.19,8.19,0,0,0-7.1,9.11l.07.54A1.36,1.36,0,0,0,19,23.21h.16l32.72-4.06a1.28,1.28,0,0,0,.89-.51,1.31,1.31,0,0,0,.27-1Zm-23-3.24a1.81,1.81,0,0,0,.15-.42,2.62,2.62,0,0,0,0-.28L30,12.52a.85.85,0,0,1,.73-.94l6.9-.86h.11a.84.84,0,0,1,.51.19.83.83,0,0,1,.31.55l.07.57a1.33,1.33,0,0,0,.52.9,1.27,1.27,0,0,0,1,.26l4.06-.5a5.42,5.42,0,0,1,4,1.12,5.34,5.34,0,0,1,1.91,2.87L20.18,20.38A5.47,5.47,0,0,1,25,15.06l3.73-.47h.14a.56.56,0,0,0,.21,0l.19-.07a1.11,1.11,0,0,0,.53-.42A1,1,0,0,0,29.9,13.88Z"/></g></g></svg>