<svg xmlns="http://www.w3.org/2000/svg" viewBox="0 0 369.09 70.23"><defs><style>.cls-1{fill:#82368c;}.cls-2{fill:#1d1d1b;}.cls-3{fill:#fff;}</style></defs><title>Logo_negro</title><g id="Capa_2" data-name="Capa 2"><g id="Capa_2-2" data-name="Capa 2"><circle class="cls-1" cx="35.11" cy="35.11" r="35.11"/><rect class="cls-1" x="81.28" y="7.03" width="4.55" height="56.64"/><path class="cls-2" d="M96.72,34.89v0a6.94,6.94,0,0,1,7.13-7,6.63,6.63,0,0,1,5.74,2.82l-2.82,2.18a3.66,3.66,0,0,0-3-1.58,3.35,3.35,0,0,0-3.23,3.57v0a3.35,3.35,0,0,0,3.23,3.61,3.67,3.67,0,0,0,3-1.64l2.82,2a7.12,7.12,0,0,1-13-3.94Z"/><path class="cls-2" d="M110.55,38.62v0c0-2.17,1.64-3.29,4.1-3.29a8.1,8.1,0,0,1,2.51.41v-.17c0-1.09-.68-1.7-2.09-1.7a7.51,7.51,0,0,0-2.88.57l-.75-2.58a10.36,10.36,0,0,1,4.23-.82,5.38,5.38,0,0,1,4,1.28,4.36,4.36,0,0,1,1.12,3.32v6h-3.63V40.53a4,4,0,0,1-3.07,1.31C112.08,41.84,110.55,40.7,110.55,38.62Zm6.65-.8v-.48a4,4,0,0,0-1.43-.27c-1.07,0-1.68.52-1.68,1.3v0a1.15,1.15,0,0,0,1.29,1.14A1.68,1.68,0,0,0,117.2,37.82Z"/><path class="cls-2" d="M122.64,31.16h3.67v2.11A3.2,3.2,0,0,1,129.62,31v3.86h-.31c-1.91,0-3,1.1-3,3.52v3.24h-3.67Z"/><path class="cls-2" d="M130.91,31.16h3.67v2.11a3.2,3.2,0,0,1,3.3-2.28v3.86h-.3c-1.92,0-3,1.1-3,3.52v3.24h-3.67Z"/><path class="cls-2" d="M138.56,36.43v0a5.56,5.56,0,0,1,5.8-5.46,5.51,5.51,0,0,1,5.75,5.43v0a5.78,5.78,0,0,1-11.55,0Zm8,0v0A2.26,2.26,0,0,0,144.32,34a2.19,2.19,0,0,0-2.19,2.32v0a2.27,2.27,0,0,0,2.23,2.36A2.19,2.19,0,0,0,146.54,36.43Z"/><path class="cls-2" d="M150.83,40.3l1.37-2.22a6.8,6.8,0,0,0,3.59,1.19c.64,0,.93-.19.93-.56v0c0-.4-.58-.57-1.68-.88-2.07-.55-3.71-1.24-3.71-3.35v0c0-2.22,1.78-3.45,4.19-3.45a8.2,8.2,0,0,1,4.31,1.21l-1.26,2.32a7,7,0,0,0-3.09-1c-.56,0-.85.21-.85.5v0c0,.4.6.6,1.7.92,2.07.58,3.71,1.3,3.71,3.33v0c0,2.3-1.72,3.49-4.27,3.49A8.43,8.43,0,0,1,150.83,40.3Z"/><path class="cls-2" d="M170.57,40.34v1.27H166.9V27.51h3.67v5a3.82,3.82,0,0,1,3.17-1.62c2.49,0,4.63,2.06,4.63,5.41v0c0,3.4-2.14,5.46-4.61,5.46A3.93,3.93,0,0,1,170.57,40.34Zm4.19-4v0a2.15,2.15,0,1,0-4.27,0v0a2.15,2.15,0,1,0,4.27,0Z"/><path class="cls-2" d="M179.43,38.62v0c0-2.17,1.65-3.29,4.1-3.29a8.05,8.05,0,0,1,2.51.41v-.17c0-1.09-.67-1.7-2.08-1.7a7.43,7.43,0,0,0-2.88.57l-.76-2.58a10.4,10.4,0,0,1,4.23-.82,5.36,5.36,0,0,1,4,1.28,4.32,4.32,0,0,1,1.12,3.32v6H186V40.53A3.94,3.94,0,0,1,183,41.84C181,41.84,179.43,40.7,179.43,38.62Zm6.65-.8v-.48a4,4,0,0,0-1.43-.27c-1.06,0-1.68.52-1.68,1.3v0a1.15,1.15,0,0,0,1.29,1.14A1.68,1.68,0,0,0,186.08,37.82Z"/><path class="cls-2" d="M191.53,31.16h3.67v2.11A3.19,3.19,0,0,1,198.5,31v3.86h-.31c-1.91,0-3,1.1-3,3.52v3.24h-3.67Z"/><path class="cls-2" d="M199.8,31.16h3.67v2.11a3.18,3.18,0,0,1,3.3-2.28v3.86h-.31c-1.91,0-3,1.1-3,3.52v3.24H199.8Z"/><path class="cls-2" d="M207.44,36.43v0a5.24,5.24,0,0,1,5.28-5.46c3.61,0,5.27,2.64,5.27,5.72,0,.23,0,.5,0,.75h-7a2.16,2.16,0,0,0,2.26,1.72,3.18,3.18,0,0,0,2.32-1.06l2,1.68a5.5,5.5,0,0,1-4.54,2.12A5.26,5.26,0,0,1,207.44,36.43Zm7.11-.9a1.87,1.87,0,0,0-1.81-1.9c-1,0-1.63.76-1.82,1.9Z"/><path class="cls-2" d="M219.56,31.16h3.67v1.47a3.86,3.86,0,0,1,3.13-1.7c2.22,0,3.55,1.47,3.55,3.84v6.84h-3.67V36c0-1.14-.6-1.76-1.47-1.76A1.54,1.54,0,0,0,223.23,36v5.66h-3.67Z"/><path class="cls-2" d="M231.42,36.43v0c0-3.4,2.12-5.46,4.59-5.46a4,4,0,0,1,3.21,1.5V27.51h3.67v14.1h-3.67V40.22A3.86,3.86,0,0,1,236,41.84C233.56,41.84,231.42,39.78,231.42,36.43Zm7.86,0v0a2.15,2.15,0,1,0-4.27,0v0a2.15,2.15,0,1,0,4.27,0Z"/><path class="cls-2" d="M244.44,36.43v0a5.24,5.24,0,0,1,5.27-5.46c3.61,0,5.27,2.64,5.27,5.72,0,.23,0,.5,0,.75h-7a2.16,2.16,0,0,0,2.26,1.72,3.16,3.16,0,0,0,2.32-1.06l2,1.68A5.49,5.49,0,0,1,250,41.86,5.25,5.25,0,0,1,244.44,36.43Zm7.11-.9c-.14-1.16-.82-1.9-1.82-1.9s-1.62.76-1.82,1.9Z"/><path class="cls-2" d="M256.55,31.16h3.67v2.11a3.19,3.19,0,0,1,3.3-2.28v3.86h-.31c-1.91,0-3,1.1-3,3.52v3.24h-3.67Z"/><path class="cls-2" d="M264.2,36.43v0a5.79,5.79,0,0,1,11.55,0v0a5.57,5.57,0,0,1-5.8,5.47A5.51,5.51,0,0,1,264.2,36.43Zm8,0v0A2.27,2.27,0,0,0,270,34a2.19,2.19,0,0,0-2.18,2.32v0A2.27,2.27,0,0,0,270,38.75,2.19,2.19,0,0,0,272.18,36.43Z"/><path class="cls-2" d="M276.46,40.3l1.37-2.22a6.83,6.83,0,0,0,3.6,1.19c.63,0,.92-.19.92-.56v0c0-.4-.57-.57-1.68-.88-2.06-.55-3.7-1.24-3.7-3.35v0c0-2.22,1.77-3.45,4.19-3.45a8.22,8.22,0,0,1,4.31,1.21l-1.26,2.32a7,7,0,0,0-3.09-1c-.56,0-.85.21-.85.5v0c0,.4.6.6,1.7.92,2.07.58,3.71,1.3,3.71,3.33v0c0,2.3-1.72,3.49-4.27,3.49A8.46,8.46,0,0,1,276.46,40.3Z"/><path class="cls-1" d="M287,37.84h3.82v3.77H287Z"/><path class="cls-1" d="M292.05,36.43v0a5.43,5.43,0,0,1,5.6-5.44,5,5,0,0,1,4.47,2.33l-2.5,1.86a2.24,2.24,0,0,0-1.95-1.1,2.16,2.16,0,0,0-2,2.32v0a2.17,2.17,0,0,0,2.08,2.38,2.49,2.49,0,0,0,2-1.08l2.45,1.78a5.16,5.16,0,0,1-4.65,2.39A5.39,5.39,0,0,1,292.05,36.43Z"/><path class="cls-1" d="M302.75,36.43v0a5.57,5.57,0,0,1,5.8-5.46,5.51,5.51,0,0,1,5.75,5.43v0a5.78,5.78,0,0,1-11.55,0Zm8,0v0A2.26,2.26,0,0,0,308.51,34a2.19,2.19,0,0,0-2.18,2.32v0a2.26,2.26,0,0,0,2.22,2.36A2.19,2.19,0,0,0,310.73,36.43Z"/><path class="cls-1" d="M315.85,31.16h3.67v1.43a3.84,3.84,0,0,1,3.11-1.66,3.2,3.2,0,0,1,3,1.7,4.38,4.38,0,0,1,3.5-1.7c2.22,0,3.57,1.39,3.57,3.82v6.86H329V35.93c0-1.14-.56-1.74-1.43-1.74s-1.5.6-1.5,1.74v5.68h-3.67V35.93c0-1.14-.56-1.74-1.43-1.74s-1.49.6-1.49,1.74v5.68h-3.67Z"/><path class="cls-1" d="M334.45,37.84h3.83v3.77h-3.83Z"/><path class="cls-1" d="M340.09,31.16h3.67v1.43a3.85,3.85,0,0,1,3.11-1.66,3.22,3.22,0,0,1,3,1.7,4.37,4.37,0,0,1,3.49-1.7c2.22,0,3.58,1.39,3.58,3.82v6.86h-3.67V35.93c0-1.14-.56-1.74-1.43-1.74s-1.51.6-1.51,1.74v5.68h-3.67V35.93c0-1.14-.56-1.74-1.43-1.74s-1.49.6-1.49,1.74v5.68h-3.67Z"/><path class="cls-1" d="M361.53,36.34l-3.45-5.18h4l1.54,2.57,1.55-2.57H369l-3.44,5.16,3.52,5.29h-3.94l-1.63-2.68-1.64,2.68H358Z"/><path class="cls-3" d="M23.42,61.57A5.62,5.62,0,1,1,29,56,5.62,5.62,0,0,1,23.42,61.57Zm0-8.24A2.62,2.62,0,1,0,26,56,2.62,2.62,0,0,0,23.42,53.33Z"/><path class="cls-3" d="M48.34,61.57A5.62,5.62,0,1,1,54,56,5.62,5.62,0,0,1,48.34,61.57Zm0-8.24A2.62,2.62,0,1,0,51,56,2.63,2.63,0,0,0,48.34,53.33Z"/><path class="cls-3" d="M38.5,10.81H32.38a1.5,1.5,0,0,1,0-3H38.5a1.5,1.5,0,0,1,0,3Z"/><path class="cls-3" d="M59.76,27.29c-1.31-1.22-3.63-1.72-7.27-1.54l.13-2.09a1.51,1.51,0,0,0,1.48-1.5v-1a9,9,0,0,0-8.94-8.94H25.33a9,9,0,0,0-8.94,8.94v1a1.48,1.48,0,0,0,1.43,1.49l2.09,23.53a1.51,1.51,0,0,0,1.83,1.33,7.09,7.09,0,0,1,1.61-.18,7.41,7.41,0,0,1,7.4,7.39c0,.3,0,.59,0,.87a1.49,1.49,0,0,0,1.49,1.64h7a1.49,1.49,0,0,0,1.49-1.64c0-.28,0-.57,0-.87a7.4,7.4,0,0,1,7.39-7.39,7.28,7.28,0,0,1,1.32.12,1.48,1.48,0,0,0,1.2-.3,1.53,1.53,0,0,0,.57-1.08l1.13-18.3c3.93-.24,5.1.42,5.41.71a.72.72,0,0,1,.22.62.71.71,0,0,1-.28.46,3.28,3.28,0,0,1-2.41.72,1.5,1.5,0,1,0-.18,3h.42a6.18,6.18,0,0,0,4.23-1.55,3.7,3.7,0,0,0,0-5.45Zm-11.49,18a10.37,10.37,0,0,0-10.57,9.9h-4a10.41,10.41,0,0,0-10.39-9.9l-.59,0L20.88,24.19H49.57ZM19.41,20.66a6,6,0,0,1,5.92-5.45H45.16a6,6,0,0,1,5.92,5.45Z"/><path class="cls-3" d="M28.25,44a1.5,1.5,0,0,1-1.49-1.35l-1.33-12.9a1.5,1.5,0,1,1,3-.31l1.34,12.9A1.51,1.51,0,0,1,28.41,44Z"/><path class="cls-3" d="M42.72,44h-.16a1.51,1.51,0,0,1-1.34-1.65l1.34-12.9a1.5,1.5,0,1,1,3,.31l-1.33,12.9A1.5,1.5,0,0,1,42.72,44Z"/><path class="cls-3" d="M35.45,44.43a1.5,1.5,0,0,1-1.5-1.5V29.14a1.5,1.5,0,0,1,3,0V42.93A1.5,1.5,0,0,1,35.45,44.43Z"/></g></g></svg>