<svg xmlns="http://www.w3.org/2000/svg" viewBox="0 0 242.69 70.46"><defs><style>.cls-1{fill:#cb569a;}.cls-2{fill:#1d1d1b;}.cls-3{fill:#fff;}</style></defs><title>Logo_negro</title><g id="Capa_2" data-name="Capa 2"><g id="Capa_2-2" data-name="Capa 2"><circle class="cls-1" cx="35.23" cy="35.23" r="35.23"/><rect class="cls-1" x="80.93" y="6.96" width="4.56" height="56.82"/><path class="cls-2" d="M96.41,25v0a7,7,0,0,1,7.16-7.06,6.65,6.65,0,0,1,5.75,2.83l-2.83,2.19a3.61,3.61,0,0,0-3-1.59,3.36,3.36,0,0,0-3.24,3.59v0a3.36,3.36,0,0,0,3.24,3.62,3.71,3.71,0,0,0,3.06-1.65l2.83,2a7.15,7.15,0,0,1-13-4Z"/><path class="cls-2" d="M110.29,28.73v0c0-2.17,1.65-3.3,4.11-3.3a8.12,8.12,0,0,1,2.52.41v-.17c0-1.09-.68-1.71-2.1-1.71a7.33,7.33,0,0,0-2.88.58l-.76-2.6a10.61,10.61,0,0,1,4.25-.81,5.42,5.42,0,0,1,4,1.28,4.39,4.39,0,0,1,1.12,3.33v6H116.9V30.64A4,4,0,0,1,113.82,32C111.82,32,110.29,30.82,110.29,28.73Zm6.67-.8v-.48a3.77,3.77,0,0,0-1.44-.27c-1.06,0-1.68.52-1.68,1.29v0a1.15,1.15,0,0,0,1.29,1.15A1.69,1.69,0,0,0,117,27.93Z"/><path class="cls-2" d="M121.63,30.41,123,28.18a6.81,6.81,0,0,0,3.61,1.21c.64,0,.93-.2.93-.57v0c0-.4-.58-.58-1.69-.89-2.07-.54-3.72-1.24-3.72-3.35v0c0-2.23,1.78-3.47,4.21-3.47a8.24,8.24,0,0,1,4.32,1.22l-1.26,2.33a7.13,7.13,0,0,0-3.1-1c-.56,0-.85.21-.85.5v0c0,.41.6.6,1.7.93,2.07.58,3.72,1.3,3.72,3.34v0c0,2.31-1.72,3.51-4.28,3.51A8.43,8.43,0,0,1,121.63,30.41Z"/><path class="cls-2" d="M131.86,28.73v0c0-2.17,1.65-3.3,4.11-3.3a8.12,8.12,0,0,1,2.52.41v-.17c0-1.09-.68-1.71-2.1-1.71a7.33,7.33,0,0,0-2.88.58l-.76-2.6a10.61,10.61,0,0,1,4.25-.81,5.41,5.41,0,0,1,4,1.28,4.39,4.39,0,0,1,1.12,3.33v6h-3.64V30.64A4,4,0,0,1,135.39,32C133.39,32,131.86,30.82,131.86,28.73Zm6.67-.8v-.48a3.81,3.81,0,0,0-1.44-.27c-1.06,0-1.68.52-1.68,1.29v0a1.15,1.15,0,0,0,1.29,1.15A1.69,1.69,0,0,0,138.53,27.93Z"/><path class="cls-2" d="M143.2,30.41l1.37-2.23a6.78,6.78,0,0,0,3.61,1.21c.64,0,.93-.2.93-.57v0c0-.4-.58-.58-1.69-.89-2.07-.54-3.72-1.24-3.72-3.35v0c0-2.23,1.78-3.47,4.21-3.47a8.24,8.24,0,0,1,4.32,1.22L151,24.58a7.13,7.13,0,0,0-3.1-1c-.57,0-.86.21-.86.5v0c0,.41.61.6,1.71.93,2.07.58,3.72,1.3,3.72,3.34v0c0,2.31-1.72,3.51-4.28,3.51A8.41,8.41,0,0,1,143.2,30.41Z"/><path class="cls-2" d="M159.32,21.25H163v1.39A3.86,3.86,0,0,1,166.18,21c2.5,0,4.65,2.08,4.65,5.43v0c0,3.41-2.15,5.48-4.63,5.48a3.93,3.93,0,0,1-3.2-1.51v4.38h-3.68Zm7.89,5.25v0a2.16,2.16,0,1,0-4.29,0v0a2.16,2.16,0,1,0,4.29,0Z"/><path class="cls-2" d="M171.9,28.73v0c0-2.17,1.65-3.3,4.11-3.3a8.23,8.23,0,0,1,2.52.41v-.17c0-1.09-.68-1.71-2.1-1.71a7.29,7.29,0,0,0-2.88.58l-.76-2.6a10.59,10.59,0,0,1,4.24-.81,5.43,5.43,0,0,1,4,1.28,4.39,4.39,0,0,1,1.12,3.33v6h-3.64V30.64A4,4,0,0,1,175.42,32C173.43,32,171.9,30.82,171.9,28.73Zm6.66-.8v-.48a3.72,3.72,0,0,0-1.43-.27c-1.07,0-1.69.52-1.69,1.29v0a1.16,1.16,0,0,0,1.3,1.15A1.68,1.68,0,0,0,178.56,27.93Z"/><path class="cls-2" d="M184,21.25h3.68v2.11A3.2,3.2,0,0,1,191,21.07V25h-.31c-1.92,0-3,1.1-3,3.52v3.26H184Z"/><path class="cls-2" d="M191.32,28.73v0c0-2.17,1.64-3.3,4.1-3.3a8.12,8.12,0,0,1,2.52.41v-.17c0-1.09-.68-1.71-2.09-1.71a7.38,7.38,0,0,0-2.89.58l-.75-2.6a10.59,10.59,0,0,1,4.24-.81,5.39,5.39,0,0,1,4,1.28,4.35,4.35,0,0,1,1.13,3.33v6h-3.65V30.64A3.92,3.92,0,0,1,194.84,32C192.85,32,191.32,30.82,191.32,28.73Zm6.66-.8v-.48a3.76,3.76,0,0,0-1.43-.27c-1.07,0-1.69.52-1.69,1.29v0a1.16,1.16,0,0,0,1.3,1.15A1.68,1.68,0,0,0,198,27.93Z"/><path class="cls-2" d="M96.67,41.77h3.68v1.39a3.86,3.86,0,0,1,3.18-1.63c2.5,0,4.65,2.08,4.65,5.43v0c0,3.41-2.15,5.48-4.63,5.48a4,4,0,0,1-3.2-1.51v4.38H96.67ZM104.55,47v0a2.15,2.15,0,1,0-4.28,0v0a2.15,2.15,0,1,0,4.28,0Z"/><path class="cls-2" d="M109.34,47.06v0a5.26,5.26,0,0,1,5.29-5.49c3.63,0,5.29,2.66,5.29,5.74,0,.23,0,.5,0,.75h-7a2.16,2.16,0,0,0,2.26,1.73,3.16,3.16,0,0,0,2.33-1.07l2,1.69A5.47,5.47,0,0,1,115,52.5,5.28,5.28,0,0,1,109.34,47.06Zm7.13-.92a1.86,1.86,0,0,0-1.82-1.89c-1,0-1.63.75-1.82,1.89Z"/><path class="cls-2" d="M121.49,41.77h3.68v2.11a3.2,3.2,0,0,1,3.32-2.29v3.88h-.31c-1.92,0-3,1.1-3,3.52v3.26h-3.68Z"/><path class="cls-2" d="M129.79,41.77h3.68v2.11a3.2,3.2,0,0,1,3.31-2.29v3.88h-.31c-1.92,0-3,1.1-3,3.52v3.26h-3.68Z"/><path class="cls-2" d="M137.46,47.06v0a5.8,5.8,0,0,1,11.59,0v0a5.58,5.58,0,0,1-5.82,5.48A5.53,5.53,0,0,1,137.46,47.06Zm8,0v0a2.28,2.28,0,0,0-2.23-2.37A2.2,2.2,0,0,0,141.05,47v0a2.26,2.26,0,0,0,2.22,2.36A2.19,2.19,0,0,0,145.46,47.06Z"/><path class="cls-2" d="M149.76,50.93l1.38-2.23a6.76,6.76,0,0,0,3.61,1.2c.63,0,.93-.19.93-.56v0c0-.4-.59-.58-1.69-.89-2.07-.54-3.72-1.24-3.72-3.35v0c0-2.23,1.78-3.47,4.2-3.47a8.27,8.27,0,0,1,4.33,1.22l-1.26,2.33a7.13,7.13,0,0,0-3.1-1c-.57,0-.86.21-.86.5v0c0,.41.6.6,1.71.93,2.07.58,3.72,1.3,3.72,3.34v0c0,2.31-1.73,3.51-4.28,3.51A8.46,8.46,0,0,1,149.76,50.93Z"/><path class="cls-1" d="M160.37,48.47h3.83v3.78h-3.83Z"/><path class="cls-1" d="M165.4,47.06v0A5.45,5.45,0,0,1,171,41.55a5,5,0,0,1,4.48,2.35L173,45.76a2.25,2.25,0,0,0-2-1.11A2.18,2.18,0,0,0,169,47v0a2.17,2.17,0,0,0,2.09,2.38,2.52,2.52,0,0,0,2-1.08l2.46,1.78a5.21,5.21,0,0,1-4.67,2.4A5.41,5.41,0,0,1,165.4,47.06Z"/><path class="cls-1" d="M176.14,47.06v0a5.8,5.8,0,0,1,11.59,0v0a5.81,5.81,0,0,1-11.59,0Zm8,0v0a2.28,2.28,0,0,0-2.22-2.37A2.2,2.2,0,0,0,179.73,47v0A2.27,2.27,0,0,0,182,49.38,2.19,2.19,0,0,0,184.14,47.06Z"/><path class="cls-1" d="M189.28,41.77H193V43.2a3.86,3.86,0,0,1,3.12-1.67,3.2,3.2,0,0,1,3,1.71,4.41,4.41,0,0,1,3.51-1.71c2.23,0,3.59,1.4,3.59,3.84v6.88h-3.69v-5.7c0-1.14-.56-1.74-1.43-1.74s-1.51.6-1.51,1.74v5.7h-3.68v-5.7c0-1.14-.56-1.74-1.44-1.74s-1.49.6-1.49,1.74v5.7h-3.68Z"/><path class="cls-1" d="M207.94,48.47h3.84v3.78h-3.84Z"/><path class="cls-1" d="M213.6,41.77h3.68V43.2a3.86,3.86,0,0,1,3.12-1.67,3.22,3.22,0,0,1,3,1.71,4.39,4.39,0,0,1,3.5-1.71c2.23,0,3.59,1.4,3.59,3.84v6.88h-3.68v-5.7c0-1.14-.57-1.74-1.44-1.74s-1.51.6-1.51,1.74v5.7h-3.68v-5.7c0-1.14-.56-1.74-1.44-1.74s-1.49.6-1.49,1.74v5.7H213.6Z"/><path class="cls-1" d="M235.11,47l-3.47-5.19h4l1.55,2.57,1.55-2.57h3.89l-3.45,5.17,3.53,5.31h-3.95l-1.63-2.69-1.65,2.69h-3.87Z"/><path class="cls-3" d="M57.78,33.2,36.06,18.07a1.61,1.61,0,0,0-1.85,0L12.48,33.2a1.64,1.64,0,0,0-.6,1.85l8.3,24.49a1.61,1.61,0,0,0,1.53,1.09H48.56a1.62,1.62,0,0,0,1.53-1.09l8.3-24.49A1.63,1.63,0,0,0,57.78,33.2ZM38,57.41H31.65V48.7A3,3,0,0,1,34.82,46,3,3,0,0,1,38,48.7Zm9.42,0H41.22V48.7c0-3-2.87-5.38-6.4-5.38s-6.39,2.41-6.39,5.38v8.71H22.86L15.32,35.16l19.81-13.8,19.81,13.8Z"/><path class="cls-3" d="M64,32.08a1.63,1.63,0,0,1-1.31.66,1.56,1.56,0,0,1-.94-.31L35.08,13,8.64,32.43a1.59,1.59,0,0,1-1,.31,1.57,1.57,0,0,1-1.3-.66,1.61,1.61,0,0,1,.34-2.25L34.1,9.73a1.49,1.49,0,0,1,.62-.27l.17,0a1.15,1.15,0,0,1,.37,0l.16,0a1.7,1.7,0,0,1,.52.22.19.19,0,0,1,.1.05L63.68,29.82A1.63,1.63,0,0,1,64,32.08Z"/><path class="cls-3" d="M35.94,9.68a1.7,1.7,0,0,0-.52-.22A1.19,1.19,0,0,1,35.94,9.68Z"/><path class="cls-3" d="M42.38,36.68c-.14-.2-.14-.27,0-.46a2.3,2.3,0,0,0,.37-1.65,2.84,2.84,0,0,0-2.57-2.42,2.87,2.87,0,0,0-2.91,2c-1.65,0-3.3,0-5,0a2.87,2.87,0,0,0-1.58-1.71,2.7,2.7,0,0,0-2.19,0,2.87,2.87,0,0,0-1.56,1.78,2.72,2.72,0,0,0,.39,2.28.26.26,0,0,1-.05.11,2.5,2.5,0,0,0-.44,1.64,2.81,2.81,0,0,0,2.52,2.54,1.77,1.77,0,0,0,.32,0,2.75,2.75,0,0,0,2.57-1.87.45.45,0,0,1,0-.08.23.23,0,0,1,.14,0c1.57,0,3.15,0,4.73,0h.18s0,0,.08.16a2.73,2.73,0,0,0,3.15,1.72A2.83,2.83,0,0,0,42.77,38v0A2.51,2.51,0,0,0,42.38,36.68Zm-1.15,2.26a1.52,1.52,0,0,1-1.69.56,1.36,1.36,0,0,1-1.13-1.24c0-.56-.35-.67-.81-.67-.94,0-1.88,0-2.83,0h0c-.94,0-1.88,0-2.83,0-.46,0-.75.12-.8.68A1.38,1.38,0,0,1,30,39.5a1.52,1.52,0,0,1-1.69-.56,1.36,1.36,0,0,1-.12-1.67,1.3,1.3,0,0,0,0-1.67,1.36,1.36,0,0,1,.14-1.67A1.52,1.52,0,0,1,30,33.4a1.46,1.46,0,0,1,1.13,1.2c.14.65.17.7.81.7,1.86,0,3.71,0,5.57,0,.7,0,.7,0,.87-.74a1.5,1.5,0,0,1,1.16-1.18,1.55,1.55,0,0,1,1.68.59,1.34,1.34,0,0,1,.11,1.63,1.31,1.31,0,0,0,0,1.67A1.34,1.34,0,0,1,41.23,38.94Z"/></g></g></svg>