<svg xmlns="http://www.w3.org/2000/svg" viewBox="0 0 242.73 70.33"><defs><style>.cls-1{fill:#1d1d1b;}.cls-2{fill:#2fac66;}.cls-3{fill:#fff;}</style></defs><title>Logo_negro</title><g id="Capa_2" data-name="Capa 2"><g id="Capa_1-2" data-name="Capa 1"><path class="cls-1" d="M96.86,25.17v0a6.83,6.83,0,0,1,7-6.91A6.52,6.52,0,0,1,109.51,21l-2.77,2.15a3.57,3.57,0,0,0-2.91-1.56,3.29,3.29,0,0,0-3.17,3.52v0a3.29,3.29,0,0,0,3.17,3.56,3.63,3.63,0,0,0,3-1.62l2.77,2a6.69,6.69,0,0,1-5.88,3A6.76,6.76,0,0,1,96.86,25.17Z"/><path class="cls-1" d="M110.37,26.69v0a5.15,5.15,0,0,1,5.18-5.37c3.55,0,5.19,2.6,5.19,5.62,0,.23,0,.49,0,.74h-6.88a2.13,2.13,0,0,0,2.23,1.69,3.09,3.09,0,0,0,2.27-1l2,1.65A5.39,5.39,0,0,1,115.88,32,5.17,5.17,0,0,1,110.37,26.69Zm7-.89c-.14-1.14-.8-1.86-1.79-1.86s-1.59.74-1.78,1.86Z"/><path class="cls-1" d="M121.5,30.49l1.35-2.18a6.75,6.75,0,0,0,3.53,1.17c.63,0,.91-.19.91-.55v0c0-.39-.57-.56-1.65-.87-2-.53-3.65-1.22-3.65-3.29v0c0-2.19,1.75-3.4,4.13-3.4a8,8,0,0,1,4.23,1.19l-1.23,2.28a7,7,0,0,0-3-.95c-.55,0-.84.21-.84.5v0c0,.4.59.59,1.67.92,2,.57,3.65,1.27,3.65,3.26v0c0,2.26-1.69,3.44-4.2,3.44A8.24,8.24,0,0,1,121.5,30.49Z"/><path class="cls-1" d="M132.48,28.59V24.41h-1.22V21.5h1.22V18.9h3.61v2.6h2.39v2.91h-2.39v3.48c0,.72.32,1,1,1a3.19,3.19,0,0,0,1.37-.34V31.4a5.17,5.17,0,0,1-2.51.59C133.77,32,132.48,31,132.48,28.59Z"/><path class="cls-1" d="M139.34,26.69v0a5.69,5.69,0,0,1,11.36,0v0A5.47,5.47,0,0,1,145,32,5.42,5.42,0,0,1,139.34,26.69Zm7.85,0v0A2.24,2.24,0,0,0,145,24.33a2.16,2.16,0,0,0-2.15,2.29v0A2.23,2.23,0,0,0,145,29,2.15,2.15,0,0,0,147.19,26.69Z"/><path class="cls-1" d="M151.4,30.49l1.35-2.18a6.75,6.75,0,0,0,3.54,1.17c.62,0,.91-.19.91-.55v0c0-.39-.57-.56-1.66-.87-2-.53-3.64-1.22-3.64-3.29v0c0-2.19,1.75-3.4,4.12-3.4a8.05,8.05,0,0,1,4.24,1.19L159,24.77a6.91,6.91,0,0,0-3-.95c-.55,0-.83.21-.83.5v0c0,.4.59.59,1.67.92,2,.57,3.65,1.27,3.65,3.26v0c0,2.26-1.7,3.44-4.2,3.44A8.29,8.29,0,0,1,151.4,30.49Z"/><path class="cls-1" d="M166.83,26.69v0c0-3.34,2.09-5.37,4.52-5.37a3.94,3.94,0,0,1,3.16,1.48V17.91h3.61V31.78h-3.61V30.41a3.82,3.82,0,0,1-3.14,1.6C168.94,32,166.83,30,166.83,26.69Zm7.73,0v0a2.11,2.11,0,1,0-4.2,0v0a2.11,2.11,0,1,0,4.2,0Z"/><path class="cls-1" d="M179.64,26.69v0a5.15,5.15,0,0,1,5.18-5.37c3.56,0,5.19,2.6,5.19,5.62,0,.23,0,.49,0,.74h-6.88a2.13,2.13,0,0,0,2.23,1.69,3.11,3.11,0,0,0,2.28-1l2,1.65A5.39,5.39,0,0,1,185.15,32,5.17,5.17,0,0,1,179.64,26.69Zm7-.89a1.83,1.83,0,0,0-1.79-1.86c-1,0-1.59.74-1.78,1.86Z"/><path class="cls-1" d="M100.71,50.65V51.9H97.1V38h3.61v5a3.81,3.81,0,0,1,3.12-1.6c2.45,0,4.56,2,4.56,5.32v0c0,3.35-2.11,5.38-4.54,5.38A3.87,3.87,0,0,1,100.71,50.65Zm4.13-3.88v0a2.11,2.11,0,1,0-4.2,0v0a2.11,2.11,0,1,0,4.2,0Z"/><path class="cls-1" d="M109.43,49v0c0-2.13,1.62-3.23,4-3.23a7.86,7.86,0,0,1,2.47.4v-.17c0-1.07-.66-1.68-2.05-1.68a7.26,7.26,0,0,0-2.83.57l-.74-2.54a10.23,10.23,0,0,1,4.16-.8,5.29,5.29,0,0,1,3.91,1.25,4.3,4.3,0,0,1,1.1,3.27V51.9h-3.57V50.84a3.9,3.9,0,0,1-3,1.29C110.94,52.13,109.43,51,109.43,49Zm6.54-.78V47.7a3.81,3.81,0,0,0-1.41-.26c-1,0-1.65.51-1.65,1.27v0a1.13,1.13,0,0,0,1.27,1.12A1.66,1.66,0,0,0,116,48.18Z"/><path class="cls-1" d="M120.55,50.61l1.35-2.19a6.68,6.68,0,0,0,3.53,1.18c.63,0,.91-.19.91-.55v0c0-.4-.57-.57-1.65-.87-2-.53-3.65-1.22-3.65-3.29v0c0-2.18,1.75-3.4,4.13-3.4a8,8,0,0,1,4.23,1.2l-1.23,2.28a7,7,0,0,0-3-1c-.55,0-.84.21-.84.49v0c0,.4.59.59,1.67.91,2,.57,3.65,1.28,3.65,3.27v0c0,2.26-1.69,3.44-4.2,3.44A8.31,8.31,0,0,1,120.55,50.61Z"/><path class="cls-1" d="M131,48.35V41.62h3.61v5.57c0,1.12.59,1.73,1.46,1.73s1.5-.61,1.5-1.73V41.62h3.61V51.9h-3.61V50.49a3.76,3.76,0,0,1-3.08,1.64C132.33,52.13,131,50.68,131,48.35Z"/><path class="cls-1" d="M143.14,41.62h3.61v2.07A3.16,3.16,0,0,1,150,41.45v3.8h-.31c-1.88,0-2.94,1.08-2.94,3.46V51.9h-3.61Z"/><path class="cls-1" d="M150.28,49v0c0-2.13,1.62-3.23,4-3.23a7.86,7.86,0,0,1,2.47.4v-.17c0-1.07-.66-1.68-2.05-1.68a7.26,7.26,0,0,0-2.83.57l-.74-2.54a10.23,10.23,0,0,1,4.16-.8,5.31,5.31,0,0,1,3.91,1.25,4.3,4.3,0,0,1,1.1,3.27V51.9h-3.57V50.84a3.9,3.9,0,0,1-3,1.29C151.78,52.13,150.28,51,150.28,49Zm6.54-.78V47.7a3.86,3.86,0,0,0-1.41-.26c-1,0-1.65.51-1.65,1.27v0A1.13,1.13,0,0,0,155,49.87,1.66,1.66,0,0,0,156.82,48.18Z"/><path class="cls-2" d="M162,48.2h3.77v3.7H162Z"/><path class="cls-2" d="M167,46.81v0a5.34,5.34,0,0,1,5.51-5.36,4.87,4.87,0,0,1,4.39,2.3l-2.45,1.83a2.2,2.2,0,0,0-1.92-1.09,2.13,2.13,0,0,0-2,2.28v0a2.13,2.13,0,0,0,2.05,2.34,2.47,2.47,0,0,0,2-1.07l2.41,1.75a5.1,5.1,0,0,1-4.58,2.36A5.3,5.3,0,0,1,167,46.81Z"/><path class="cls-2" d="M177.49,46.81v0a5.69,5.69,0,0,1,11.36,0v0a5.69,5.69,0,0,1-11.36,0Zm7.84,0v0a2.23,2.23,0,0,0-2.18-2.32A2.16,2.16,0,0,0,181,46.73v0a2.24,2.24,0,0,0,2.19,2.32A2.15,2.15,0,0,0,185.33,46.81Z"/><path class="cls-2" d="M190.37,41.62H194V43A3.78,3.78,0,0,1,197,41.39a3.14,3.14,0,0,1,3,1.68,4.33,4.33,0,0,1,3.44-1.68c2.19,0,3.52,1.37,3.52,3.77V51.9h-3.61V46.31c0-1.12-.56-1.71-1.41-1.71s-1.48.59-1.48,1.71V51.9h-3.61V46.31c0-1.12-.55-1.71-1.41-1.71s-1.46.59-1.46,1.71V51.9h-3.61Z"/><path class="cls-2" d="M208.67,48.2h3.76v3.7h-3.76Z"/><path class="cls-2" d="M214.21,41.62h3.61V43a3.78,3.78,0,0,1,3.06-1.64,3.15,3.15,0,0,1,3,1.68,4.3,4.3,0,0,1,3.44-1.68c2.18,0,3.51,1.37,3.51,3.77V51.9h-3.61V46.31c0-1.12-.55-1.71-1.41-1.71s-1.48.59-1.48,1.71V51.9h-3.61V46.31c0-1.12-.55-1.71-1.4-1.71s-1.47.59-1.47,1.71V51.9h-3.61Z"/><path class="cls-2" d="M235.3,46.71l-3.4-5.09h3.9l1.52,2.53,1.52-2.53h3.82l-3.39,5.07,3.46,5.21h-3.87l-1.6-2.64-1.61,2.64h-3.8Z"/><circle class="cls-2" cx="35.16" cy="35.16" r="35.16"/><rect class="cls-2" x="81.59" y="6.96" width="4.55" height="56.64"/><path class="cls-3" d="M54.85,13.75a3.14,3.14,0,0,0-2.23-.92H16.87a3.16,3.16,0,0,0-2.24.92,2.65,2.65,0,0,0-.77,2.15L18,56.17a5.71,5.71,0,0,0,5.86,4.95h22a5.7,5.7,0,0,0,5.86-5l3.93-40.26A2.67,2.67,0,0,0,54.85,13.75ZM49.13,55.93a3.2,3.2,0,0,1-3.29,2.79h-22a3.2,3.2,0,0,1-3.29-2.78L17.05,21.79H52.46ZM52.7,19.4H16.8l-.38-3.72a.42.42,0,0,1,.12-.32.46.46,0,0,1,.33-.13H52.62a.46.46,0,0,1,.33.13.42.42,0,0,1,.11.32Z"/><path class="cls-3" d="M28.05,53.58h.11a1,1,0,0,0,.89-1.1L26.47,28.71a1,1,0,0,0-1.1-.89,1,1,0,0,0-.88,1.1l2.57,23.76A1,1,0,0,0,28.05,53.58Z"/><path class="cls-3" d="M34.76,53.58a1,1,0,0,0,1-1v-24a1,1,0,1,0-2,0v24A1,1,0,0,0,34.76,53.58Z"/><path class="cls-3" d="M41.68,53.53h.11a1,1,0,0,0,1-.89l2.66-23.73a1,1,0,0,0-.88-1.1,1,1,0,0,0-1.1.88L40.79,52.43A1,1,0,0,0,41.68,53.53Z"/></g></g></svg>