<svg id="Capa_1" data-name="Capa 1" xmlns="http://www.w3.org/2000/svg" viewBox="0 0 283.46 85.04"><defs><style>.cls-1{fill:#95c11f;}.cls-2{fill:#fff;}.cls-3{fill:#1d1d1b;}</style></defs><rect class="cls-1" x="95.53" y="14.06" width="4.53" height="56.31"/><circle class="cls-1" cx="49.57" cy="42.6" r="34.96"/><path class="cls-2" d="M60.42,68.52H40.26A8.25,8.25,0,0,1,32,60.28V31.5a1.13,1.13,0,0,1,1.13-1.13H67.53a1.13,1.13,0,0,1,1.13,1.13V60.28A8.25,8.25,0,0,1,60.42,68.52ZM34.28,32.63V60.28a6,6,0,0,0,6,6H60.42a6,6,0,0,0,6-6V32.63Z"/><path class="cls-2" d="M33.17,28.91a1.12,1.12,0,0,1-1.12-1L32,27.38a8.26,8.26,0,0,1,7.17-9.21l4.07-.51a1.13,1.13,0,0,1,.42,2.22.78.78,0,0,1-.26,0l-3.94.5a6,6,0,0,0-5.26,6.09L66,22.57a6,6,0,0,0-6.57-4.64l-4.24.52a1.13,1.13,0,0,1-.28-2.24l4.24-.53a8.26,8.26,0,0,1,9.2,7.17l.07.55a1.14,1.14,0,0,1-1,1.27L33.31,28.9Z"/><path class="cls-2" d="M43.35,19.92a1.13,1.13,0,0,1-1.12-1l-.07-.6a3.41,3.41,0,0,1,3-3.79l7.2-.89a3.37,3.37,0,0,1,3.78,3l.08.59a1.14,1.14,0,0,1-1,1.26,1.12,1.12,0,0,1-1.26-1l-.07-.6a1.13,1.13,0,0,0-.43-.75,1.08,1.08,0,0,0-.83-.23l-7.2.89a1.15,1.15,0,0,0-1,1.28l.08.59a1.14,1.14,0,0,1-1,1.26Z"/><path class="cls-2" d="M51,38.38l2.59,2.94,1.15,1.31L51,46.87V45.74a.4.4,0,0,0-.34-.39,9.81,9.81,0,0,0-1.24-.08,9.13,9.13,0,0,0-8.15,5,8.31,8.31,0,0,1,8.15-10.08,6.75,6.75,0,0,1,1.13.08h.06a.38.38,0,0,0,.25-.09.39.39,0,0,0,.14-.3V38.38m0-1.69a1.52,1.52,0,0,0-.6.11,1.7,1.7,0,0,0-1.1,1.58v.15a10,10,0,0,0-9.91,10,10.48,10.48,0,0,0,.21,2.08A1.7,1.7,0,0,0,41,52h.22a1.69,1.69,0,0,0,1.51-.93A7.51,7.51,0,0,1,49.26,47a1.7,1.7,0,0,0,3,1L56,43.75a1.72,1.72,0,0,0,0-2.25l-1.16-1.3-2.59-2.94A1.71,1.71,0,0,0,51,36.69Z"/><path class="cls-2" d="M58.29,47.62A8.36,8.36,0,0,1,50.13,57.7,8,8,0,0,1,49,57.62H49a.39.39,0,0,0-.25.1.37.37,0,0,0-.14.29v1.54L46,56.6l-1.15-1.3,3.75-4.25v1.14a.38.38,0,0,0,.34.38,8.18,8.18,0,0,0,1.23.09,9.15,9.15,0,0,0,8.16-5m0-1.7a1.71,1.71,0,0,0-1.52.94A7.51,7.51,0,0,1,50.25,51a1.68,1.68,0,0,0-1.09-1.49,1.56,1.56,0,0,0-.6-.11,1.69,1.69,0,0,0-1.27.57l-3.75,4.24a1.69,1.69,0,0,0,0,2.25l1.15,1.31,2.6,2.93a1.67,1.67,0,0,0,1.27.58,1.77,1.77,0,0,0,.6-.11,1.7,1.7,0,0,0,1.1-1.59v-.15a10,10,0,0,0,9.91-10A9.83,9.83,0,0,0,60,47.27a1.68,1.68,0,0,0-1.44-1.33l-.22,0Z"/><path class="cls-3" d="M112.34,24.4H123v3.12h-7v2h6.35v2.89H116V34.5h7.1v3.12H112.34Z"/><path class="cls-3" d="M124,36.34l1.34-2.18a6.6,6.6,0,0,0,3.52,1.17c.62,0,.9-.18.9-.54v0c0-.4-.56-.57-1.64-.87-2-.53-3.63-1.21-3.63-3.27v0c0-2.18,1.74-3.39,4.1-3.39a8,8,0,0,1,4.21,1.19l-1.22,2.27a7,7,0,0,0-3-.94c-.54,0-.83.2-.83.49v0c0,.4.59.59,1.67.91,2,.57,3.62,1.27,3.62,3.25v0c0,2.25-1.68,3.42-4.17,3.42A8.26,8.26,0,0,1,124,36.34Z"/><path class="cls-3" d="M134.87,34.45V30.29h-1.21V27.4h1.21V24.81h3.59V27.4h2.38v2.89h-2.38v3.46c0,.72.32,1,1,1a3.11,3.11,0,0,0,1.36-.34v2.81a5.09,5.09,0,0,1-2.49.59C136.16,37.83,134.87,36.88,134.87,34.45Z"/><path class="cls-3" d="M141.88,34.69v0c0-2.11,1.6-3.21,4-3.21a7.79,7.79,0,0,1,2.46.4v-.17c0-1.06-.66-1.66-2-1.66a7.21,7.21,0,0,0-2.82.57L142.75,28a10.29,10.29,0,0,1,4.13-.79,5.24,5.24,0,0,1,3.89,1.25,4.24,4.24,0,0,1,1.1,3.25v5.87h-3.55V36.56a3.84,3.84,0,0,1-3,1.29C143.37,37.85,141.88,36.73,141.88,34.69Zm6.5-.77v-.47a3.6,3.6,0,0,0-1.4-.27c-1,0-1.64.51-1.64,1.27v0a1.12,1.12,0,0,0,1.26,1.12A1.64,1.64,0,0,0,148.38,33.92Z"/><path class="cls-3" d="M153.29,32.56v0a5.31,5.31,0,0,1,5.48-5.33,4.84,4.84,0,0,1,4.36,2.29l-2.44,1.81a2.2,2.2,0,0,0-1.91-1.07,2.12,2.12,0,0,0-2,2.26v0a2.12,2.12,0,0,0,2,2.32,2.46,2.46,0,0,0,2-1.05l2.39,1.73a5.06,5.06,0,0,1-4.55,2.35A5.27,5.27,0,0,1,153.29,32.56Z"/><path class="cls-3" d="M164.45,23.83h3.74v2.65h-3.74Zm.08,3.57h3.59V37.62h-3.59Z"/><path class="cls-3" d="M169.7,32.56v0a5.66,5.66,0,0,1,11.3,0v0a5.45,5.45,0,0,1-5.67,5.35A5.39,5.39,0,0,1,169.7,32.56Zm7.8,0v0a2.2,2.2,0,0,0-2.17-2.3,2.13,2.13,0,0,0-2.13,2.26v0a2.2,2.2,0,0,0,2.17,2.3A2.13,2.13,0,0,0,177.5,32.56Z"/><path class="cls-3" d="M182.51,27.4h3.59v1.44a3.78,3.78,0,0,1,3.06-1.66c2.17,0,3.47,1.43,3.47,3.75v6.69H189V32.09c0-1.12-.58-1.72-1.43-1.72a1.51,1.51,0,0,0-1.51,1.72v5.53h-3.59Z"/><path class="cls-3" d="M194.07,32.56v0a5.12,5.12,0,0,1,5.15-5.34c3.53,0,5.16,2.58,5.16,5.59,0,.22,0,.49,0,.73h-6.84a2.11,2.11,0,0,0,2.21,1.68,3.09,3.09,0,0,0,2.27-1l2,1.65a5.37,5.37,0,0,1-4.44,2.08A5.14,5.14,0,0,1,194.07,32.56Zm7-.89c-.14-1.13-.8-1.85-1.78-1.85s-1.58.74-1.77,1.85Z"/><path class="cls-3" d="M205.14,36.34l1.34-2.18A6.57,6.57,0,0,0,210,35.33c.62,0,.91-.18.91-.54v0c0-.4-.57-.57-1.65-.87-2-.53-3.62-1.21-3.62-3.27v0c0-2.18,1.73-3.39,4.1-3.39a8,8,0,0,1,4.21,1.19l-1.23,2.27a7,7,0,0,0-3-.94c-.55,0-.83.2-.83.49v0c0,.4.58.59,1.66.91,2,.57,3.62,1.27,3.62,3.25v0c0,2.25-1.68,3.42-4.17,3.42A8.21,8.21,0,0,1,205.14,36.34Z"/><path class="cls-3" d="M112.13,47.4h3.59v2.06A3.13,3.13,0,0,1,119,47.23V51h-.31c-1.86,0-2.92,1.08-2.92,3.44v3.17h-3.59Z"/><path class="cls-3" d="M119.61,52.56v0a5.12,5.12,0,0,1,5.16-5.34c3.53,0,5.15,2.58,5.15,5.59,0,.22,0,.49,0,.73h-6.83a2.1,2.1,0,0,0,2.21,1.68,3.05,3.05,0,0,0,2.26-1l2,1.65a5.35,5.35,0,0,1-4.43,2.08A5.15,5.15,0,0,1,119.61,52.56Zm7-.89a1.82,1.82,0,0,0-1.78-1.85c-.94,0-1.58.74-1.77,1.85Z"/><path class="cls-3" d="M131,52.56v0a5.3,5.3,0,0,1,5.47-5.33,4.84,4.84,0,0,1,4.37,2.29l-2.44,1.81a2.2,2.2,0,0,0-1.91-1.07,2.12,2.12,0,0,0-2,2.26v0a2.12,2.12,0,0,0,2,2.32,2.46,2.46,0,0,0,2-1.05l2.39,1.73a5.06,5.06,0,0,1-4.55,2.35A5.27,5.27,0,0,1,131,52.56Z"/><path class="cls-3" d="M142.2,43.83h3.74v2.65H142.2Zm.08,3.57h3.58V57.62h-3.58Z"/><path class="cls-3" d="M147.45,52.56v0a5.31,5.31,0,0,1,5.48-5.33,4.84,4.84,0,0,1,4.36,2.29l-2.44,1.81a2.18,2.18,0,0,0-1.9-1.07,2.11,2.11,0,0,0-2,2.26v0a2.12,2.12,0,0,0,2,2.32,2.46,2.46,0,0,0,2-1.05l2.4,1.73a5.08,5.08,0,0,1-4.55,2.35A5.28,5.28,0,0,1,147.45,52.56Z"/><path class="cls-3" d="M158.69,43.83h3.59V57.62h-3.59Z"/><path class="cls-3" d="M163.77,54.69v0c0-2.11,1.61-3.21,4-3.21a7.79,7.79,0,0,1,2.46.4v-.17c0-1.06-.66-1.66-2-1.66a7.12,7.12,0,0,0-2.81.57L164.64,48a10.29,10.29,0,0,1,4.13-.79,5.28,5.28,0,0,1,3.9,1.25,4.27,4.27,0,0,1,1.09,3.25v5.87h-3.55V56.56a3.84,3.84,0,0,1-3,1.29C165.26,57.85,163.77,56.73,163.77,54.69Zm6.5-.77v-.47a3.6,3.6,0,0,0-1.4-.27c-1,0-1.64.51-1.64,1.27v0a1.12,1.12,0,0,0,1.26,1.12A1.64,1.64,0,0,0,170.27,53.92Z"/><path class="cls-3" d="M174.14,60.57V58.19a3.7,3.7,0,0,0,.47,0c.7,0,1.06-.31,1.06-1.19V47.4h3.59v9.77c0,2.58-1.32,3.53-3.65,3.53A11.81,11.81,0,0,1,174.14,60.57Zm1.45-16.74h3.74v2.65h-3.74Z"/><path class="cls-3" d="M180.88,52.56v0A5.13,5.13,0,0,1,186,47.18c3.53,0,5.16,2.58,5.16,5.59,0,.22,0,.49,0,.73h-6.84a2.1,2.1,0,0,0,2.21,1.68,3.09,3.09,0,0,0,2.27-1l2,1.65a5.37,5.37,0,0,1-4.44,2.08A5.15,5.15,0,0,1,180.88,52.56Zm7-.89a1.82,1.82,0,0,0-1.77-1.85c-.95,0-1.59.74-1.78,1.85Z"/><path class="cls-1" d="M192.48,53.94h3.74v3.68h-3.74Z"/><path class="cls-1" d="M197.39,52.56v0a5.31,5.31,0,0,1,5.48-5.33,4.83,4.83,0,0,1,4.36,2.29l-2.43,1.81a2.21,2.21,0,0,0-1.91-1.07,2.12,2.12,0,0,0-2,2.26v0a2.12,2.12,0,0,0,2,2.32,2.44,2.44,0,0,0,2-1.05l2.4,1.73a5.08,5.08,0,0,1-4.55,2.35A5.28,5.28,0,0,1,197.39,52.56Z"/><path class="cls-1" d="M207.86,52.56v0a5.65,5.65,0,0,1,11.29,0v0a5.65,5.65,0,0,1-11.29,0Zm7.8,0v0a2.21,2.21,0,0,0-2.17-2.3,2.13,2.13,0,0,0-2.14,2.26v0a2.21,2.21,0,0,0,2.17,2.3A2.13,2.13,0,0,0,215.66,52.56Z"/><path class="cls-1" d="M220.66,47.4h3.59v1.4a3.75,3.75,0,0,1,3-1.62,3.13,3.13,0,0,1,3,1.66,4.29,4.29,0,0,1,3.42-1.66c2.17,0,3.49,1.36,3.49,3.74v6.7h-3.59V52.07c0-1.12-.55-1.7-1.4-1.7s-1.47.58-1.47,1.7v5.55H227.1V52.07c0-1.12-.55-1.7-1.39-1.7s-1.46.58-1.46,1.7v5.55h-3.59Z"/><path class="cls-3" d="M220.94,27h3.69v1.4a3.87,3.87,0,0,1,3.19-1.63c2.51,0,4.66,2.08,4.66,5.44v0c0,3.42-2.15,5.5-4.64,5.5a4,4,0,0,1-3.21-1.51v4.39h-3.69Zm7.91,5.27v0a2.16,2.16,0,1,0-4.3,0v0a2.16,2.16,0,1,0,4.3,0Z"/><path class="cls-3" d="M233.55,34.5v0c0-2.18,1.65-3.31,4.12-3.31a8.24,8.24,0,0,1,2.53.41v-.17c0-1.09-.68-1.71-2.1-1.71a7.39,7.39,0,0,0-2.9.58l-.76-2.6a10.51,10.51,0,0,1,4.26-.82,5.4,5.4,0,0,1,4,1.28,4.4,4.4,0,0,1,1.13,3.35v6h-3.65V36.42a4,4,0,0,1-3.09,1.32C235.08,37.74,233.55,36.6,233.55,34.5Zm6.68-.8v-.48a3.71,3.71,0,0,0-1.43-.28c-1.07,0-1.69.53-1.69,1.31v0a1.16,1.16,0,0,0,1.3,1.15A1.68,1.68,0,0,0,240.23,33.7Z"/><path class="cls-3" d="M245.71,27h3.7v2.12a3.2,3.2,0,0,1,3.32-2.29v3.89h-.31c-1.93,0-3,1.1-3,3.54v3.26h-3.7Z"/><path class="cls-3" d="M253.73,34.74v0c0-2.18,1.65-3.31,4.12-3.31a8.19,8.19,0,0,1,2.53.41v-.17c0-1.09-.68-1.71-2.1-1.71a7.39,7.39,0,0,0-2.9.58l-.76-2.61a10.7,10.7,0,0,1,4.26-.81,5.4,5.4,0,0,1,4,1.28A4.42,4.42,0,0,1,264,31.7v6.05h-3.65V36.66A4,4,0,0,1,257.27,38C255.27,38,253.73,36.84,253.73,34.74Zm6.69-.8v-.49a4,4,0,0,0-1.44-.27c-1.07,0-1.69.53-1.69,1.3v0a1.16,1.16,0,0,0,1.3,1.15A1.69,1.69,0,0,0,260.42,33.94Z"/></svg>