<svg xmlns="http://www.w3.org/2000/svg" viewBox="0 0 280.06 70.86"><defs><style>.cls-1{fill:#1d1d1b;}.cls-2{fill:#b7a60e;}.cls-3{fill:#fff;}</style></defs><title>Logo_negro</title><g id="Capa_2" data-name="Capa 2"><g id="macetas"><path class="cls-1" d="M97.76,18.92h3.93l3.19,5.19,3.2-5.19H112v13.4h-3.69v-7.7l-3.43,5.25h-.07l-3.41-5.21v7.66H97.76Z"/><path class="cls-1" d="M113.65,29.35v0c0-2.14,1.63-3.25,4.06-3.25a8,8,0,0,1,2.49.4v-.17c0-1.07-.67-1.69-2.07-1.69a7.18,7.18,0,0,0-2.85.58l-.75-2.57a10.55,10.55,0,0,1,4.19-.8,5.31,5.31,0,0,1,3.94,1.26,4.31,4.31,0,0,1,1.11,3.29v6h-3.59V31.24a3.9,3.9,0,0,1-3.05,1.3C115.16,32.54,113.65,31.42,113.65,29.35Zm6.58-.78v-.48a3.65,3.65,0,0,0-1.41-.27c-1,0-1.67.51-1.67,1.28v0a1.15,1.15,0,0,0,1.29,1.13A1.66,1.66,0,0,0,120.23,28.57Z"/><path class="cls-1" d="M125.21,27.19v0a5.38,5.38,0,0,1,5.55-5.4,4.89,4.89,0,0,1,4.42,2.32l-2.46,1.83a2.26,2.26,0,0,0-1.94-1.09,2.16,2.16,0,0,0-2,2.3v0a2.15,2.15,0,0,0,2.07,2.35,2.47,2.47,0,0,0,2-1.07l2.43,1.76a5.12,5.12,0,0,1-4.61,2.37A5.34,5.34,0,0,1,125.21,27.19Z"/><path class="cls-1" d="M135.82,27.19v0A5.2,5.2,0,0,1,141,21.73c3.58,0,5.22,2.63,5.22,5.67,0,.23,0,.5,0,.74h-6.93a2.14,2.14,0,0,0,2.24,1.71,3.1,3.1,0,0,0,2.29-1.06l2,1.67a5.42,5.42,0,0,1-4.49,2.1A5.2,5.2,0,0,1,135.82,27.19Zm7-.9a1.85,1.85,0,0,0-1.8-1.88c-1,0-1.61.75-1.8,1.88Z"/><path class="cls-1" d="M148.45,29.1V24.89h-1.22V22h1.22V19.34h3.64V22h2.41v2.93h-2.41v3.5c0,.73.32,1,1,1a3.21,3.21,0,0,0,1.38-.35v2.85a5.11,5.11,0,0,1-2.53.6C149.75,32.53,148.45,31.57,148.45,29.1Z"/><path class="cls-1" d="M155.55,29.35v0c0-2.14,1.63-3.25,4.06-3.25a8,8,0,0,1,2.49.4v-.17c0-1.07-.67-1.69-2.07-1.69a7.18,7.18,0,0,0-2.85.58l-.75-2.57a10.55,10.55,0,0,1,4.19-.8,5.36,5.36,0,0,1,3.95,1.26,4.35,4.35,0,0,1,1.1,3.29v6h-3.59V31.24a3.9,3.9,0,0,1-3,1.3C157.06,32.54,155.55,31.42,155.55,29.35Zm6.59-.78v-.48a3.7,3.7,0,0,0-1.42-.27c-1.05,0-1.67.51-1.67,1.28v0a1.15,1.15,0,0,0,1.29,1.13A1.67,1.67,0,0,0,162.14,28.57Z"/><path class="cls-1" d="M166.75,31l1.36-2.2A6.7,6.7,0,0,0,171.67,30c.63,0,.92-.19.92-.56v0c0-.41-.58-.58-1.67-.88-2-.54-3.67-1.23-3.67-3.31v0c0-2.2,1.76-3.43,4.15-3.43A8.08,8.08,0,0,1,175.67,23l-1.25,2.29a7,7,0,0,0-3.06-.95c-.55,0-.84.21-.84.5v0c0,.4.59.6,1.68.92,2.05.58,3.68,1.28,3.68,3.29v0c0,2.28-1.71,3.46-4.23,3.46A8.32,8.32,0,0,1,166.75,31Z"/><path class="cls-1" d="M182.29,27.19v0c0-3.37,2.11-5.42,4.56-5.42a3.92,3.92,0,0,1,3.17,1.5V18.35h3.64v14H190V30.94a3.81,3.81,0,0,1-3.15,1.6C184.42,32.54,182.29,30.5,182.29,27.19Zm7.79,0v0a2.12,2.12,0,1,0-4.23,0v0a2.13,2.13,0,1,0,4.23,0Z"/><path class="cls-1" d="M195.19,27.19v0a5.2,5.2,0,0,1,5.23-5.42c3.58,0,5.22,2.63,5.22,5.67,0,.23,0,.5,0,.74H198.7a2.13,2.13,0,0,0,2.23,1.71,3.12,3.12,0,0,0,2.3-1.06l2,1.67a5.42,5.42,0,0,1-4.5,2.1A5.21,5.21,0,0,1,195.19,27.19Zm7.05-.9c-.14-1.15-.81-1.88-1.8-1.88s-1.61.75-1.8,1.88Z"/><path class="cls-1" d="M212,29.35v0c0-2.14,1.63-3.25,4.06-3.25a8,8,0,0,1,2.49.4v-.17c0-1.07-.67-1.69-2.07-1.69a7.18,7.18,0,0,0-2.85.58l-.75-2.57a10.55,10.55,0,0,1,4.19-.8A5.31,5.31,0,0,1,221,23.07a4.31,4.31,0,0,1,1.11,3.29v6h-3.59V31.24a3.9,3.9,0,0,1-3,1.3C213.49,32.54,212,31.42,212,29.35Zm6.58-.78v-.48a3.65,3.65,0,0,0-1.41-.27c-1.05,0-1.67.51-1.67,1.28v0a1.15,1.15,0,0,0,1.29,1.13A1.66,1.66,0,0,0,218.56,28.57Z"/><path class="cls-1" d="M223.54,27.19v0a5.38,5.38,0,0,1,5.55-5.4,4.89,4.89,0,0,1,4.42,2.32L231,25.9a2.24,2.24,0,0,0-1.93-1.09,2.15,2.15,0,0,0-2,2.3v0a2.14,2.14,0,0,0,2.07,2.35,2.47,2.47,0,0,0,2-1.07l2.43,1.76A5.12,5.12,0,0,1,229,32.56,5.34,5.34,0,0,1,223.54,27.19Z"/><path class="cls-1" d="M234.15,27.19v0a5.2,5.2,0,0,1,5.22-5.42c3.58,0,5.22,2.63,5.22,5.67,0,.23,0,.5,0,.74h-6.93a2.14,2.14,0,0,0,2.24,1.71,3.1,3.1,0,0,0,2.29-1.06l2,1.67a5.42,5.42,0,0,1-4.49,2.1A5.2,5.2,0,0,1,234.15,27.19Zm7-.9a1.85,1.85,0,0,0-1.8-1.88c-1,0-1.61.75-1.8,1.88Z"/><path class="cls-1" d="M246.15,22h3.63v2.09a3.17,3.17,0,0,1,3.28-2.26v3.83h-.31c-1.89,0-3,1.09-3,3.48v3.22h-3.63Z"/><path class="cls-1" d="M253.73,27.19v0a5.73,5.73,0,0,1,11.44,0v0a5.73,5.73,0,0,1-11.44,0Zm7.9,0v0a2.25,2.25,0,0,0-2.2-2.34,2.17,2.17,0,0,0-2.16,2.3v0a2.24,2.24,0,0,0,2.2,2.33A2.16,2.16,0,0,0,261.63,27.19Z"/><path class="cls-1" d="M97.55,38.62h3.79v2.67H97.55Zm.08,3.61h3.64V52.58H97.63Z"/><path class="cls-1" d="M103.3,42.23h3.63v1.46A3.83,3.83,0,0,1,110,42c2.2,0,3.52,1.46,3.52,3.81v6.77h-3.63V47c0-1.13-.6-1.74-1.46-1.74A1.53,1.53,0,0,0,106.93,47v5.6H103.3Z"/><path class="cls-1" d="M115,47.46v0a5.73,5.73,0,0,1,11.44,0v0a5.73,5.73,0,0,1-11.44,0Zm7.9,0v0a2.24,2.24,0,0,0-2.2-2.34,2.17,2.17,0,0,0-2.16,2.3v0a2.24,2.24,0,0,0,2.2,2.33A2.16,2.16,0,0,0,122.91,47.46Z"/><path class="cls-1" d="M130,47.36l-3.43-5.13h3.93L132,44.78l1.53-2.55h3.84L134,47.34l3.48,5.24h-3.9L132,49.92l-1.63,2.66H126.5Z"/><path class="cls-1" d="M138.59,38.62h3.79v2.67h-3.79Zm.08,3.61h3.63V52.58h-3.63Z"/><path class="cls-1" d="M144,47.46v0c0-3.37,2.11-5.42,4.56-5.42a4,4,0,0,1,3.17,1.49V38.62h3.64v14h-3.64V51.21a3.82,3.82,0,0,1-3.15,1.6C146.08,52.81,144,50.77,144,47.46Zm7.79,0v0a2.13,2.13,0,1,0-4.23,0v0a2.13,2.13,0,1,0,4.23,0Z"/><path class="cls-1" d="M156.76,49.62v0c0-2.14,1.62-3.25,4.05-3.25a7.94,7.94,0,0,1,2.49.4v-.17c0-1.08-.67-1.69-2.06-1.69a7.2,7.2,0,0,0-2.86.58l-.74-2.57a10.38,10.38,0,0,1,4.19-.8,5.33,5.33,0,0,1,3.94,1.26,4.35,4.35,0,0,1,1.11,3.29v5.95h-3.6V51.51a3.87,3.87,0,0,1-3,1.3C158.27,52.81,156.76,51.68,156.76,49.62Zm6.58-.79v-.48a3.87,3.87,0,0,0-1.42-.26c-1,0-1.66.51-1.66,1.28v0a1.15,1.15,0,0,0,1.28,1.13A1.67,1.67,0,0,0,163.34,48.83Z"/><path class="cls-1" d="M172.38,51.32v1.26h-3.64v-14h3.64v5A3.78,3.78,0,0,1,175.51,42c2.47,0,4.6,2,4.6,5.36v0c0,3.37-2.13,5.41-4.58,5.41A3.88,3.88,0,0,1,172.38,51.32Zm4.15-3.9v0a2.13,2.13,0,1,0-4.23,0v0a2.13,2.13,0,1,0,4.23,0Z"/><path class="cls-1" d="M181.76,38.62h3.63v14h-3.63Z"/><path class="cls-1" d="M187,47.46v0A5.19,5.19,0,0,1,192.23,42c3.57,0,5.22,2.62,5.22,5.67,0,.23,0,.49,0,.74H190.5a2.14,2.14,0,0,0,2.24,1.7,3.13,3.13,0,0,0,2.3-1l2,1.67a5.43,5.43,0,0,1-4.5,2.1A5.21,5.21,0,0,1,187,47.46Zm7-.9c-.13-1.15-.8-1.88-1.79-1.88s-1.61.75-1.8,1.88Z"/><path class="cls-2" d="M198.76,48.85h3.78v3.73h-3.78Z"/><path class="cls-2" d="M203.73,47.46v0a5.38,5.38,0,0,1,5.55-5.4,4.9,4.9,0,0,1,4.42,2.32l-2.47,1.83a2.21,2.21,0,0,0-1.93-1.09,2.15,2.15,0,0,0-2,2.3v0a2.14,2.14,0,0,0,2.07,2.35,2.49,2.49,0,0,0,2-1.07l2.43,1.76a5.14,5.14,0,0,1-4.61,2.37A5.34,5.34,0,0,1,203.73,47.46Z"/><path class="cls-2" d="M214.34,47.46v0a5.73,5.73,0,0,1,11.44,0v0a5.73,5.73,0,0,1-11.44,0Zm7.9,0v0a2.25,2.25,0,0,0-2.2-2.34,2.17,2.17,0,0,0-2.16,2.3v0a2.24,2.24,0,0,0,2.2,2.33A2.16,2.16,0,0,0,222.24,47.46Z"/><path class="cls-2" d="M227.31,42.23H231v1.42A3.81,3.81,0,0,1,234,42a3.15,3.15,0,0,1,3,1.69A4.36,4.36,0,0,1,240.48,42c2.2,0,3.54,1.38,3.54,3.79v6.79h-3.64V47c0-1.13-.55-1.72-1.41-1.72s-1.5.59-1.5,1.72v5.62h-3.63V47c0-1.13-.56-1.72-1.42-1.72S231,45.83,231,47v5.62h-3.64Z"/><path class="cls-2" d="M245.75,48.85h3.79v3.73h-3.79Z"/><path class="cls-2" d="M251.34,42.23H255v1.42A3.81,3.81,0,0,1,258.05,42a3.17,3.17,0,0,1,3,1.69A4.34,4.34,0,0,1,264.5,42c2.2,0,3.54,1.38,3.54,3.79v6.79h-3.63V47c0-1.13-.56-1.72-1.42-1.72s-1.49.59-1.49,1.72v5.62h-3.64V47c0-1.13-.55-1.72-1.41-1.72S255,45.83,255,47v5.62h-3.63Z"/><path class="cls-2" d="M272.58,47.36l-3.42-5.13h3.92l1.53,2.55,1.53-2.55H280l-3.41,5.11,3.48,5.24h-3.9l-1.61-2.66-1.62,2.66H269.1Z"/><circle class="cls-2" cx="35.43" cy="35.43" r="35.43"/><rect class="cls-2" x="81.93" y="7.08" width="4.59" height="57.06"/><path class="cls-3" d="M47,59.36H24.75c-3.08,0-5.62-1.59-5.91-3.7l-4.12-30A1.74,1.74,0,0,1,15.5,24a3.85,3.85,0,0,1,2.25-.68h36A3.79,3.79,0,0,1,56,24a1.73,1.73,0,0,1,.79,1.6l-4,30.05C52.57,57.76,50,59.36,47,59.36ZM17.75,25.1a.6.6,0,0,0-.33.1.25.25,0,0,0-.11.24l4.12,30.05c.16,1.19,1.59,2.08,3.32,2.08H47c1.73,0,3.16-.9,3.31-2.08l4-30a.28.28,0,0,0-.12-.24.53.53,0,0,0-.32-.1Z"/><rect class="cls-3" x="17.34" y="29.93" width="37.22" height="2.41"/><path class="cls-3" d="M48.6,12.45A16.58,16.58,0,0,0,41.88,12a7.6,7.6,0,0,0-5,2.75A9.61,9.61,0,0,0,36,16.13a9.54,9.54,0,0,0-.82-1.33A7.52,7.52,0,0,0,30.49,12a16.31,16.31,0,0,0-7.08.42.67.67,0,0,0-.47,1.06c.46.84.92,1.69,1.46,2.48a14.46,14.46,0,0,0,4.29,4.45,6,6,0,0,0,5.07.85c.52-.16,1-.41,1.52-.61v3.2a.68.68,0,0,0,.72.64.72.72,0,0,0,.72-.51V20.63l.2.09a5.9,5.9,0,0,0,2.63.8,6.41,6.41,0,0,0,4.18-1.34,18.06,18.06,0,0,0,5.39-6.71A.68.68,0,0,0,48.6,12.45ZM35.11,18.3c-.42-.14-.86-.29-1.27-.46A12.45,12.45,0,0,1,30,15.46a1.25,1.25,0,0,0-.44-.27.67.67,0,0,0-.78.35.73.73,0,0,0,.21.9,12.91,12.91,0,0,0,3.05,2.14c.64.31,1.3.56,2,.84.09,0,.17.08.29.13a4.29,4.29,0,0,1-3.47.36,7.22,7.22,0,0,1-2.79-1.72,19.19,19.19,0,0,1-3.48-4.57c.53-.09,1-.18,1.5-.25a11.58,11.58,0,0,1,4.69.18,5.89,5.89,0,0,1,4.38,4.56.34.34,0,0,1,0,.1Zm10.7-2.17a12,12,0,0,1-3.19,3.12,4.62,4.62,0,0,1-4.66.43l-.25-.14.39-.15A14.17,14.17,0,0,0,43,16.46a.75.75,0,0,0,.23-.91.68.68,0,0,0-.78-.36,1.19,1.19,0,0,0-.44.27A12.65,12.65,0,0,1,37.2,18.2l-.35.09c0-.17.06-.29.09-.42a5.93,5.93,0,0,1,4.62-4.39,13.32,13.32,0,0,1,5.69.1l.23.09C46.91,14.51,46.39,15.34,45.81,16.13Z"/></g></g></svg>