<svg xmlns="http://www.w3.org/2000/svg" viewBox="0 0 305.4 70.34"><defs><style>.cls-1{fill:#1d1d1b;}.cls-2{fill:#e6332a;}.cls-3{fill:#fff;}</style></defs><title>Logo_negro</title><g id="Capa_2" data-name="Capa 2"><g id="Capa_1-2" data-name="Capa 1"><path class="cls-1" d="M97,28h5.7c3.36,0,5.53,1.73,5.53,4.67v0c0,3.13-2.41,4.79-5.72,4.79h-1.82v3.8H97Zm5.43,6.61c1.32,0,2.11-.69,2.11-1.73v0c0-1.14-.79-1.75-2.12-1.75h-1.73v3.52Z"/><path class="cls-1" d="M109.05,36.16v0a5.69,5.69,0,0,1,11.36,0v0a5.47,5.47,0,0,1-5.7,5.37A5.42,5.42,0,0,1,109.05,36.16Zm7.84,0v0a2.22,2.22,0,0,0-2.18-2.32,2.15,2.15,0,0,0-2.15,2.28v0a2.22,2.22,0,0,0,2.19,2.31A2.14,2.14,0,0,0,116.89,36.16Z"/><path class="cls-1" d="M121.93,31h3.61V33a3.14,3.14,0,0,1,3.25-2.24v3.8h-.3c-1.88,0-3,1.08-3,3.45v3.2h-3.61Z"/><path class="cls-1" d="M130.69,38.05V33.87h-1.21V31h1.21v-2.6h3.61V31h2.4v2.9h-2.4v3.48c0,.72.33,1,1,1a3.34,3.34,0,0,0,1.37-.34v2.83a5.17,5.17,0,0,1-2.51.59C132,41.46,130.69,40.51,130.69,38.05Z"/><path class="cls-1" d="M137.74,38.3v0c0-2.12,1.62-3.23,4-3.23a7.86,7.86,0,0,1,2.47.4v-.17c0-1.06-.66-1.67-2.05-1.67a7.26,7.26,0,0,0-2.83.57l-.74-2.55a10.41,10.41,0,0,1,4.16-.79,5.27,5.27,0,0,1,3.91,1.25,4.29,4.29,0,0,1,1.1,3.27v5.91h-3.57V40.18a3.86,3.86,0,0,1-3,1.29C139.24,41.47,137.74,40.35,137.74,38.3Zm6.54-.78v-.47a3.85,3.85,0,0,0-1.41-.27c-1,0-1.65.52-1.65,1.27v0a1.13,1.13,0,0,0,1.27,1.12A1.65,1.65,0,0,0,144.28,37.52Z"/><path class="cls-1" d="M149.22,36.16v0a5.16,5.16,0,0,1,5.19-5.38c3.55,0,5.18,2.6,5.18,5.62,0,.23,0,.5,0,.74H152.7a2.12,2.12,0,0,0,2.22,1.7,3.12,3.12,0,0,0,2.28-1l2,1.65a5.35,5.35,0,0,1-4.46,2.09A5.17,5.17,0,0,1,149.22,36.16Zm7-.9a1.83,1.83,0,0,0-1.78-1.86c-1,0-1.6.74-1.79,1.86Z"/><path class="cls-1" d="M163.21,36.06,159.8,31h3.9l1.52,2.52L166.74,31h3.82L167.18,36l3.45,5.21h-3.87l-1.6-2.64-1.61,2.64h-3.8Z"/><path class="cls-1" d="M172.25,38.05V33.87H171V31h1.21v-2.6h3.61V31h2.39v2.9h-2.39v3.48c0,.72.32,1,1,1a3.34,3.34,0,0,0,1.37-.34v2.83a5.17,5.17,0,0,1-2.51.59C173.54,41.46,172.25,40.51,172.25,38.05Z"/><path class="cls-1" d="M179.81,27.38h3.77V30h-3.77Zm.08,3.59h3.61V41.25h-3.61Z"/><path class="cls-1" d="M185.52,31h3.61v1.44a3.8,3.8,0,0,1,3.07-1.67c2.19,0,3.5,1.44,3.5,3.78v6.73h-3.61V35.68c0-1.12-.59-1.73-1.45-1.73a1.52,1.52,0,0,0-1.51,1.73v5.57h-3.61Z"/><path class="cls-1" d="M198.19,38.05V33.87H197V31h1.22v-2.6h3.61V31h2.39v2.9H201.8v3.48c0,.72.32,1,1,1a3.25,3.25,0,0,0,1.36-.34v2.83a5.13,5.13,0,0,1-2.5.59C199.48,41.46,198.19,40.51,198.19,38.05Z"/><path class="cls-1" d="M205.05,36.16v0a5.47,5.47,0,0,1,5.7-5.38,5.42,5.42,0,0,1,5.66,5.34v0a5.69,5.69,0,0,1-11.36,0Zm7.85,0v0a2.23,2.23,0,0,0-2.19-2.32,2.15,2.15,0,0,0-2.15,2.28v0a2.23,2.23,0,0,0,2.19,2.31A2.15,2.15,0,0,0,212.9,36.16Z"/><path class="cls-1" d="M217.93,31h3.61V33a3.14,3.14,0,0,1,3.25-2.24v3.8h-.3c-1.88,0-3,1.08-3,3.45v3.2h-3.61Z"/><path class="cls-2" d="M224.68,37.54h3.76v3.71h-3.76Z"/><path class="cls-2" d="M229.62,36.16v0a5.34,5.34,0,0,1,5.51-5.36,4.86,4.86,0,0,1,4.39,2.3l-2.45,1.82a2.23,2.23,0,0,0-1.92-1.08,2.13,2.13,0,0,0-2,2.28v0a2.12,2.12,0,0,0,2.05,2.33,2.47,2.47,0,0,0,2-1.06l2.42,1.75A5.11,5.11,0,0,1,235,41.49,5.3,5.3,0,0,1,229.62,36.16Z"/><path class="cls-2" d="M240.15,36.16v0a5.69,5.69,0,0,1,11.36,0v0a5.47,5.47,0,0,1-5.7,5.37A5.42,5.42,0,0,1,240.15,36.16Zm7.84,0v0a2.22,2.22,0,0,0-2.18-2.32,2.15,2.15,0,0,0-2.15,2.28v0a2.23,2.23,0,0,0,2.19,2.31A2.14,2.14,0,0,0,248,36.16Z"/><path class="cls-2" d="M253,31h3.61v1.4a3.8,3.8,0,0,1,3.06-1.63,3.15,3.15,0,0,1,3,1.67,4.35,4.35,0,0,1,3.44-1.67c2.19,0,3.52,1.37,3.52,3.76v6.75H266V35.66c0-1.12-.55-1.71-1.41-1.71s-1.48.59-1.48,1.71v5.59h-3.61V35.66c0-1.12-.55-1.71-1.41-1.71s-1.46.59-1.46,1.71v5.59H253Z"/><path class="cls-2" d="M271.33,37.54h3.76v3.71h-3.76Z"/><path class="cls-2" d="M276.88,31h3.61v1.4a3.77,3.77,0,0,1,3.06-1.63,3.15,3.15,0,0,1,3,1.67A4.34,4.34,0,0,1,290,30.74c2.19,0,3.52,1.37,3.52,3.76v6.75h-3.61V35.66c0-1.12-.56-1.71-1.41-1.71s-1.48.59-1.48,1.71v5.59h-3.61V35.66c0-1.12-.55-1.71-1.41-1.71s-1.46.59-1.46,1.71v5.59h-3.61Z"/><path class="cls-2" d="M298,36.06,294.57,31h3.9L300,33.49,301.51,31h3.81L301.94,36l3.46,5.21h-3.87l-1.6-2.64-1.62,2.64h-3.79Z"/><circle class="cls-2" cx="35.17" cy="35.17" r="35.17"/><rect class="cls-2" x="81.17" y="7.03" width="4.55" height="56.65"/><path class="cls-3" d="M44.27,55H29.6a3.6,3.6,0,0,1-3.6-3.6V31.33a9.9,9.9,0,0,1,9.89-9.9H38a9.9,9.9,0,0,1,9.89,9.9v20.1A3.6,3.6,0,0,1,44.27,55Zm-8.38-31.6A7.9,7.9,0,0,0,28,31.33v20.1A1.6,1.6,0,0,0,29.6,53H44.27a1.6,1.6,0,0,0,1.6-1.6V31.33A7.9,7.9,0,0,0,38,23.43Z"/><path class="cls-3" d="M22.57,48.5a1,1,0,0,1-1-1V28.75c0-5.89,5.32-10.87,11.62-10.87a1,1,0,0,1,0,2c-5.13,0-9.62,4.14-9.62,8.87V47.5A1,1,0,0,1,22.57,48.5Z"/><path class="cls-3" d="M39.4,23.5H34.23a1,1,0,0,1-1-1V16.7a1,1,0,0,1,1-1H39.4a1,1,0,0,1,1,1v5.8A1,1,0,0,1,39.4,23.5Zm-4.17-2H38.4V17.7H35.23Z"/><path class="cls-3" d="M49.8,60.28H20.23a3.82,3.82,0,0,1-3.81-3.81V14.82A3.82,3.82,0,0,1,20.23,11H49.8a3.82,3.82,0,0,1,3.81,3.81V56.47A3.82,3.82,0,0,1,49.8,60.28ZM20.23,13a1.81,1.81,0,0,0-1.81,1.81V56.47a1.81,1.81,0,0,0,1.81,1.81H49.8a1.81,1.81,0,0,0,1.81-1.81V14.82A1.81,1.81,0,0,0,49.8,13Z"/><path class="cls-3" d="M45.75,22.3c-3,0-5.81-2.32-6-2.44a1,1,0,0,1-.15-1.37,7.74,7.74,0,0,1,7.92-2.71A1,1,0,0,1,48.27,17a1,1,0,0,1-1.21.72A5.55,5.55,0,0,0,42,19c1.27.81,3.32,1.75,4.91,1.15A1,1,0,0,1,47.58,22,5.08,5.08,0,0,1,45.75,22.3Z"/><path class="cls-3" d="M46.88,47.82H27.07a1,1,0,0,1-1-1V33.73a1,1,0,0,1,1-1H46.88a1,1,0,0,1,1,1V46.82A1,1,0,0,1,46.88,47.82Zm-18.81-2H45.88V34.73H28.07Z"/></g></g></svg>